<svg xmlns="http://www.w3.org/2000/svg" viewBox="0 0 500 500"><g id="freepik--background-simple--inject-32"><path d="M417.46,102.17a217.72,217.72,0,0,0-59.33-41.64c-32.72-15.3-68.75-22.67-104.79-23.11C148,36.14,140,159.86,107.63,177.07s-91.07,19.22-93.1,88c-1.27,43.28,8.83,87.78,37.24,121.51,26,30.88,64.25,46.53,101.91,58.1,42.3,13,87.15,25.72,131.64,17,45.65-9,77.72-45.14,115.22-69.57,23.6-15.38,44.79-31.58,59.37-56.26,1.74-2.95,3.37-6,4.92-9,19.52-38.35,23.34-82.59,12.58-124.09C467.76,165.5,446,130,417.46,102.17Z" style="fill:#40F5FF"></path><path d="M417.46,102.17a217.72,217.72,0,0,0-59.33-41.64c-32.72-15.3-68.75-22.67-104.79-23.11C148,36.14,140,159.86,107.63,177.07s-91.07,19.22-93.1,88c-1.27,43.28,8.83,87.78,37.24,121.51,26,30.88,64.25,46.53,101.91,58.1,42.3,13,87.15,25.72,131.64,17,45.65-9,77.72-45.14,115.22-69.57,23.6-15.38,44.79-31.58,59.37-56.26,1.74-2.95,3.37-6,4.92-9,19.52-38.35,23.34-82.59,12.58-124.09C467.76,165.5,446,130,417.46,102.17Z" style="fill:#fff;opacity:0.7000000000000001"></path></g><g id="freepik--phase-4--inject-32"><path d="M348.43,466.47v2.25c0,2.78-1.34,4.3-4.07,4.3h-1.29v6.52h-2.73V462.17h4C347.09,462.17,348.43,463.69,348.43,466.47Zm-5.36-1.81v5.88h1.29c.87,0,1.34-.4,1.34-1.64v-2.61c0-1.24-.47-1.63-1.34-1.63Z" style="fill:#263238"></path><path d="M352.42,479.54h-2.73V462.17h2.73v7.45h3.11v-7.45h2.77v17.37h-2.77V472.1h-3.11Z" style="fill:#263238"></path><path d="M369.12,479.54h-2.75l-.48-3.15h-3.35l-.47,3.15h-2.5l2.78-17.37h4Zm-6.23-5.5h2.63l-1.31-8.79Z" style="fill:#263238"></path><path d="M374.06,462c2.65,0,4,1.58,4,4.36v.55H375.5v-.72c0-1.24-.5-1.71-1.37-1.71s-1.36.47-1.36,1.71c0,3.57,5.33,4.24,5.33,9.2,0,2.78-1.39,4.37-4.07,4.37s-4.07-1.59-4.07-4.37v-1.06h2.58v1.24c0,1.24.55,1.68,1.42,1.68s1.41-.44,1.41-1.68c0-3.58-5.33-4.25-5.33-9.21C370,463.56,371.4,462,374.06,462Z" style="fill:#263238"></path><path d="M382.39,469.49h3.75V472h-3.75v5.09h4.72v2.48h-7.45V462.17h7.45v2.49h-4.72Z" style="fill:#263238"></path><path d="M392,473.91l5-11.74h3v11.74h1.29v2.48h-1.29v3.15h-2.68v-3.15H392Zm5.26,0v-6.53l-2.75,6.53Z" style="fill:#263238"></path></g><g id="freepik--phase-3--inject-32"><path d="M96.52,466.47v2.25c0,2.78-1.34,4.3-4.07,4.3H91.16v6.52H88.44V462.17h4C95.18,462.17,96.52,463.69,96.52,466.47Zm-5.36-1.81v5.88h1.29c.87,0,1.34-.4,1.34-1.64v-2.61c0-1.24-.47-1.63-1.34-1.63Z" style="fill:#263238"></path><path d="M100.52,479.54H97.79V462.17h2.73v7.45h3.1v-7.45h2.78v17.37h-2.78V472.1h-3.1Z" style="fill:#263238"></path><path d="M117.21,479.54h-2.75l-.47-3.15h-3.35l-.47,3.15h-2.51l2.78-17.37h4ZM111,474h2.63l-1.32-8.79Z" style="fill:#263238"></path><path d="M122.15,462c2.65,0,4,1.58,4,4.36v.55h-2.58v-.72c0-1.24-.5-1.71-1.37-1.71s-1.36.47-1.36,1.71c0,3.57,5.33,4.24,5.33,9.2,0,2.78-1.39,4.37-4.07,4.37s-4.06-1.59-4.06-4.37v-1.06h2.58v1.24c0,1.24.54,1.68,1.41,1.68s1.41-.44,1.41-1.68c0-3.58-5.33-4.25-5.33-9.21C118.13,463.56,119.5,462,122.15,462Z" style="fill:#263238"></path><path d="M130.48,469.49h3.75V472h-3.75v5.09h4.72v2.48h-7.44V462.17h7.44v2.49h-4.72Z" style="fill:#263238"></path><path d="M146,466.44c0-1.56-.55-2-1.41-2s-1.42.47-1.42,1.71v1.12h-2.58v-1c0-2.78,1.39-4.36,4.07-4.36s4.07,1.58,4.07,4.36v.45c0,1.86-.6,3-1.91,3.57,1.36.6,1.91,1.89,1.91,3.65v1.36c0,2.78-1.39,4.37-4.07,4.37s-4.07-1.59-4.07-4.37v-1.43h2.58v1.61c0,1.24.55,1.71,1.42,1.71s1.41-.42,1.41-2v-1.36c0-1.62-.55-2.21-1.79-2.21h-.91v-2.48h1.06c1,0,1.64-.45,1.64-1.84Z" style="fill:#263238"></path></g><g id="freepik--phase-2--inject-32"><path d="M348.43,217.81v2.25c0,2.78-1.34,4.3-4.07,4.3h-1.29v6.52h-2.73V213.51h4C347.09,213.51,348.43,215,348.43,217.81ZM343.07,216v5.88h1.29c.87,0,1.34-.4,1.34-1.64v-2.61c0-1.24-.47-1.63-1.34-1.63Z" style="fill:#263238"></path><path d="M352.42,230.88h-2.73V213.51h2.73V221h3.11v-7.45h2.77v17.37h-2.77v-7.44h-3.11Z" style="fill:#263238"></path><path d="M369.12,230.88h-2.75l-.48-3.15h-3.35l-.47,3.15h-2.5l2.78-17.37h4Zm-6.23-5.51h2.63l-1.31-8.78Z" style="fill:#263238"></path><path d="M374.06,213.32c2.65,0,4,1.58,4,4.36v.55H375.5v-.72c0-1.24-.5-1.71-1.37-1.71s-1.36.47-1.36,1.71c0,3.57,5.33,4.24,5.33,9.2,0,2.78-1.39,4.37-4.07,4.37s-4.07-1.59-4.07-4.37v-1.06h2.58v1.24c0,1.24.55,1.68,1.42,1.68s1.41-.44,1.41-1.68c0-3.58-5.33-4.25-5.33-9.21C370,214.9,371.4,213.32,374.06,213.32Z" style="fill:#263238"></path><path d="M382.39,220.83h3.75v2.48h-3.75v5.09h4.72v2.48h-7.45V213.51h7.45V216h-4.72Z" style="fill:#263238"></path><path d="M396.63,215.8c-.87,0-1.41.47-1.41,1.71v1.86h-2.58v-1.69c0-2.78,1.39-4.36,4.07-4.36s4.06,1.58,4.06,4.36c0,5.46-5.43,7.49-5.43,10.35a1.54,1.54,0,0,0,0,.37h5.16v2.48h-7.89v-2.13c0-5.11,5.41-6,5.41-11C398.05,216.22,397.5,215.8,396.63,215.8Z" style="fill:#263238"></path></g><g id="freepik--phase-1--inject-32"><path d="M96.52,217.81v2.25c0,2.78-1.34,4.3-4.07,4.3H91.16v6.52H88.44V213.51h4C95.18,213.51,96.52,215,96.52,217.81ZM91.16,216v5.88h1.29c.87,0,1.34-.4,1.34-1.64v-2.61c0-1.24-.47-1.63-1.34-1.63Z" style="fill:#263238"></path><path d="M100.52,230.88H97.79V213.51h2.73V221h3.1v-7.45h2.78v17.37h-2.78v-7.44h-3.1Z" style="fill:#263238"></path><path d="M117.21,230.88h-2.75l-.47-3.15h-3.35l-.47,3.15h-2.51l2.78-17.37h4ZM111,225.37h2.63l-1.32-8.78Z" style="fill:#263238"></path><path d="M122.15,213.32c2.65,0,4,1.58,4,4.36v.55h-2.58v-.72c0-1.24-.5-1.71-1.37-1.71s-1.36.47-1.36,1.71c0,3.57,5.33,4.24,5.33,9.2,0,2.78-1.39,4.37-4.07,4.37s-4.06-1.59-4.06-4.37v-1.06h2.58v1.24c0,1.24.54,1.68,1.41,1.68s1.41-.44,1.41-1.68c0-3.58-5.33-4.25-5.33-9.21C118.13,214.9,119.5,213.32,122.15,213.32Z" style="fill:#263238"></path><path d="M130.48,220.83h3.75v2.48h-3.75v5.09h4.72v2.48h-7.44V213.51h7.44V216h-4.72Z" style="fill:#263238"></path><path d="M142.42,215.7a2.7,2.7,0,0,0,3-2.19h1.84v17.37h-2.73V217.63h-2.11Z" style="fill:#263238"></path></g><g id="freepik--characters-4--inject-32"><path d="M321.79,400.46s36.39,3,55.17,0" style="fill:#fff;stroke:#263238;stroke-linecap:round;stroke-linejoin:round"></path><path d="M322.41,398.5h-3.25V341.24a1.62,1.62,0,0,1,1.63-1.62h0a1.62,1.62,0,0,1,1.62,1.62Z" style="fill:#fff;stroke:#263238;stroke-linecap:round;stroke-linejoin:round"></path><path d="M378.59,398.5h-3.24V341.24a1.61,1.61,0,0,1,1.62-1.62h0a1.62,1.62,0,0,1,1.62,1.62Z" style="fill:#fff;stroke:#263238;stroke-linecap:round;stroke-linejoin:round"></path><path d="M322,342.51v43h53.32V341.11S335.23,345.29,322,342.51Z" style="fill:#263238;stroke:#263238;stroke-linecap:round;stroke-linejoin:round"></path><path d="M344.28,386.06s-7.24-.17-12.93,3.1-6.72,3.62-6.72,6.21.69,5.34,2.24,5.69a223.23,223.23,0,0,0,24.14,1c8.79-.17,17.75.69,20.51-1.2s1.21-7.59,0-10.69-3.79-6.55-10.17-6.21S344.28,386.06,344.28,386.06Z" style="fill:#40F5FF;stroke:#263238;stroke-linecap:round;stroke-linejoin:round"></path><rect x="318.78" y="375.19" width="3.25" height="58.88" style="fill:#fff;stroke:#263238;stroke-linecap:round;stroke-linejoin:round"></rect><path d="M318.43,449.6h0a2.67,2.67,0,0,1-2.67-2.66v-16a2.67,2.67,0,0,1,2.67-2.66h0a2.66,2.66,0,0,1,2.66,2.66v16A2.66,2.66,0,0,1,318.43,449.6Z" style="fill:#263238;stroke:#263238;stroke-linecap:round;stroke-linejoin:round"></path><path d="M378.7,449.6h0a2.67,2.67,0,0,1-2.67-2.66v-16a2.67,2.67,0,0,1,2.67-2.66h0a2.66,2.66,0,0,1,2.66,2.66v16A2.66,2.66,0,0,1,378.7,449.6Z" style="fill:#263238;stroke:#263238;stroke-linecap:round;stroke-linejoin:round"></path><path d="M323.53,375.65H314a2.2,2.2,0,0,1-2.2-2.2h0a2.21,2.21,0,0,1,2.2-2.2h9.51a2.21,2.21,0,0,1,2.2,2.2h0A2.2,2.2,0,0,1,323.53,375.65Z" style="fill:#fff;stroke:#263238;stroke-linecap:round;stroke-linejoin:round"></path><rect x="375.8" y="375.19" width="3.25" height="58.88" style="fill:#fff;stroke:#263238;stroke-linecap:round;stroke-linejoin:round"></rect><rect x="375.63" y="417.97" width="1.64" height="26.11" style="fill:#fff;stroke:#263238;stroke-linecap:round;stroke-linejoin:round"></rect><rect x="321.04" y="417.97" width="1.64" height="26.11" style="fill:#fff;stroke:#263238;stroke-linecap:round;stroke-linejoin:round"></rect><path d="M382.41,375.65H372.9a2.2,2.2,0,0,1-2.2-2.2h0a2.21,2.21,0,0,1,2.2-2.2h9.51a2.21,2.21,0,0,1,2.2,2.2h0A2.2,2.2,0,0,1,382.41,375.65Z" style="fill:#fff;stroke:#263238;stroke-linecap:round;stroke-linejoin:round"></path><path d="M352.9,343a64.28,64.28,0,0,0,8.62,0c4-.35,6.9,1,8.62,3.1s11.38,19,11.9,19.48-1.72,3.11-5.34,4.48-8.8-1.89-8.8-1.89l-2.76.17-2.24,17.59H342s-3.45-34.31-4-36.9a4.6,4.6,0,0,1,3.44-5.69C344.28,342.61,352.9,343,352.9,343Z" style="fill:#263238;stroke:#263238;stroke-linecap:round;stroke-linejoin:round"></path><path d="M382,365.54c-.52-.52-10.17-17.41-11.9-19.48s-4.65-3.45-8.62-3.1c-.46,0-.93.07-1.4.09a48.43,48.43,0,0,0,.54,12.66c.79,3.55,4.79,9.13,8.95,13.32,1.82.86,4.77,1.88,7.09,1C380.32,368.65,382.56,366.06,382,365.54Z" style="fill:#fff;stroke:#263238;stroke-linecap:round;stroke-linejoin:round"></path><path d="M360.66,362.61s11-7.58,13.45-9.31,4-3.79,5.17-2.24,2.42,7.41,2.42,7.41,2.06-1.38,2.58.69a4,4,0,0,1-.69,3.45s1.73.35,1.55,2.76-4,4-4,4l-12.59,2.58s4.48,9.14,6.38,11.73-1.72,8.44-1.72,8.44l-1.38.69s-3.45-6.72-6.21-7.24-10.86.52-10.86.52-.52-13.1,2.59-16.38A12.07,12.07,0,0,0,360.66,362.61Z" style="fill:#fff;stroke:#263238;stroke-linecap:round;stroke-linejoin:round"></path><path d="M342.39,342.61s-7.76-.17-10,.86S315.83,362.44,315,364s.52,4.31,2.07,5.17,2.41,1,5.69,1a30.4,30.4,0,0,1,5.69.51s-.69,6.73-1.38,7.59-4.14,4.48-4.31,7.24,1.21,7.59,2.07,8.11,2.24-2.07,5.86-4A29.51,29.51,0,0,1,341,386.4a13.18,13.18,0,0,0,4.13-.86Z" style="fill:#fff;stroke:#263238;stroke-linecap:round;stroke-linejoin:round"></path><path d="M341.87,341.4s-2.59.52-3.11,1.56-.51,10.86-.51,10.86l5-1.9Z" style="fill:#fff;stroke:#263238;stroke-linecap:round;stroke-linejoin:round"></path><path d="M333.76,364.51h9.49c1.72,0,7.58,5.34,7.58,5.34s1,1.55,0,1.55a5.93,5.93,0,0,1-2.58-1.2s1.72,1.55,1.72,2.24-1,.86-1,.86l-1-.69s.69,1.9-.34,1.9a4.76,4.76,0,0,1-2.24-.86,1.75,1.75,0,0,1-2.07.69c-1.55-.35-4.49-2.76-4.49-2.76s-3.44-1.38-4.13-1.73A25.15,25.15,0,0,1,332,368Z" style="fill:#fff;stroke:#263238;stroke-linecap:round;stroke-linejoin:round"></path><line x1="348.25" y1="370.2" x2="345.14" y2="367.78" style="fill:#fff;stroke:#263238;stroke-linecap:round;stroke-linejoin:round"></line><line x1="347.9" y1="372.61" x2="343.94" y2="369.51" style="fill:#fff;stroke:#263238;stroke-linecap:round;stroke-linejoin:round"></line><line x1="345.32" y1="373.65" x2="342.04" y2="371.06" style="fill:#fff;stroke:#263238;stroke-linecap:round;stroke-linejoin:round"></line><path d="M327.9,361.58s-9.65-2.93-11.38-1.9-5,6.55-5,8.62,3.28,2.93,5.87,3.45,8.27,1.38,8.27,1.38Z" style="fill:#fff;stroke:#263238;stroke-linecap:round;stroke-linejoin:round"></path><path d="M327.39,360.71s-5.87,10.87-5,11.56,8.1,2.24,9,1.55,4.83-9.66,4.31-11.21S328.42,360.54,327.39,360.71Z" style="fill:#fff;stroke:#263238;stroke-linecap:round;stroke-linejoin:round"></path><path d="M361.52,364.51H352c-1.72,0-7.59,5.34-7.59,5.34s-1,1.55,0,1.55a5.92,5.92,0,0,0,2.59-1.2s-1.72,1.55-1.72,2.24,1,.86,1,.86l1-.69s-.69,1.9.34,1.9a4.81,4.81,0,0,0,2.24-.86,1.75,1.75,0,0,0,2.07.69c1.55-.35,4.48-2.76,4.48-2.76s3.45-1.38,4.14-1.73a25.15,25.15,0,0,0,2.59-1.89Z" style="fill:#fff;stroke:#263238;stroke-linecap:round;stroke-linejoin:round"></path><line x1="347.04" y1="370.2" x2="350.14" y2="367.78" style="fill:#fff;stroke:#263238;stroke-linecap:round;stroke-linejoin:round"></line><line x1="347.39" y1="372.61" x2="351.35" y2="369.51" style="fill:#fff;stroke:#263238;stroke-linecap:round;stroke-linejoin:round"></line><line x1="349.97" y1="373.65" x2="353.25" y2="371.06" style="fill:#fff;stroke:#263238;stroke-linecap:round;stroke-linejoin:round"></line><path d="M367.39,361.58s9.65-2.93,11.37-1.9,5,6.55,5,8.62-3.27,2.93-5.86,3.45-8.27,1.38-8.27,1.38Z" style="fill:#fff;stroke:#263238;stroke-linecap:round;stroke-linejoin:round"></path><path d="M367.9,360.71s5.86,10.87,5,11.56-8.1,2.24-9,1.55-4.83-9.66-4.31-11.21S366.87,360.54,367.9,360.71Z" style="fill:#fff;stroke:#263238;stroke-linecap:round;stroke-linejoin:round"></path><path d="M335.32,424.68l.51,10a8.91,8.91,0,0,0-6.55-1.9c-3.79.52-4.65,2.07-3.1,5.35s10,6.38,13.1,6.72S341,440.71,341,440s.86-12.41.86-12.41Z" style="fill:#fff;stroke:#263238;stroke-linecap:round;stroke-linejoin:round"></path><path d="M341,440c0-.09,0-.38,0-.8a21.22,21.22,0,0,0-5.22-4.54,8.91,8.91,0,0,0-6.55-1.9c-3.79.52-4.65,2.07-3.1,5.35s10,6.38,13.1,6.72S341,440.71,341,440Z" style="fill:#263238;stroke:#263238;stroke-linecap:round;stroke-linejoin:round"></path><path d="M345.32,389s-6.38-5-10.18-4.48-4.65,5.34-4.65,9.14v30.86l12.76,6.2,1.55-37.24" style="fill:#40F5FF;stroke:#263238;stroke-linecap:round;stroke-linejoin:round"></path><path d="M363.38,424.68l-.52,10a8.93,8.93,0,0,1,6.55-1.9c3.79.52,4.66,2.07,3.11,5.35s-10,6.38-13.11,6.72-1.72-4.14-1.72-4.83-.86-12.41-.86-12.41Z" style="fill:#fff;stroke:#263238;stroke-linecap:round;stroke-linejoin:round"></path><path d="M357.69,440c0-.09,0-.38,0-.8a21.28,21.28,0,0,1,5.21-4.54,8.93,8.93,0,0,1,6.55-1.9c3.79.52,4.66,2.07,3.11,5.35s-10,6.38-13.11,6.72S357.69,440.71,357.69,440Z" style="fill:#263238;stroke:#263238;stroke-linecap:round;stroke-linejoin:round"></path><path d="M353.38,389s6.38-5,10.17-4.48,4.65,5.34,4.65,9.14v30.86l-12.75,6.2-1.56-37.24" style="fill:#40F5FF;stroke:#263238;stroke-linecap:round;stroke-linejoin:round"></path><polygon points="340.66 444.16 321.35 444.16 319.97 437.09 339.28 437.09 340.66 444.16" style="fill:#263238;stroke:#263238;stroke-linecap:round;stroke-linejoin:round"></polygon><polygon points="355.59 444.16 374.9 444.16 376.28 437.09 356.97 437.09 355.59 444.16" style="fill:#263238;stroke:#263238;stroke-linecap:round;stroke-linejoin:round"></polygon><path d="M362.12,314.46s-7.49,1.43-9.73,1.77-3.11.52-5.52,3.45c-1,1.18-.54,1.82.31,2.18-2.74,2.62-7,6.69-8.59,8.17-2.41,2.24-9.38,8.3-9.38,8.3s-1.13,3.42,4.9,2,9.83-6.72,11.38-10.34c.93-2.17,2.22-5.5,3.12-7.84a13.44,13.44,0,0,0,2.05.08s3.1-.52,3.79-.69,10.35-1.73,10.87-4.66S362.12,314.46,362.12,314.46Z" style="fill:#fff;stroke:#263238;stroke-linecap:round;stroke-linejoin:round"></path><path d="M342,334.34s0,11.89.69,13.1,5.35,2.93,8.45,2.24a4.1,4.1,0,0,0,3.1-4l-.69-6.9Z" style="fill:#fff;stroke:#263238;stroke-linecap:round;stroke-linejoin:round"></path><path d="M336.54,332.92s-2.83,3.59-1.63,5.39,3,3,5.4,2.23,3.25-3.34,3.42-5.23-2.05-5-2.05-5.22,5.13-2,7.27-6.59-.94-5.83-.94-5.83Z" style="fill:#263238;stroke:#263238;stroke-linecap:round;stroke-linejoin:round"></path><path d="M351.87,317.44s4.31.86,4.48,3.28.74,4.46,1.78,5.5,1.32,4.67.81,7.08-1.21,7.76-3.8,8.28S345,339,343.25,337.78a8.94,8.94,0,0,1-3.62-6.55c0-2.58,3.62-7.93,6.38-10.51A13.89,13.89,0,0,1,351.87,317.44Z" style="fill:#fff;stroke:#263238;stroke-linecap:round;stroke-linejoin:round"></path><path d="M358.44,325.43s-3.3,1.57-7.24,3.15S339.09,330,339.09,330l8,1.58s.16,3.46-1.1,4.56-5-.16-5-.16.95,1.58,6.14,3.94,9.44,2.67,10.23,1.26a31.26,31.26,0,0,0,2.52-10.55A8.55,8.55,0,0,0,358.44,325.43Z" style="fill:#40F5FF;stroke:#263238;stroke-linecap:round;stroke-linejoin:round"></path><path d="M343.47,331.72s-1.45-2.83-3.34-2.23-1.19,5.05-.34,6.08,3.34-.26,3.6-.43" style="fill:#fff;stroke:#263238;stroke-linecap:round;stroke-linejoin:round"></path><path d="M350.77,314.46s-6-3.94-8.12-4.41-10.2,3.94-11.13,7.42,2.09,11.36,2.09,11.36l-4.4,9.5s11.36-5.1,14.6-9,6.49-10.43,8.81-11.36,9.5-3.47,9.5-3.47Z" style="fill:#fff;stroke:#263238;stroke-linecap:round;stroke-linejoin:round"></path><path d="M354.9,325.11c.17.63.07,1.2-.21,1.28s-.66-.37-.84-1-.07-1.2.22-1.28S354.73,324.48,354.9,325.11Z" style="fill:#263238"></path><path d="M351.57,323.87a3.3,3.3,0,0,1,3.25-2" style="fill:none;stroke:#263238;stroke-linecap:round;stroke-linejoin:round"></path><path d="M396.23,348.08l-4.93-2.76s-5.77-4.33-6.61-4.33h-5.77c-.36,0-.6,1.33.12,2.77s.12,3.84,1.56,4.8,8.42,1.57,8.42,1.57l6.12,3.12Z" style="fill:#dedede;stroke:#263238;stroke-linecap:round;stroke-linejoin:round"></path><path d="M384.69,341h-5.77c-.36,0-.6,1.33.12,2.77s.12,3.84,1.56,4.8,8.42,1.57,8.42,1.57l.75.38a4.36,4.36,0,0,0,1.53-1.83,10.29,10.29,0,0,0,.25-3.22l-.25-.14S385.53,341,384.69,341Z" style="fill:#40F5FF;stroke:#263238;stroke-linecap:round;stroke-linejoin:round"></path><rect x="375.42" y="340.87" width="1.3" height="5.7" transform="translate(517.03 -145.87) rotate(63.63)" style="fill:#fff;stroke:#263238;stroke-linecap:round;stroke-linejoin:round"></rect><polygon points="373.23 344.41 372.47 345.42 373.8 345.57 373.23 344.41" style="fill:#fff;stroke:#263238;stroke-linecap:round;stroke-linejoin:round"></polygon><line x1="372.47" y1="345.42" x2="369.47" y2="346.9" style="fill:none;stroke:#263238;stroke-linecap:round;stroke-linejoin:round"></line><path d="M378.67,340.13s-2,.31-1.91,1,.14,1.68,1,1.67,1.24.17,1.42-1.07S379.2,340.41,378.67,340.13Z" style="fill:#40F5FF;stroke:#263238;stroke-linecap:round;stroke-linejoin:round"></path><path d="M378.41,343.31s-1.27,0-1.27.84.36,1.2,1,1.2,3.24,0,3.24-1-.48-1.2-1-1.2S378.41,343.31,378.41,343.31Z" style="fill:#40F5FF;stroke:#263238;stroke-linecap:round;stroke-linejoin:round"></path><path d="M379.1,345.37s-1.27,0-1.27.84.36,1.2,1,1.2,3.24,0,3.24-1-.48-1.2-1-1.2S379.1,345.37,379.1,345.37Z" style="fill:#40F5FF;stroke:#263238;stroke-linecap:round;stroke-linejoin:round"></path><path d="M380.26,347.15s-1.12,0-1.12.73.32,1.06.85,1.06,2.85,0,2.85-.85-.42-1-.84-1S380.26,347.15,380.26,347.15Z" style="fill:#40F5FF;stroke:#263238;stroke-linecap:round;stroke-linejoin:round"></path><path d="M390.1,344.84l-4.69-5.29s-3.84.72-4.93,1-1.8.72-1.2,1.57,3.73.24,3.73.24,1.56,4.32,3.84,4.32" style="fill:#40F5FF;stroke:#263238;stroke-linecap:round;stroke-linejoin:round"></path><path d="M399.23,334.75l4,14.3-7.33-1.81-2.4,6.73s20.07,8,21.39,7.93-10.69-28-10.81-29.08S399.59,331.5,399.23,334.75Z" style="fill:#fff;stroke:#263238;stroke-linecap:round;stroke-linejoin:round"></path><path d="M402.75,439.61a36.92,36.92,0,0,1-5.44,3.69c-2.09,1-6.57,2.88-6.73,4.16s2.4,1.44,6.73,1.44,9.44.59,10.72.27,2.41-.59,2.41-1.55-1.12-5.93-1.12-5.93Z" style="fill:#fff;stroke:#263238;stroke-linecap:round;stroke-linejoin:round"></path><path d="M397.86,447.71c-4.57,0-6.41-.33-7.15-.57a.77.77,0,0,0-.13.32c-.16,1.28,2.4,1.44,6.73,1.44s9.44.59,10.72.27,2.41-.59,2.41-1.55c0-.1,0-.26,0-.45A96.29,96.29,0,0,1,397.86,447.71Z" style="fill:#fff;stroke:#263238;stroke-linecap:round;stroke-linejoin:round"></path><path d="M429.67,441.55a33,33,0,0,1-3.74,3.17c-1.22.73-6.67,3.17-6.18,4.15s5.28,2,7.81,2,8.46-1.79,9.6-2.36a2.82,2.82,0,0,0,1.38-2.27,13.24,13.24,0,0,0-1.22-3.42C436.91,442.36,429.67,441.55,429.67,441.55Z" style="fill:#fff;stroke:#263238;stroke-linecap:round;stroke-linejoin:round"></path><path d="M437.16,448.54a2.81,2.81,0,0,0,1.37-2.1,34.14,34.14,0,0,1-11.14,2.84,15.9,15.9,0,0,1-7.18-1.26c-.38.33-.57.63-.46.85.48,1,5.28,2,7.81,2S436,449.11,437.16,448.54Z" style="fill:#fff;stroke:#263238;stroke-linecap:round;stroke-linejoin:round"></path><path d="M404.84,399.72l-1.28,34.44-2.25,1.44.16,4.49s0,1.92,3.21,2.88a16.47,16.47,0,0,0,6.41.49s.32-4.33.64-5.61-.32-3.53,0-4.33,8.33-31.72,8.33-31.72l1.12-5.13,8.33,42.12-1.44.8v1.76a40.16,40.16,0,0,0,5.61,4,29.55,29.55,0,0,0,4.8,1.44s.48-3.85.64-5.29-1.92-5.45-1.92-5.45,1.12-21.92,1.28-24.33-1.12-11.21-1.12-11.21l-9-27.4-16-1.6Z" style="fill:#40F5FF;stroke:#263238;stroke-linecap:round;stroke-linejoin:round"></path><path d="M397.55,322c-.07.37,0,8.53.24,9.85s5.65,10.46,5.65,10.46l7.21,24-7.34,35,4.09,2,9.37-22.95-.72,25.47s10.94,1.81,16.71,1a107.38,107.38,0,0,0,12-2.65s2.41-41.1,1.8-43.62-9.25-30.16-16.82-35.45-19.95-9.37-21.51-10a18,18,0,0,0-3.72-.84S398.87,314.08,397.55,322Z" style="fill:#fff;stroke:#263238;stroke-linecap:round;stroke-linejoin:round"></path><path d="M432.51,364.22c.66-.16,1.32-.35,2-.55" style="fill:none;stroke:#263238;stroke-linecap:round;stroke-linejoin:round"></path><path d="M414.61,365a54.78,54.78,0,0,0,16.38-.39" style="fill:none;stroke:#263238;stroke-linecap:round;stroke-linejoin:round"></path><path d="M414,366.07s1.76,2.24,11,2.56" style="fill:none;stroke:#263238;stroke-linecap:round;stroke-linejoin:round"></path><path d="M426.21,376.11c.9.35,1.84.69,2.82,1" style="fill:none;stroke:#263238;stroke-linecap:round;stroke-linejoin:round"></path><path d="M413.49,369.11A52.26,52.26,0,0,0,424,375.19" style="fill:none;stroke:#263238;stroke-linecap:round;stroke-linejoin:round"></path><polyline points="416.85 378.08 416.85 372.8 415.25 370.39 417.33 368.31 416.37 366.07 416.53 364.63" style="fill:none;stroke:#263238;stroke-linecap:round;stroke-linejoin:round"></polyline><polygon points="400.67 324.29 404.76 340.99 405.53 314.79 404.52 314.32 400.67 324.29" style="fill:#40F5FF;stroke:#263238;stroke-linecap:round;stroke-linejoin:round"></polygon><path d="M382.8,302.61c-1.69,3.41-2.65,7.64-.83,10.49,2.26,3.56,4,6,4.2,6.95s-.16,3.55.64,3.88,4.37,3.23,5.66,3.87,3.55,1.14,4.36.33a22.27,22.27,0,0,0,2.26-3.88l5.18,5.05,1-13.89-.33-1s3.88-4.69,0-13.58c-1.81-4.13-6.67-5.72-10.88-5.57A12.35,12.35,0,0,0,382.8,302.61Z" style="fill:#dedede;stroke:#263238;stroke-linecap:round;stroke-linejoin:round"></path><path d="M399.42,321.67l-2.75-4.37,2.91-5.65s-3.4,5-5.17,6.14c-1.59,1-7,3.42-8.18,3.94,0,1,.1,2,.58,2.2.81.32,4.37,3.23,5.66,3.87s3.55,1.14,4.36.33a22.27,22.27,0,0,0,2.26-3.88l3.07-7.92Z" style="fill:#40F5FF;stroke:#263238;stroke-linecap:round;stroke-linejoin:round"></path><path d="M399.42,314.4s-.65-3.88,1-4.37,3.64,2.47,3.23,4.53c-.6,2.92-4.44,2.9-3.4,1.45" style="fill:#dedede;stroke:#263238;stroke-linecap:round;stroke-linejoin:round"></path><path d="M407,304.82s4.1-2.19,6,0,4.37,6.83.54,9-7.55,2.48-8.69.56S404.86,304.55,407,304.82Z" style="fill:#263238;stroke:#263238;stroke-linecap:round;stroke-linejoin:round"></path><path d="M404.91,314.4s3.88-4.69,0-13.58c-1.81-4.13-6.67-5.72-10.88-5.57a12.35,12.35,0,0,0-11.23,7.36,17.11,17.11,0,0,0-1.75,5.7,2.46,2.46,0,0,0,3.18.27c2.1-1.13,4-4.69,6.62-3.07s-.16,6.79,2.59,6.46,7.11-1.13,7.91-.32,3.11,3.39,4.18,3.14Z" style="fill:#263238;stroke:#263238;stroke-linecap:round;stroke-linejoin:round"></path><path d="M388.71,316.64l.53,1.38a7.4,7.4,0,0,0,2.55-1.57" style="fill:none;stroke:#263238;stroke-linecap:round;stroke-linejoin:round"></path><path d="M387.07,315.73a6,6,0,0,1,4.07-1.64" style="fill:none;stroke:#263238;stroke-linecap:round;stroke-linejoin:round"></path><path d="M383.37,353.49s-7.09-3.12-7.45-3.24-5.41-2.29-6.13-2.17-3.73,2.89-4.33,3.37-2.76,3.24-2.4,4,1.2-.36,1.2-.36-.72,1.09.12,1.21,1.32-.85,1.32-.85-.24,1,.48,1.09,1.33-.85,1.33-.85.6.85,1.08.85,2.52-2.29,2.52-2.29a7.23,7.23,0,0,0,2.64,1.56,16,16,0,0,0,4.33-.48l5.41,2.77Z" style="fill:#dedede;stroke:#263238;stroke-linecap:round;stroke-linejoin:round"></path><path d="M380.36,354.81a6.84,6.84,0,0,0,.13-2.58c-2-.89-4.37-1.91-4.57-2-.36-.12-5.41-2.29-6.13-2.17s-3.73,2.89-4.33,3.37-2.76,3.24-2.4,4,1.2-.36,1.2-.36-.72,1.09.12,1.21,1.32-.85,1.32-.85-.24,1,.48,1.09,1.33-.85,1.33-.85.6.85,1.08.85,2.52-2.29,2.52-2.29a7.23,7.23,0,0,0,2.64,1.56,16,16,0,0,0,4.33-.48l1.68.86A7.45,7.45,0,0,0,380.36,354.81Z" style="fill:#40F5FF;stroke:#263238;stroke-linecap:round;stroke-linejoin:round"></path><line x1="367.51" y1="355.65" x2="370.63" y2="351.93" style="fill:#fff;stroke:#263238;stroke-linecap:round;stroke-linejoin:round"></line><path d="M365.7,355.41a28.23,28.23,0,0,1,2.29-3.48c.48-.36,2.16-1.68,2.16-1.68" style="fill:#fff;stroke:#263238;stroke-linecap:round;stroke-linejoin:round"></path><polyline points="364.26 355.05 366.66 351.57 369.07 349.89" style="fill:#fff;stroke:#263238;stroke-linecap:round;stroke-linejoin:round"></polyline><path d="M411.49,325.25s-3,1.81-3.25,4.69-3.84,26.8-3.84,26.8l-21.39-4-1.2,9.73s30,6.13,30.52,5.41,9.85-29.32,9.85-29.32" style="fill:#fff;stroke:#263238;stroke-linecap:round;stroke-linejoin:round"></path><path d="M411.93,355.05c.65-.19,1.31-.39,2-.6" style="fill:none;stroke:#263238;stroke-linecap:round;stroke-linejoin:round"></path><path d="M405.24,356.74s2.48-.53,5.43-1.33" style="fill:none;stroke:#263238;stroke-linecap:round;stroke-linejoin:round"></path><path d="M414.54,348.93a84.72,84.72,0,0,1-9.18,6.24" style="fill:none;stroke:#263238;stroke-linecap:round;stroke-linejoin:round"></path><path d="M417.25,346.88l-1.68,1.29" style="fill:none;stroke:#263238;stroke-linecap:round;stroke-linejoin:round"></path><path d="M414,343.16s-4.45,5.52-5.29,6.25" style="fill:none;stroke:#263238;stroke-linecap:round;stroke-linejoin:round"></path></g><g id="freepik--characters-3--inject-32"><path d="M47.83,392.71s.56,12.64.93,16.18-1.11,6.32-.37,11.15,3.91,20.64,3.91,20.64l-4.47,8.92H60.1s-.74-12.27-.74-13,.37-22.5.37-25.1-.37-7.07-.37-7.62v-9.48Z" style="fill:#fff;stroke:#263238;stroke-linecap:round;stroke-linejoin:round"></path><path d="M55.27,439.38c-2.6-.75-3,1.3-3,1.3l-4.47,8.92H60.1s-.2-3.38-.4-6.7l-1.08-.18A5.21,5.21,0,0,0,55.27,439.38Z" style="fill:#fff;stroke:#263238;stroke-linecap:round;stroke-linejoin:round"></path><path d="M74.05,392.71s-.56,12.64-.93,16.18,1.11,6.32.37,11.15-3.9,20.64-3.9,20.64l4.46,8.92H61.78s.74-12.27.74-13-.37-22.5-.37-25.1.37-7.07.37-7.62v-9.48Z" style="fill:#fff;stroke:#263238;stroke-linecap:round;stroke-linejoin:round"></path><path d="M66.61,439.38c2.6-.75,3,1.3,3,1.3l4.46,8.92H61.78s.2-3.38.4-6.7l1.08-.18A5.21,5.21,0,0,1,66.61,439.38Z" style="fill:#fff;stroke:#263238;stroke-linecap:round;stroke-linejoin:round"></path><path d="M49,342.14s-6.14,15.43-6.51,24.54,1.68,28.26,1.68,28.26a55.75,55.75,0,0,0,16.73,2.79,78.33,78.33,0,0,0,17.85-2.42S79.81,371,79.81,362s-6.13-19.15-6.13-19.15Z" style="fill:#263238;stroke:#263238;stroke-linecap:round;stroke-linejoin:round"></path><path d="M80.67,368.07s0,.18,0,.48c.06,1.22.22,4.44.22,5.23,0,1,.85,4.61,1.33,4.37s.85-4.5.85-4.5a34.4,34.4,0,0,1,.85,3.41c0,.48-1.21,3.27-.73,3.64s1.82-1,2.55-3.89-1-9.23-1-9.23" style="fill:#fff;stroke:#263238;stroke-linecap:round;stroke-linejoin:round"></path><polygon points="84.32 364.18 84.8 367.58 80.55 368.55 79.46 364.67 84.32 364.18" style="fill:#40F5FF;stroke:#263238;stroke-linecap:round;stroke-linejoin:round"></polygon><path d="M80.55,315.12l.85,21.62s4.13,26.71,3.16,28.17-4.74,1.34-5.47,1S75,350.1,74.72,348.64s-1.21-23.8-1.21-25.87S78.49,313.79,80.55,315.12Z" style="fill:#40F5FF;stroke:#263238;stroke-linecap:round;stroke-linejoin:round"></path><polygon points="57.69 309.61 45.6 315 49.13 344.56 73.3 344.56 76.65 314.81 63.08 309.79 57.69 309.61" style="fill:#fff;stroke:#263238;stroke-linecap:round;stroke-linejoin:round"></polygon><path d="M47.77,286.22s-4,12.27-2.18,15.67,9.83,4.85,15.54,4.85S74,305,74.85,299.94s-3.28-13.72-5.7-18-10.57-5-15.67-2.79A9.51,9.51,0,0,0,47.77,286.22Z" style="fill:#263238;stroke:#263238;stroke-linecap:round;stroke-linejoin:round"></path><path d="M55.79,302.25s-.85,12.51-.49,14,3.16,5.23,6.8,4.13,4.13-5.22,3.77-7.4-1.58-10.57-1.58-10.57Z" style="fill:#fff;stroke:#263238;stroke-linecap:round;stroke-linejoin:round"></path><path d="M52.14,292.05s-.12,7,2,10.08,4.49,5.34,7,5.22,4.49-3.4,5.34-7.65a71,71,0,0,0,.73-11.54,72.47,72.47,0,0,1-9,2.67C53.72,291.81,52.14,292.05,52.14,292.05Z" style="fill:#fff;stroke:#263238;stroke-linecap:round;stroke-linejoin:round"></path><path d="M58.46,298.49s2.31,1.7,3.4-.25" style="fill:none;stroke:#263238;stroke-linecap:round;stroke-linejoin:round"></path><path d="M58.45,301.62s2.46,1.39,4.18-.56" style="fill:none;stroke:#263238;stroke-linecap:round;stroke-linejoin:round"></path><path d="M56.76,295.21c0,.47-.22.85-.49.85s-.48-.38-.48-.85.21-.85.48-.85S56.76,294.74,56.76,295.21Z" style="fill:#263238"></path><path d="M63.8,295c0,.47-.22.85-.48.85s-.49-.38-.49-.85.22-.85.49-.85S63.8,294.49,63.8,295Z" style="fill:#263238"></path><path d="M55.06,293.51a2.87,2.87,0,0,1,3-.25" style="fill:none;stroke:#263238;stroke-linecap:round;stroke-linejoin:round"></path><path d="M61.62,293s2.3-1.34,3.15.36" style="fill:none;stroke:#263238;stroke-linecap:round;stroke-linejoin:round"></path><path d="M40.85,368.07s0,.18,0,.48c-.06,1.22-.22,4.44-.22,5.23,0,1-.85,4.61-1.34,4.37s-.85-4.5-.85-4.5a34.4,34.4,0,0,0-.85,3.41c0,.48,1.22,3.27.73,3.64s-1.82-1-2.55-3.89,1-9.23,1-9.23" style="fill:#fff;stroke:#263238;stroke-linecap:round;stroke-linejoin:round"></path><polygon points="37.21 364.18 36.72 367.58 40.97 368.55 42.06 364.67 37.21 364.18" style="fill:#40F5FF;stroke:#263238;stroke-linecap:round;stroke-linejoin:round"></polygon><path d="M41,315.12l-.85,21.62S36,363.45,37,364.91s4.74,1.34,5.47,1,4.13-15.78,4.37-17.24S48,324.84,48,322.77,43,313.79,41,315.12Z" style="fill:#40F5FF;stroke:#263238;stroke-linecap:round;stroke-linejoin:round"></path><path d="M44.13,324.35,46,329.09,44.74,353l10.56,1.82.12-44.69s-14.57,3.65-14.45,5a46.93,46.93,0,0,0,1.34,5.35" style="fill:#40F5FF;stroke:#263238;stroke-linecap:round;stroke-linejoin:round"></path><path d="M52.63,329.09a108.38,108.38,0,0,0,2.71,11.54l.08-30.49s-1.55.39-3.64,1C51.8,313.9,51.9,324.28,52.63,329.09Z" style="fill:#40F5FF;stroke:#263238;stroke-linecap:round;stroke-linejoin:round"></path><path d="M77,324.35l-1.82,4.74L76.43,353l-10.56,1.82-.13-44.69s14.58,3.65,14.46,5a49.21,49.21,0,0,1-1.34,5.35" style="fill:#40F5FF;stroke:#263238;stroke-linecap:round;stroke-linejoin:round"></path><path d="M68.54,329.09a108.38,108.38,0,0,1-2.71,11.54l-.09-30.49s1.56.39,3.65,1C69.37,313.9,69.27,324.28,68.54,329.09Z" style="fill:#40F5FF;stroke:#263238;stroke-linecap:round;stroke-linejoin:round"></path><path d="M110.64,440.12l-2.23,4.09s-3.9,2.23-4.27,3.16a7,7,0,0,0-.38,2.23h18.6l-1.12-7.43Z" style="fill:#fff;stroke:#263238;stroke-linecap:round;stroke-linejoin:round"></path><path d="M122.13,448.11H103.92a8.19,8.19,0,0,0-.16,1.49h18.6Z" style="fill:#fff;stroke:#263238;stroke-linecap:round;stroke-linejoin:round"></path><path d="M140.2,440.12l2.23,4.09s3.91,2.23,4.28,3.16a7.21,7.21,0,0,1,.37,2.23H128.49l1.12-7.43Z" style="fill:#fff;stroke:#263238;stroke-linecap:round;stroke-linejoin:round"></path><path d="M128.71,448.11h18.22a8.72,8.72,0,0,1,.15,1.49H128.49Z" style="fill:#fff;stroke:#263238;stroke-linecap:round;stroke-linejoin:round"></path><path d="M106.57,353.48s-1.52,8.25-1.15,12.52,1,25,1,25L109,419.67l.93,20.82,11-.37s.74-24.17.37-26.21.77-43.51.77-43.51l3.34-.18.91,44.62L128.12,439l6.32-1.67,5.76.19s-.18-22.68-.18-25.1,1.13-9.85,1.13-11.16-.18-39.78-.18-39.78L140,354Z" style="fill:#263238;stroke:#263238;stroke-linecap:round;stroke-linejoin:round"></path><path d="M96.11,333l-1.3,17.35,1.81,22s.52,6.21,1.82,7.51,1.81,2.85,2.59,2.85,1.29-4.92,1.29-4.92l-.26-2.85,1,3.88c2.07-1.29.52-4.92,0-7.51a8.9,8.9,0,0,0-2.59-4.4l3.36-18.9,1.56-12.69Z" style="fill:#fff;stroke:#263238;stroke-linecap:round;stroke-linejoin:round"></path><path d="M114.76,303.84l-11.9,4.65a46.4,46.4,0,0,0,.37,11c.93,5.58,2.6,27.33,2.6,27.33s-1.11,7.62.37,8.55,29.38.56,31.61.38,3.34-3.17,3.34-5.21-1.67-8.18-1.67-8.18l2.23-36.44-14.5-3.16Z" style="fill:#fff;stroke:#263238;stroke-linecap:round;stroke-linejoin:round"></path><polygon points="115.87 301.8 113.08 304.03 115.69 317.98 122.01 310.17 130 317.79 130 303.1 125.72 301.06 115.87 301.8" style="fill:#fff;stroke:#263238;stroke-linecap:round;stroke-linejoin:round"></polygon><polygon points="114.75 297.34 115.5 304.4 122.19 314.26 127.21 302.73 126.47 296.22 114.75 297.34" style="fill:#fff;stroke:#263238;stroke-linecap:round;stroke-linejoin:round"></polygon><path d="M118.85,273.3s-4.53.16-5.32,4.25-.56,11-.24,14,2.41,9,5.55,10.13c2.25.83,5.34,1.07,7.72-2.61s3.53-11.32,2.91-14.73-.72-6.93-2.3-9.28S121.4,272.92,118.85,273.3Z" style="fill:#fff;stroke:#263238;stroke-linecap:round;stroke-linejoin:round"></path><path d="M113.15,285.36s-1.61-2-2.16-.07,2.3,6.27,2.3,6.27Z" style="fill:none;stroke:#263238;stroke-linecap:round;stroke-linejoin:round"></path><path d="M129.68,285s.42-.7,1-.37.65,1.5.39,3.17a5.79,5.79,0,0,1-1.65,2.95Z" style="fill:none;stroke:#263238;stroke-linecap:round;stroke-linejoin:round"></path><path d="M118.26,285.72c-.06.55-.4,1-.77.92s-.61-.52-.55-1.07.41-1,.77-.92S118.33,285.17,118.26,285.72Z" style="fill:#263238"></path><path d="M125.24,285.38c-.06.55-.4,1-.77.92s-.61-.52-.55-1.07.41-1,.77-.92S125.31,284.83,125.24,285.38Z" style="fill:#263238"></path><path d="M123.26,283.14a2.73,2.73,0,0,1,3.41-.51" style="fill:none;stroke:#263238;stroke-linecap:round;stroke-linejoin:round"></path><path d="M108.78,438.45l.56,4.46a42.86,42.86,0,0,1,7.25-.74c2,.18,5.21.55,5.21.55v-6.88s-6-.93-8.37-.55S108.6,435.66,108.78,438.45Z" style="fill:#fff;stroke:#263238;stroke-linecap:round;stroke-linejoin:round"></path><path d="M127,436.4l2.05,6.69s2.23,0,3-.74,6.14-1.49,7.25-1.3,2.23,1.86,2.23,1.86l-.92-9.3s-7.07-.37-9.3.38A15.79,15.79,0,0,0,127,436.4Z" style="fill:#fff;stroke:#263238;stroke-linecap:round;stroke-linejoin:round"></path><path d="M115.39,283s1.9-1.67,3.45,0" style="fill:none;stroke:#263238;stroke-linecap:round;stroke-linejoin:round"></path><path d="M119.19,290.52a3.56,3.56,0,0,0,4.4-.47" style="fill:#fff;stroke:#263238;stroke-linecap:round;stroke-linejoin:round"></path><path d="M117.88,293.37s4.28,2,6.66-.59" style="fill:#fff;stroke:#263238;stroke-linecap:round;stroke-linejoin:round"></path><polygon points="102.86 308.49 94.3 335.03 105.17 337.87 102.86 308.49" style="fill:#fff;stroke:#263238;stroke-linecap:round;stroke-linejoin:round"></polygon><path d="M148.93,333l1.29,17.35-1.81,22s-.52,6.21-1.81,7.51-1.82,2.85-2.59,2.85-1.3-4.92-1.3-4.92l.26-2.85-1,3.88c-2.07-1.29-.51-4.92,0-7.51a8.9,8.9,0,0,1,2.59-4.4L141.16,348l-1.56-12.69Z" style="fill:#fff;stroke:#263238;stroke-linecap:round;stroke-linejoin:round"></path><polygon points="141.71 305.89 151.77 334.77 139.86 336.84 141.71 305.89" style="fill:#fff;stroke:#263238;stroke-linecap:round;stroke-linejoin:round"></polygon><path d="M192.37,285.62s1.27-6.11-4.07-8.4S172,283.08,171,287.4s1.78,8.4,1.78,11.71-7.89,4.83-9.16,10.68,4.32,9.17,2.29,11.46-7.13,3.81-5.35,9.67S171,347.71,185.75,347.2s21.38-9.41,22.14-13-3.3-7.88-3.56-10.43,2.55-5.85,2.55-9.92-7.64-7.13-9.42-11.71,2.8-9.16.51-15S192.37,285.62,192.37,285.62Z" style="fill:#263238;stroke:#263238;stroke-linecap:round;stroke-linejoin:round"></path><path d="M204.71,368.07s0,.18,0,.48c.06,1.22.22,4.44.22,5.23,0,1,.85,4.61,1.34,4.37s.85-4.5.85-4.5a34.4,34.4,0,0,1,.85,3.41c0,.48-1.22,3.27-.73,3.64s1.82-1,2.55-3.89-1-9.23-1-9.23" style="fill:#fff;stroke:#263238;stroke-linecap:round;stroke-linejoin:round"></path><polygon points="208.35 364.18 208.84 367.58 204.59 368.55 203.49 364.67 208.35 364.18" style="fill:#40F5FF;stroke:#263238;stroke-linecap:round;stroke-linejoin:round"></polygon><path d="M204.59,315.12l.85,21.62s4.12,26.71,3.15,28.17-4.73,1.34-5.46,1-4.13-15.78-4.37-17.24-1.22-23.8-1.22-25.87S202.52,313.79,204.59,315.12Z" style="fill:#40F5FF;stroke:#263238;stroke-linecap:round;stroke-linejoin:round"></path><path d="M197.52,420c.75-4.83-.74-7.62-.37-11.15.17-1.55.36-4.84.54-8.05h.16s2.77-25.82,2.5-35.54-3-15.18-3-15.18H173.17a90.91,90.91,0,0,0-3.92,17.68c-.77,7.89,2.43,28.82,3,32.27.18,3.44.4,7.16.58,8.83.37,3.53-1.12,6.32-.37,11.15s3.9,20.64,3.9,20.64l-4.46,8.92h12.27s-.75-12.27-.75-13,.38-22.5.38-25.1-.38-7.07-.38-7.62v-9.48l-.07,0,1.48-21.3,1.76,25.36v5.44c0,.55-.38,5-.38,7.62s.38,24.35.38,25.1-.75,13-.75,13h12.27l-4.46-8.92S196.78,424.88,197.52,420Z" style="fill:#fff;stroke:#263238;stroke-linecap:round;stroke-linejoin:round"></path><path d="M197.69,400.84h.16s2.77-25.82,2.5-35.54-3-15.18-3-15.18H173.17a90.91,90.91,0,0,0-3.92,17.68c-.77,7.89,2.43,28.82,3,32.27.18,3.44.4,7.16.58,8.83.37,3.53-1.12,6.32-.37,11.15.47,3.11,1.95,10.74,2.94,15.8,1.84.21,4.68.45,8,.49,0-2.54.37-22.36.37-24.84s-.38-7.07-.38-7.62v-9.48l-.07,0,1.48-21.3,1.76,25.36v5.44c0,.55-.38,5-.38,7.62s.34,22.13.37,24.8a59.26,59.26,0,0,0,8.09-.78c1-5.05,2.42-12.43,2.88-15.47.75-4.83-.74-7.62-.37-11.15C197.32,407.34,197.51,404.05,197.69,400.84Z" style="fill:#263238;stroke:#263238;stroke-linecap:round;stroke-linejoin:round"></path><polygon points="181.72 309.61 169.64 315 173.17 350.11 197.34 350.11 200.69 314.81 187.11 309.79 181.72 309.61" style="fill:#fff;stroke:#263238;stroke-linecap:round;stroke-linejoin:round"></polygon><path d="M179.82,302.25s-.85,12.51-.48,14,3.15,5.23,6.8,4.13,4.13-5.22,3.76-7.4-1.58-10.57-1.58-10.57Z" style="fill:#fff;stroke:#263238;stroke-linecap:round;stroke-linejoin:round"></path><path d="M176.18,292.05s-.12,7,1.94,10.08,4.49,5.34,7,5.22,4.49-3.4,5.34-7.65a71,71,0,0,0,.73-11.54,72.93,72.93,0,0,1-9,2.67C177.76,291.81,176.18,292.05,176.18,292.05Z" style="fill:#fff;stroke:#263238;stroke-linecap:round;stroke-linejoin:round"></path><path d="M182.48,301.62s2.46,1.39,4.18-.56" style="fill:none;stroke:#263238;stroke-linecap:round;stroke-linejoin:round"></path><path d="M181.28,295.21c0,.47-.22.85-.49.85s-.48-.38-.48-.85.22-.85.48-.85S181.28,294.74,181.28,295.21Z" style="fill:#263238"></path><path d="M187.52,295c0,.47-.22.85-.49.85s-.48-.38-.48-.85.21-.85.48-.85S187.52,294.49,187.52,295Z" style="fill:#263238"></path><path d="M179.09,293.51a2.89,2.89,0,0,1,3-.25" style="fill:none;stroke:#263238;stroke-linecap:round;stroke-linejoin:round"></path><path d="M185.65,293s2.31-1.34,3.16.36" style="fill:none;stroke:#263238;stroke-linecap:round;stroke-linejoin:round"></path><path d="M164.89,368.07s0,.18,0,.48c-.06,1.22-.22,4.44-.22,5.23,0,1-.85,4.61-1.33,4.37s-.85-4.5-.85-4.5a34.4,34.4,0,0,0-.85,3.41c0,.48,1.21,3.27.72,3.64s-1.82-1-2.55-3.89,1-9.23,1-9.23" style="fill:#fff;stroke:#263238;stroke-linecap:round;stroke-linejoin:round"></path><polygon points="161.24 364.18 160.76 367.58 165.01 368.55 166.1 364.67 161.24 364.18" style="fill:#40F5FF;stroke:#263238;stroke-linecap:round;stroke-linejoin:round"></polygon><path d="M165,315.12l-.85,21.62S160,363.45,161,364.91s4.74,1.34,5.46,1,4.13-15.78,4.38-17.24,1.21-23.8,1.21-25.87S167.07,313.79,165,315.12Z" style="fill:#40F5FF;stroke:#263238;stroke-linecap:round;stroke-linejoin:round"></path><path d="M168.16,324.35l1.83,4.74-2.18,51,10.56,1.83,1.09-71.75s-14.57,3.65-14.45,5a47.42,47.42,0,0,0,1.33,5.35" style="fill:#40F5FF;stroke:#263238;stroke-linecap:round;stroke-linejoin:round"></path><path d="M176.66,329.09a110.87,110.87,0,0,0,2.71,11.54l.09-30.49s-1.56.39-3.64,1C175.83,313.9,175.93,324.28,176.66,329.09Z" style="fill:#40F5FF;stroke:#263238;stroke-linecap:round;stroke-linejoin:round"></path><path d="M201.07,324.35l-1.82,4.74,3.39,51-13.7,1.83.84-71.75s14.57,3.65,14.45,5a46.93,46.93,0,0,1-1.34,5.35" style="fill:#40F5FF;stroke:#263238;stroke-linecap:round;stroke-linejoin:round"></path><path d="M192.57,329.09a108.38,108.38,0,0,1-2.71,11.54l-.08-30.49s1.55.39,3.64,1C193.41,313.9,193.3,324.28,192.57,329.09Z" style="fill:#40F5FF;stroke:#263238;stroke-linecap:round;stroke-linejoin:round"></path><path d="M179.3,439.38c-2.6-.75-3,1.3-3,1.3l-4.46,8.92h12.27s-.21-3.38-.4-6.7l-1.09-.18A5.18,5.18,0,0,0,179.3,439.38Z" style="fill:#263238;stroke:#263238;stroke-linecap:round;stroke-linejoin:round"></path><path d="M190.65,439.38c2.6-.75,3,1.3,3,1.3l4.46,8.92H185.81s.21-3.38.4-6.7l1.09-.18A5.18,5.18,0,0,1,190.65,439.38Z" style="fill:#263238;stroke:#263238;stroke-linecap:round;stroke-linejoin:round"></path><polyline points="184.91 295.59 185.16 298.59 183.31 298.33" style="fill:none;stroke:#263238;stroke-linecap:round;stroke-linejoin:round"></polyline><polygon points="178.92 310.78 177.68 346.14 182.95 346.6 182.95 312.33 178.92 310.78" style="fill:#fff;stroke:#263238;stroke-linecap:round;stroke-linejoin:round"></polygon><polygon points="178.45 309.54 175.19 339.78 180.16 340.55 182.02 310.63 178.45 309.54" style="fill:#fff;stroke:#263238;stroke-linecap:round;stroke-linejoin:round"></polygon><path d="M177.83,310.47s1.24,1.24,2.95,2.79,5.27,1.24,6.66,0,3.57-2,3.73-2.63-2-4-2-4-3,2.17-5,2.17-4.81-2.48-4.81-2.48Z" style="fill:#fff;stroke:#263238;stroke-linecap:round;stroke-linejoin:round"></path><circle cx="121.73" cy="258.33" r="12.13" transform="translate(-56.37 35.1) rotate(-13.35)" style="fill:#fff;stroke:#263238;stroke-linecap:round;stroke-linejoin:round;stroke-width:2px"></circle><path d="M129.56,258.57c.06.16.19.41.32.41s.38-.31.38-.68-.17-.68-.38-.68-.24.22-.3.35l-1.41,0a6.47,6.47,0,0,0-.67-2.56l1.86-1.14c.13.12.39.28.52.21s.2-.5,0-.86-.53-.55-.73-.44-.12.35-.1.5l-1.93,1a6.38,6.38,0,0,0-1.88-1.85l.66-1.23c.16,0,.44.05.51-.07s-.07-.48-.4-.67-.67-.19-.78,0,.07.32.15.44l-.73,1.19a6.66,6.66,0,0,0-2.55-.69l-.06-2.18c.17-.06.44-.2.44-.35s-.34-.42-.75-.42-.74.19-.74.42.23.27.38.33l-.07,2.2a6.57,6.57,0,0,0-2.54.69L118,251.3c.11-.12.25-.36.19-.48s-.46-.17-.78,0-.5.49-.4.67.31.11.45.09l.67,1.24a6.62,6.62,0,0,0-1.88,1.85l-1.91-1c0-.18,0-.48-.08-.56s-.53.08-.74.44-.21.74,0,.86.36-.07.48-.17l1.87,1.15a6.47,6.47,0,0,0-.67,2.56l-1.39,0c0-.16-.18-.4-.32-.4s-.38.3-.38.67.17.68.38.68.25-.21.3-.35l1.41.05a6.47,6.47,0,0,0,.67,2.55L114,262.31c-.14-.12-.4-.28-.53-.21s-.2.5,0,.86.54.55.74.44.11-.35.09-.5l1.93-1a6.79,6.79,0,0,0,1.88,1.86l-.66,1.22c-.16,0-.44-.05-.51.07s.08.48.4.67.67.19.78,0-.06-.32-.15-.44l.74-1.19a6.57,6.57,0,0,0,2.54.69l.07,2.18c-.17.06-.44.2-.44.35s.33.42.74.42.75-.19.75-.42-.24-.27-.38-.33l.06-2.2a6.66,6.66,0,0,0,2.55-.69l.72,1.18c-.1.12-.25.36-.18.48s.45.18.77,0,.51-.49.4-.67-.31-.11-.45-.09l-.67-1.23a6.53,6.53,0,0,0,1.88-1.86l1.91,1c0,.18,0,.48.09.56s.53-.08.73-.44.21-.74,0-.85-.35.07-.48.16l-1.87-1.15a6.47,6.47,0,0,0,.67-2.56Z" style="fill:none;stroke:#787878;stroke-linecap:round;stroke-linejoin:round"></path><path d="M122.2,253.31a.67.67,0,1,1-.67-.64A.66.66,0,0,1,122.2,253.31Z" style="fill:none;stroke:#787878;stroke-linecap:round;stroke-linejoin:round"></path><path d="M118.16,258.46a.67.67,0,1,1-.67-.64A.66.66,0,0,1,118.16,258.46Z" style="fill:none;stroke:#787878;stroke-linecap:round;stroke-linejoin:round"></path><ellipse cx="120.48" cy="256.81" rx="0.67" ry="0.64" style="fill:none;stroke:#787878;stroke-linecap:round;stroke-linejoin:round"></ellipse><path d="M119.59,262.35a.67.67,0,1,1-.67-.64A.66.66,0,0,1,119.59,262.35Z" style="fill:none;stroke:#787878;stroke-linecap:round;stroke-linejoin:round"></path><path d="M126.88,259.67a.67.67,0,1,1-.66-.63A.65.65,0,0,1,126.88,259.67Z" style="fill:none;stroke:#787878;stroke-linecap:round;stroke-linejoin:round"></path><path d="M122.1,260.54a.67.67,0,0,1-1.34,0,.67.67,0,0,1,1.34,0Z" style="fill:none;stroke:#787878;stroke-linecap:round;stroke-linejoin:round"></path><path d="M124.26,258a.65.65,0,0,1-.67.64.64.64,0,1,1,0-1.27A.65.65,0,0,1,124.26,258Z" style="fill:none;stroke:#787878;stroke-linecap:round;stroke-linejoin:round"></path><path d="M125.88,255a.67.67,0,1,1-.67-.64A.65.65,0,0,1,125.88,255Z" style="fill:none;stroke:#787878;stroke-linecap:round;stroke-linejoin:round"></path><path d="M124.34,262.67a.67.67,0,1,1-.67-.64A.65.65,0,0,1,124.34,262.67Z" style="fill:none;stroke:#787878;stroke-linecap:round;stroke-linejoin:round"></path><path d="M118.86,254.45a.67.67,0,1,1-.67-.64A.66.66,0,0,1,118.86,254.45Z" style="fill:none;stroke:#787878;stroke-linecap:round;stroke-linejoin:round"></path><line x1="110.67" y1="263.33" x2="131.89" y2="252.09" style="fill:none;stroke:#263238;stroke-linecap:round;stroke-linejoin:round;stroke-width:2px"></line><circle cx="184.91" cy="258.33" r="12.13" transform="translate(-128.51 206.42) rotate(-45)" style="fill:#fff;stroke:#263238;stroke-linecap:round;stroke-linejoin:round;stroke-width:2px"></circle><path d="M192.75,258.57c.05.16.18.41.32.41s.38-.31.38-.68-.17-.68-.38-.68-.25.22-.31.35l-1.4,0a6.65,6.65,0,0,0-.67-2.56l1.85-1.14c.14.12.4.28.53.21s.19-.5,0-.86-.54-.55-.74-.44-.12.35-.1.5l-1.93,1a6.46,6.46,0,0,0-1.87-1.85l.65-1.23c.17,0,.44.05.51-.07s-.07-.48-.4-.67-.67-.19-.77,0,.06.32.15.44l-.74,1.19a6.57,6.57,0,0,0-2.55-.69l-.06-2.18c.17-.06.44-.2.44-.35s-.33-.42-.75-.42-.74.19-.74.42.24.27.38.33l-.06,2.2a6.57,6.57,0,0,0-2.55.69l-.73-1.18c.11-.12.26-.36.19-.48s-.45-.17-.78,0-.5.49-.4.67.32.11.46.09l.66,1.24a6.46,6.46,0,0,0-1.87,1.85l-1.92-1c0-.18.05-.48-.08-.56s-.53.08-.74.44-.21.74,0,.86.36-.07.48-.17l1.87,1.15a6.65,6.65,0,0,0-.67,2.56L177,258c-.05-.16-.18-.4-.32-.4s-.38.3-.38.67.17.68.38.68.25-.21.31-.35l1.4.05a6.64,6.64,0,0,0,.67,2.55l-1.85,1.14c-.14-.12-.4-.28-.53-.21s-.19.5,0,.86.54.55.74.44.12-.35.1-.5l1.93-1a6.62,6.62,0,0,0,1.87,1.86l-.65,1.22c-.17,0-.44-.05-.51.07s.07.48.39.67.68.19.78,0-.06-.32-.15-.44l.74-1.19a6.57,6.57,0,0,0,2.55.69l.06,2.18c-.17.06-.44.2-.44.35s.33.42.75.42.74-.19.74-.42-.24-.27-.38-.33l.06-2.2a6.57,6.57,0,0,0,2.55-.69l.73,1.18c-.11.12-.26.36-.19.48s.45.18.78,0,.5-.49.4-.67-.32-.11-.46-.09l-.66-1.23a6.62,6.62,0,0,0,1.87-1.86l1.92,1c0,.18-.05.48.08.56s.53-.08.74-.44.21-.74,0-.85-.36.07-.48.16l-1.87-1.15a6.65,6.65,0,0,0,.67-2.56Z" style="fill:none;stroke:#787878;stroke-linecap:round;stroke-linejoin:round"></path><path d="M185.38,253.31a.67.67,0,1,1-.67-.64A.66.66,0,0,1,185.38,253.31Z" style="fill:none;stroke:#787878;stroke-linecap:round;stroke-linejoin:round"></path><path d="M181.34,258.46a.67.67,0,1,1-.67-.64A.66.66,0,0,1,181.34,258.46Z" style="fill:none;stroke:#787878;stroke-linecap:round;stroke-linejoin:round"></path><ellipse cx="183.66" cy="256.81" rx="0.67" ry="0.64" style="fill:none;stroke:#787878;stroke-linecap:round;stroke-linejoin:round"></ellipse><path d="M182.77,262.35a.67.67,0,1,1-.67-.64A.66.66,0,0,1,182.77,262.35Z" style="fill:none;stroke:#787878;stroke-linecap:round;stroke-linejoin:round"></path><path d="M190.07,259.67a.67.67,0,0,1-1.34,0,.67.67,0,0,1,1.34,0Z" style="fill:none;stroke:#787878;stroke-linecap:round;stroke-linejoin:round"></path><path d="M185.28,260.54a.67.67,0,0,1-1.34,0,.67.67,0,0,1,1.34,0Z" style="fill:none;stroke:#787878;stroke-linecap:round;stroke-linejoin:round"></path><path d="M187.45,258a.67.67,0,1,1-.67-.63A.65.65,0,0,1,187.45,258Z" style="fill:none;stroke:#787878;stroke-linecap:round;stroke-linejoin:round"></path><path d="M189.06,255a.67.67,0,1,1-.67-.64A.65.65,0,0,1,189.06,255Z" style="fill:none;stroke:#787878;stroke-linecap:round;stroke-linejoin:round"></path><path d="M187.52,262.67a.67.67,0,1,1-.67-.64A.65.65,0,0,1,187.52,262.67Z" style="fill:none;stroke:#787878;stroke-linecap:round;stroke-linejoin:round"></path><path d="M182,254.45a.67.67,0,1,1-.67-.64A.66.66,0,0,1,182,254.45Z" style="fill:none;stroke:#787878;stroke-linecap:round;stroke-linejoin:round"></path><line x1="173.86" y1="263.33" x2="195.08" y2="252.09" style="fill:none;stroke:#263238;stroke-linecap:round;stroke-linejoin:round;stroke-width:2px"></line><circle cx="59.14" cy="258.33" r="12.13" transform="translate(-57.77 20.5) rotate(-13.28)" style="fill:#fff;stroke:#263238;stroke-linecap:round;stroke-linejoin:round;stroke-width:2px"></circle><path d="M67,258.57c.06.16.19.41.32.41s.38-.31.38-.68-.17-.68-.38-.68-.25.22-.3.35l-1.41,0a6.47,6.47,0,0,0-.67-2.56l1.86-1.14c.13.12.39.28.52.21s.2-.5,0-.86-.53-.55-.73-.44-.12.35-.1.5l-1.93,1a6.38,6.38,0,0,0-1.88-1.85l.66-1.23c.16,0,.44.05.51-.07s-.08-.48-.4-.67-.67-.19-.78,0,.07.32.15.44L62,252.48a6.57,6.57,0,0,0-2.54-.69l-.07-2.18c.18-.06.45-.2.45-.35s-.34-.42-.75-.42-.75.19-.75.42.24.27.39.33l-.07,2.2a6.57,6.57,0,0,0-2.54.69l-.73-1.18c.1-.12.25-.36.18-.48s-.45-.17-.77,0-.51.49-.4.67.31.11.45.09l.67,1.24a6.38,6.38,0,0,0-1.88,1.85l-1.91-1c0-.18,0-.48-.09-.56s-.53.08-.73.44-.21.74,0,.86.35-.07.48-.17l1.87,1.15a6.47,6.47,0,0,0-.67,2.56l-1.39,0c-.06-.16-.19-.4-.32-.4s-.38.3-.38.67.17.68.38.68.25-.21.3-.35l1.41.05a6.47,6.47,0,0,0,.67,2.55l-1.86,1.14c-.13-.12-.39-.28-.52-.21s-.2.5,0,.86.53.55.73.44.12-.35.1-.5l1.93-1a6.53,6.53,0,0,0,1.88,1.86l-.66,1.22c-.16,0-.44-.05-.51.07s.08.48.4.67.67.19.78,0-.07-.32-.15-.44l.74-1.19a6.57,6.57,0,0,0,2.54.69l.07,2.18c-.18.06-.45.2-.45.35s.34.42.75.42.75-.19.75-.42-.24-.27-.39-.33l.07-2.2a6.57,6.57,0,0,0,2.54-.69l.73,1.18c-.11.12-.25.36-.18.48s.45.18.77,0,.51-.49.4-.67-.31-.11-.45-.09l-.67-1.23a6.53,6.53,0,0,0,1.88-1.86l1.91,1c0,.18,0,.48.09.56s.52-.08.73-.44.21-.74,0-.85-.35.07-.48.16l-1.87-1.15a6.47,6.47,0,0,0,.67-2.56Z" style="fill:none;stroke:#787878;stroke-linecap:round;stroke-linejoin:round"></path><path d="M59.61,253.31a.67.67,0,1,1-.67-.64A.66.66,0,0,1,59.61,253.31Z" style="fill:none;stroke:#787878;stroke-linecap:round;stroke-linejoin:round"></path><path d="M55.56,258.46a.67.67,0,1,1-.66-.64A.66.66,0,0,1,55.56,258.46Z" style="fill:none;stroke:#787878;stroke-linecap:round;stroke-linejoin:round"></path><path d="M58.56,256.81a.67.67,0,1,1-.67-.64A.65.65,0,0,1,58.56,256.81Z" style="fill:none;stroke:#787878;stroke-linecap:round;stroke-linejoin:round"></path><path d="M57,262.35a.67.67,0,1,1-.67-.64A.66.66,0,0,1,57,262.35Z" style="fill:none;stroke:#787878;stroke-linecap:round;stroke-linejoin:round"></path><path d="M64.29,259.67a.67.67,0,0,1-1.34,0,.67.67,0,0,1,1.34,0Z" style="fill:none;stroke:#787878;stroke-linecap:round;stroke-linejoin:round"></path><path d="M59.51,260.54a.67.67,0,0,1-1.34,0,.67.67,0,0,1,1.34,0Z" style="fill:none;stroke:#787878;stroke-linecap:round;stroke-linejoin:round"></path><path d="M61.67,258a.67.67,0,1,1-.67-.63A.65.65,0,0,1,61.67,258Z" style="fill:none;stroke:#787878;stroke-linecap:round;stroke-linejoin:round"></path><path d="M63.29,255a.67.67,0,1,1-.67-.64A.65.65,0,0,1,63.29,255Z" style="fill:none;stroke:#787878;stroke-linecap:round;stroke-linejoin:round"></path><ellipse cx="61.07" cy="262.67" rx="0.67" ry="0.64" style="fill:none;stroke:#787878;stroke-linecap:round;stroke-linejoin:round"></ellipse><path d="M56.26,254.45a.65.65,0,0,1-.66.64.64.64,0,1,1,0-1.28A.65.65,0,0,1,56.26,254.45Z" style="fill:none;stroke:#787878;stroke-linecap:round;stroke-linejoin:round"></path></g><g id="freepik--characters-2--inject-32"><path d="M392.21,195l-2.3,4.21s-4,2.29-4.39,3.25a7.21,7.21,0,0,0-.39,2.29h19.12l-1.14-7.65Z" style="fill:#fff;stroke:#263238;stroke-linecap:round;stroke-linejoin:round"></path><path d="M404,203.26H385.29a8.62,8.62,0,0,0-.16,1.53h19.12Z" style="fill:#fff;stroke:#263238;stroke-linecap:round;stroke-linejoin:round"></path><path d="M422.61,195l2.29,4.21s4,2.29,4.4,3.25a7.39,7.39,0,0,1,.38,2.29H410.56l1.15-7.65Z" style="fill:#fff;stroke:#263238;stroke-linecap:round;stroke-linejoin:round"></path><path d="M410.79,203.26h18.73a8.62,8.62,0,0,1,.16,1.53H410.56Z" style="fill:#fff;stroke:#263238;stroke-linecap:round;stroke-linejoin:round"></path><path d="M376.69,91.84s-.59,4.32,0,6.55,7.15,23.67,7.15,23.67l3.27-9.53L385.77,93Z" style="fill:#fff;stroke:#263238;stroke-linecap:round;stroke-linejoin:round"></path><path d="M386.28,105.94s-3.44,18-3.06,22.37,2.87,16.25,2.87,16.25l4.4,29.45.95,21.41,11.28-.38s.77-24.85.39-27-1-44.74-1-44.74l3.44-.19L408.27,169l1.91,24.85,6.5-1.72,5.93.19s-.19-23.32-.19-25.81-.58-10.13-.58-11.47-.19-40.92-.19-40.92l-.95-7.64Z" style="fill:#263238;stroke:#263238;stroke-linecap:round;stroke-linejoin:round"></path><path d="M394.69,54.89l-12.23,4.78A47.47,47.47,0,0,0,382.84,71c1,5.74,2.68,28.11,2.68,28.11s-1.15,7.84.38,8.79,30.21.58,32.5.39,3.44-3.25,3.44-5.36-1.72-8.41-1.72-8.41L422.42,57,407.5,53.75Z" style="fill:#fff;stroke:#263238;stroke-linecap:round;stroke-linejoin:round"></path><polygon points="395.84 52.79 392.97 55.08 395.65 69.42 402.15 61.39 410.37 69.23 410.37 54.13 405.97 52.02 395.84 52.79" style="fill:#fff;stroke:#263238;stroke-linecap:round;stroke-linejoin:round"></polygon><polygon points="394.69 48.2 395.46 55.47 402.34 65.6 407.5 53.74 406.74 47.05 394.69 48.2" style="fill:#fff;stroke:#263238;stroke-linecap:round;stroke-linejoin:round"></polygon><path d="M394.31,24.09s-4.57.89-4.72,5.18,1.2,11.22,2,14.26,3.25,9.12,6.67,9.3,7.06,0,8.75-4.18,1-11.68-.14-15-1.86-6.93-3.84-9.06S396.84,23.29,394.31,24.09Z" style="fill:#fff;stroke:#263238;stroke-linecap:round;stroke-linejoin:round"></path><path d="M390.47,37.26s-2-1.79-2.21.27,3.35,6,3.35,6Z" style="fill:none;stroke:#263238;stroke-linecap:round;stroke-linejoin:round"></path><path d="M407.2,34.24s.31-.78.95-.53.9,1.41.9,3.15a10.84,10.84,0,0,1-.8,3.64Z" style="fill:none;stroke:#263238;stroke-linecap:round;stroke-linejoin:round"></path><path d="M396.81,37.05c0,.57-.26,1-.64,1.06s-.7-.43-.73-1,.26-1,.64-1.06S396.79,36.48,396.81,37.05Z" style="fill:#263238"></path><path d="M403.76,35.87c0,.57-.26,1.05-.64,1.06s-.71-.43-.74-1,.26-1,.64-1.06S403.73,35.3,403.76,35.87Z" style="fill:#263238"></path><path d="M393,35.54a4.12,4.12,0,0,1,3.48-1.42" style="fill:none;stroke:#263238;stroke-linecap:round;stroke-linejoin:round"></path><path d="M400.38,33.38a5,5,0,0,1,4.24-.57" style="fill:none;stroke:#263238;stroke-linecap:round;stroke-linejoin:round"></path><path d="M406.89,33.61c-1.11-3.17-1.79-6.49-3.51-8.65,0,.32.08.66.1,1.06.11,2.51-.16,4.13.79,4.77s1.86.61,1.89,1.29,1,6.16,1.25,7.85c-.16,1.08-.47,4.26-.47,4.26s-2.54-2.86-4.26-3-2.79-.79-4.56.55a3.5,3.5,0,0,0-1.77,1.34,11.46,11.46,0,0,0-.83,1.87s-3.42-2-3.92-3.14a25.63,25.63,0,0,1-.94-5.46c0-.69,1.28-2,.73-4.16a16.43,16.43,0,0,0-1.73-3.62c0,.23-.06.46-.07.71-.14,4.28,1.2,11.22,2,14.26s3.25,9.12,6.67,9.3,7.06,0,8.75-4.18S408.07,37,406.89,33.61Z" style="fill:#263238;stroke:#263238;stroke-linecap:round;stroke-linejoin:round"></path><path d="M401.89,45.68a1.07,1.07,0,0,1-2.13,0,1.07,1.07,0,0,1,2.13,0Z" style="fill:#7d7d7d"></path><path d="M392.94,24.56c2,1.21,3.38,2,4.57,1.16.8-.57,1.63-1.72,2.49-2.47a15.71,15.71,0,0,0-5.69.84A7,7,0,0,0,392.94,24.56Z" style="fill:#263238;stroke:#263238;stroke-linecap:round;stroke-linejoin:round"></path><path d="M397.27,40.62a2.52,2.52,0,0,0,2.15,1.85c1.72.15,2-2.84,1.91-3.29" style="fill:#fff;stroke:#263238;stroke-linecap:round;stroke-linejoin:round"></path><polygon points="382.46 59.67 375.96 91.22 384.94 92.94 382.46 59.67" style="fill:#fff;stroke:#263238;stroke-linecap:round;stroke-linejoin:round"></polygon><polygon points="375.96 87.4 375 92.75 385.32 94.85 384.56 90.07 375.96 87.4" style="fill:#fff;stroke:#263238;stroke-linecap:round;stroke-linejoin:round"></polygon><path d="M390.3,193.32l.57,4.59a44.3,44.3,0,0,1,7.46-.77c2.1.2,5.35.58,5.35.58v-7.08s-6.12-.95-8.6-.57S390.1,190.45,390.3,193.32Z" style="fill:#fff;stroke:#263238;stroke-linecap:round;stroke-linejoin:round"></path><path d="M409,191.22l2.11,6.88s2.29,0,3.06-.76,6.31-1.53,7.45-1.34,2.3,1.91,2.3,1.91l-1-9.56s-7.26-.38-9.56.38A16.42,16.42,0,0,0,409,191.22Z" style="fill:#fff;stroke:#263238;stroke-linecap:round;stroke-linejoin:round"></path><path d="M422.42,57l18.83,8.45s.72,3-.6,5.14-6.34,3.11-9.33,2.51-9.57-3.47-9.57-3.47Z" style="fill:#fff;stroke:#263238;stroke-linecap:round;stroke-linejoin:round"></path><path d="M432.23,61.17s-3.58,3.72-3.73,5.21,3.43,7.29,5.81,7.89,7.44-1.19,8.78-2.83,1.34-7.44-1.48-9.38S433.42,60.13,432.23,61.17Z" style="fill:#fff;stroke:#263238;stroke-linecap:round;stroke-linejoin:round"></path><path d="M440,61.21c-.67-.83-13.91-12.48-13.91-12.48s1.08-2.64,1.42-3.59-.23-1.65.39-4.16-.12-2.55-1.26-1.85S425,42.8,425,42.8l-2.76-3.62-2.82-4.55a1.05,1.05,0,0,0-1.84,1l2.21,5-.21.2L415.21,36a1,1,0,0,0-1.47-.05,1,1,0,0,0-.12,1.24l4,5.37-.17.17c-.74-.55-3-2.3-3.56-2.71s-1.43-1.28-1.95-.43.27,1.15.74,1.59c.74.69,1.92,2,2.65,2.73-.73-.34-3.52-1.52-3.82-1.24a.74.74,0,0,0,.06,1,1.76,1.76,0,0,0,.54.29,13.2,13.2,0,0,1,4.47,3.2c1,1,2.22,1.91,3.28,2.9.7.66,1.65,1.49,1.65,1.49s10.83,18.35,14.33,19.85,6.5-3.34,6.5-5.67S440.67,62,440,61.21Z" style="fill:#fff;stroke:#263238;stroke-linecap:round;stroke-linejoin:round"></path><path d="M318.82,148.66s-.08.23-.22.67c-.61,2-.29,13.1.83,20.14,1.37,8.54,3.32,25.63,3.32,25.63l-3.25,6.32s-2.39,2.39-1.53,3.07,10.58,0,10.58,0a29.84,29.84,0,0,0,.51-3.76c.17-2.22.17-7.68.17-9.22s1-24.24,1.2-28,.17-14.34.17-14.34Z" style="fill:#fff;stroke:#263238;stroke-linecap:round;stroke-linejoin:round"></path><path d="M329.06,200.73c.08-1,.13-2.78.15-4.5a10.67,10.67,0,0,0-3-3c-2.39-1.37-3.41,1.88-3.41,1.88l-3.25,6.32s-2.39,2.39-1.53,3.07,10.58,0,10.58,0A29.84,29.84,0,0,0,329.06,200.73Z" style="fill:#fff;stroke:#263238;stroke-linecap:round;stroke-linejoin:round"></path><path d="M351.35,148.66s.09.23.22.67c.61,2,.17,12-1,19.08-1.37,8.54-3.18,26.69-3.18,26.69l3.24,6.32s2.39,2.39,1.54,3.07-10.59,0-10.59,0a29.84,29.84,0,0,1-.51-3.76c-.17-2.22-.17-7.68-.17-9.22s-1-24.24-1.2-28-.17-14.34-.17-14.34Z" style="fill:#fff;stroke:#263238;stroke-linecap:round;stroke-linejoin:round"></path><path d="M341.11,200.73c-.08-1-.12-2.78-.15-4.5a10.8,10.8,0,0,1,3.05-3c2.39-1.37,3.42,1.88,3.42,1.88l3.24,6.32s2.39,2.39,1.54,3.07-10.59,0-10.59,0A29.84,29.84,0,0,1,341.11,200.73Z" style="fill:#fff;stroke:#263238;stroke-linecap:round;stroke-linejoin:round"></path><path d="M325.16,97.66A73,73,0,0,0,317.79,114c-3.41,10.41-1.7,35.51-1.7,35.51a24.43,24.43,0,0,0,8.36,2.39,13.56,13.56,0,0,0,7.52-1.54l2.22-28.17,1.19-.34,1.88,28.69s2.39.34,7.68,1S355,148.83,355,148.83s-2-33.13-4.1-38.93S346,98.05,346,98.05Z" style="fill:#40F5FF;stroke:#263238;stroke-linecap:round;stroke-linejoin:round"></path><path d="M337,146.82l.24,3.72s2.39.34,7.68,1S355,148.83,355,148.83s-.1-1.57-.27-4.09A25.09,25.09,0,0,1,337,146.82Z" style="fill:#40F5FF;stroke:#263238;stroke-linecap:round;stroke-linejoin:round"></path><path d="M332.24,146.84a23.54,23.54,0,0,1-16.32-.36c.09,1.89.17,3,.17,3a24.43,24.43,0,0,0,8.36,2.39,13.56,13.56,0,0,0,7.52-1.54Z" style="fill:#40F5FF;stroke:#263238;stroke-linecap:round;stroke-linejoin:round"></path><path d="M333.67,61.83S322.7,63.16,321,66s4.15,31.73,4.15,31.73l20.82.35s6.65-27.37,7.71-30.95-11.95-4.93-11.95-4.93Z" style="fill:#fff;stroke:#263238;stroke-linecap:round;stroke-linejoin:round"></path><path d="M320.83,65.36l-9.65,25.85s.16,5.11,4.67,4.58l6.89-12.22Z" style="fill:#fff;stroke:#263238;stroke-linecap:round;stroke-linejoin:round"></path><polygon points="315.12 79.43 321.45 85.86 322.74 83.57 320.83 65.36 315.12 79.43" style="fill:#fff;stroke:#263238;stroke-linecap:round;stroke-linejoin:round"></polygon><path d="M354,66.43s5.76,26.35,5.7,29.68-4.21,2.52-5.82,1.77-4.41-14-4.41-14Z" style="fill:#fff;stroke:#263238;stroke-linecap:round;stroke-linejoin:round"></path><path d="M354,66.43l-4.53,17.46s.19.9.5,2.24l.05,0,7-5.35C355.51,73.47,354,66.43,354,66.43Z" style="fill:#fff;stroke:#263238;stroke-linecap:round;stroke-linejoin:round"></path><path d="M354.14,95.41s-2.22,7.62-2.22,11.27-.48,14.76-.48,14.76-2.22,1.59-2.22,3.18-.48,2.7-.48,3.49-.31,1.75.48,1.75,1.43-3.18,1.43-3.18-.8,5.08-.8,6,1.27.8,1.91.32a16.24,16.24,0,0,0,3.33-6c.32-1.9,0-5.87.48-6.51a93.05,93.05,0,0,0,4.29-15.4c.47-4-.48-10.47-.48-10.47" style="fill:#fff;stroke:#263238;stroke-linecap:round;stroke-linejoin:round"></path><path d="M314.52,91.11s-8.41-11-9.87-13.46-1.91-4.66-3.32-5.6-5.54-1.2-6.33-1.18-1.37,6.54.43,7.46A19.22,19.22,0,0,0,301,79.54s5.59,15.16,7.85,18.24,4.59,2,5.51.22,3.18-5.22,3.18-5.22" style="fill:#fff;stroke:#263238;stroke-linecap:round;stroke-linejoin:round"></path><path d="M303,74.16s-1.9-4.07-2.34-5.63-.14-4.32-1.11-4.09-2.09,2.42-1.66,3.59a20.92,20.92,0,0,1,.66,2.14s-.44,4.74,2,5.84" style="fill:#fff;stroke:#263238;stroke-linecap:round;stroke-linejoin:round"></path><path d="M293,69.28s-.87,1.66.48,2,3.39.51,3.67-.42,0-1.43-.66-1.62A6.63,6.63,0,0,0,293,69.28Z" style="fill:#fff;stroke:#263238;stroke-linecap:round;stroke-linejoin:round"></path><path d="M293.24,72.14s-.87,1.67.47,2,3.4.51,3.67-.42,0-1.43-.66-1.62A6.59,6.59,0,0,0,293.24,72.14Z" style="fill:#fff;stroke:#263238;stroke-linecap:round;stroke-linejoin:round"></path><path d="M293.52,74.59s-.87,1.67.47,2,3.4.51,3.68-.42-.05-1.43-.67-1.62A6.59,6.59,0,0,0,293.52,74.59Z" style="fill:#fff;stroke:#263238;stroke-linecap:round;stroke-linejoin:round"></path><path d="M294.36,76.8s-.73,1.39.39,1.7,2.85.42,3.08-.35,0-1.21-.56-1.36A5.4,5.4,0,0,0,294.36,76.8Z" style="fill:#fff;stroke:#263238;stroke-linecap:round;stroke-linejoin:round"></path><path d="M339.3,28.15s-.3,0-.81-.09c-2.16-.17-8.13-.14-11.19,4.93-3.77,6.27-1.94,24.26-1.94,24.26l25.24-.32s.41-12.87-1.05-20.24S339.3,28.15,339.3,28.15Z" style="fill:#263238;stroke:#263238;stroke-linecap:round;stroke-linejoin:round"></path><path d="M333.23,58.51s-2.69.83-3.13,2.45,1,11.55,1,11.55l6.28-4.71,6.42,5.53s1.78-8.65,1.12-11.55S339.88,57.9,339.1,58Z" style="fill:#fff;stroke:#263238;stroke-linecap:round;stroke-linejoin:round"></path><polygon points="333.03 52.01 333.35 62.05 337.36 71.36 342.29 60.45 342.94 52.49 333.03 52.01" style="fill:#fff;stroke:#263238;stroke-linecap:round;stroke-linejoin:round"></polygon><path d="M329.15,43.19s1.36,12.73,7.66,13.46,8.83-9.08,8.79-11.67a27.46,27.46,0,0,0-.24-3.74l-8.38-6Z" style="fill:#fff;stroke:#263238;stroke-linecap:round;stroke-linejoin:round"></path><path d="M329.41,45.94s-2.26-.42-1.87,1.91,3,2.48,3,2.48Z" style="fill:#fff;stroke:#263238;stroke-linecap:round;stroke-linejoin:round"></path><path d="M345.6,45s1.77-1.29,2.17,1-2.8,3.47-2.8,3.47Z" style="fill:#fff;stroke:#263238;stroke-linecap:round;stroke-linejoin:round"></path><path d="M334.49,43.89c0,.54-.25,1-.59,1s-.63-.41-.65-1,.25-1,.59-1S334.47,43.36,334.49,43.89Z" style="fill:#263238"></path><path d="M341.11,43.68c0,.54-.25,1-.59,1s-.63-.42-.65-1,.25-1,.59-1S341.09,43.15,341.11,43.68Z" style="fill:#263238"></path><path d="M335.67,47.84a2.36,2.36,0,0,0,3,.26" style="fill:none;stroke:#263238;stroke-linecap:round;stroke-linejoin:round"></path><path d="M332.31,42.11a3.11,3.11,0,0,1,2.81-.45" style="fill:none;stroke:#263238;stroke-linecap:round;stroke-linejoin:round"></path><path d="M339,41.54s2.46-.25,3.56.77" style="fill:none;stroke:#263238;stroke-linecap:round;stroke-linejoin:round"></path><path d="M335.06,50.34a2.65,2.65,0,0,0,4.07,0" style="fill:none;stroke:#263238;stroke-linecap:round;stroke-linejoin:round"></path></g><g id="freepik--characters-1--inject-32"><path d="M88.37,61.12l-5.54.08-5.45-.08s-14.25,4.54-13.79,6.36,5.15,43.34,5.15,43.34H97.13s4.63-40.46,5.09-42.28S88.37,61.12,88.37,61.12Z" style="fill:#fff;stroke:#263238;stroke-linecap:round;stroke-linejoin:round"></path><path d="M76.77,51.27l.3,11.66a7.79,7.79,0,0,0,6.52,5c5,.46,5.3-6.06,5.3-6.06L89,51Z" style="fill:#b5b5b5;stroke:#263238;stroke-linecap:round;stroke-linejoin:round"></path><path d="M73.17,43.67s-2.11-.84-1.48,2.75,3,3.17,3,3.17,1.26,2.54,2.74,5.07a8.36,8.36,0,0,0,6.77,4c2.32,0,4.64-3.38,5.7-6.13a12.77,12.77,0,0,0,1.06-3.8,3.17,3.17,0,0,0,2.37-3.39c0-3-1.82-1.52-1.82-1.52a74.54,74.54,0,0,0-1.69-10.35c-1.06-3.59-6.47-5-11.33-3.76S73.17,34,72.53,36.49,73.17,43.67,73.17,43.67Z" style="fill:#b5b5b5;stroke:#263238;stroke-linecap:round;stroke-linejoin:round"></path><path d="M89.35,36l.91,8.79,1.81-1.06,0-.16a1.83,1.83,0,0,0-.64.31,74.54,74.54,0,0,0-1.69-10.35c-1.06-3.59-6.47-5-11.33-3.76S73.17,34,72.53,36.49s.64,7.18.64,7.18l1.63.93V36a29,29,0,0,0,6.21.76A74.55,74.55,0,0,0,89.35,36Z" style="fill:#263238;stroke:#263238;stroke-linecap:round;stroke-linejoin:round"></path><path d="M80.71,44.9c0,.63-.34,1.14-.76,1.14s-.76-.51-.76-1.14.34-1.13.76-1.13S80.71,44.27,80.71,44.9Z" style="fill:#263238"></path><path d="M86.62,44.6c0,.63-.34,1.13-.76,1.13s-.76-.5-.76-1.13.34-1.14.76-1.14S86.62,44,86.62,44.6Z" style="fill:#263238"></path><path d="M84.65,50.05a3.6,3.6,0,0,1-2.27.46" style="fill:none;stroke:#263238;stroke-linecap:round;stroke-linejoin:round"></path><path d="M80.25,52s2.73,2.28,7-.45" style="fill:none;stroke:#263238;stroke-linecap:round;stroke-linejoin:round"></path><path d="M78,42.63a3.78,3.78,0,0,1,3.18-.15" style="fill:none;stroke:#263238;stroke-linecap:round;stroke-linejoin:round"></path><path d="M84.65,42.17s2.42-.91,3.18.31" style="fill:none;stroke:#263238;stroke-linecap:round;stroke-linejoin:round"></path><path d="M63.59,67.48s-2.58,1.67-4.7,9.39S55,99,54.8,102.18s2.57,22.12,3,23.49.6,5.45,1.36,5.91,5,.75,5,.75l.61-2.57s.3,2,.76,0,.75-2.88-.16-3.94-4.54-4.09-4.54-4.09l1.67-22.88L66,87.63Z" style="fill:#b5b5b5;stroke:#263238;stroke-linecap:round;stroke-linejoin:round"></path><path d="M58.89,76.87c-.52,1.88-1,4.16-1.47,6.56l7.7,7.08L66,87.63,63.59,67.48S61,69.15,58.89,76.87Z" style="fill:#fff;stroke:#263238;stroke-linecap:round;stroke-linejoin:round"></path><path d="M102.22,68.54s2.58,1.67,4.7,9.4,3.94,22.12,4.09,25.3-2.57,22.13-3,23.49-.61,5.46-1.36,5.91-5,.76-5,.76l-.61-2.58s-.3,2-.76,0-.76-2.88.15-3.94,4.55-4.09,4.55-4.09l-1.67-22.88L99.8,88.7Z" style="fill:#b5b5b5;stroke:#263238;stroke-linecap:round;stroke-linejoin:round"></path><path d="M106.92,77.94c.52,1.88,1,4.15,1.47,6.56l-7.7,7.08L99.8,88.7l2.42-20.16S104.8,70.21,106.92,77.94Z" style="fill:#fff;stroke:#263238;stroke-linecap:round;stroke-linejoin:round"></path><path d="M68.74,110.82l1,77.46-1.57,2.36.39,3.93,11.21,2.16s0-5.11.78-6.48-.39-11.41-.39-13,3.54-49.73,3.54-49.73l6.68,50.52v12.58l1.42,6.29,11.2-2.16s-.82-3.93-.43-5.51-2-9.43-2-9.43l-1-43.64-2.5-25.37Z" style="fill:#263238;stroke:#263238;stroke-linecap:round;stroke-linejoin:round"></path><path d="M68.57,194.77l-2.36,4.32s-4.13,2.36-4.52,3.34a7.68,7.68,0,0,0-.39,2.36H81l-1.18-7.86Z" style="fill:#fff;stroke:#263238;stroke-linecap:round;stroke-linejoin:round"></path><path d="M80.72,203.22H61.46a9.07,9.07,0,0,0-.16,1.57H81Z" style="fill:#fff;stroke:#263238;stroke-linecap:round;stroke-linejoin:round"></path><path d="M103,194.77l2.36,4.32s4.13,2.36,4.52,3.34a7.5,7.5,0,0,1,.4,2.36H90.63l1.18-7.86Z" style="fill:#fff;stroke:#263238;stroke-linecap:round;stroke-linejoin:round"></path><path d="M90.86,203.22h19.26a8.55,8.55,0,0,1,.17,1.57H90.63Z" style="fill:#fff;stroke:#263238;stroke-linecap:round;stroke-linejoin:round"></path><path d="M175,60.67S185.2,89.8,185.2,91.16s.24,2.86-1.74,4.09-5.45,1-6.57-1.36a39.29,39.29,0,0,1-1.61-3.84Z" style="fill:#fff;stroke:#263238;stroke-linecap:round;stroke-linejoin:round"></path><path d="M141.74,194.77l-2.36,4.32s-4.13,2.36-4.52,3.34a7.68,7.68,0,0,0-.39,2.36h19.65l-1.18-7.86Z" style="fill:#fff;stroke:#263238;stroke-linecap:round;stroke-linejoin:round"></path><path d="M153.89,203.22H134.63a9.07,9.07,0,0,0-.16,1.57h19.65Z" style="fill:#fff;stroke:#263238;stroke-linecap:round;stroke-linejoin:round"></path><path d="M141.31,140.31l1.37,46.79-2.55,4.32a25.58,25.58,0,0,0,0,3.94,9.29,9.29,0,0,1,.19,2l12.19,1.18a48.48,48.48,0,0,0,1.38-6.29c.19-2.16-1.18-5.7-1.18-5.7l2.36-46.39Z" style="fill:#40F5FF;stroke:#263238;stroke-linecap:round;stroke-linejoin:round"></path><path d="M171.93,194.77l2.36,4.32s4.13,2.36,4.52,3.34a7.5,7.5,0,0,1,.4,2.36H159.55l1.18-7.86Z" style="fill:#fff;stroke:#263238;stroke-linecap:round;stroke-linejoin:round"></path><path d="M159.79,203.22H179a8.55,8.55,0,0,1,.17,1.57H159.55Z" style="fill:#fff;stroke:#263238;stroke-linecap:round;stroke-linejoin:round"></path><path d="M172.37,140.31,171,187.1l2.56,4.32a26.93,26.93,0,0,1,0,3.94,8.84,8.84,0,0,0-.2,2l-12.19,1.18a47.3,47.3,0,0,1-1.37-6.29c-.2-2.16,1.18-5.7,1.18-5.7l-2.36-46.39Z" style="fill:#40F5FF;stroke:#263238;stroke-linecap:round;stroke-linejoin:round"></path><polygon points="146.4 58.69 132.14 64.88 136.73 110.01 136.23 142.24 176.02 142.24 175.53 109.51 175.03 60.67 161.15 59.06 146.4 58.69" style="fill:#fff;stroke:#263238;stroke-linecap:round;stroke-linejoin:round"></polygon><line x1="155.2" y1="101" x2="156.51" y2="142.15" style="fill:none;stroke:#263238;stroke-linecap:round;stroke-linejoin:round"></line><polyline points="139.73 111.35 151.66 111.35 151.66 112.79 140.26 112.79" style="fill:none;stroke:#263238;stroke-linecap:round;stroke-linejoin:round"></polyline><polyline points="172.89 111.35 160.97 111.35 160.97 112.79 172.37 112.79" style="fill:none;stroke:#263238;stroke-linecap:round;stroke-linejoin:round"></polyline><polygon points="148.26 57.32 146.4 58.69 153.22 74.68 161.64 59.31 159.54 56.95 148.26 57.32" style="fill:#fff;stroke:#263238;stroke-linecap:round;stroke-linejoin:round"></polygon><polyline points="150.49 67.49 153.34 63.77 156.93 67.61" style="fill:none;stroke:#263238;stroke-linecap:round;stroke-linejoin:round"></polyline><path d="M148,53.85l.12,4.22,5.21,5.7,6.2-6.82-.25-10.16s-3.47,4.83-5.7,5.82A20.45,20.45,0,0,1,148,53.85Z" style="fill:#fff;stroke:#263238;stroke-linecap:round;stroke-linejoin:round"></path><path d="M144.41,37.24A4.14,4.14,0,0,1,144,37c-.84-.5-2.59-1.77-2.3-3.48.37-2.23,5.57-6.07,11.4-5.58s8.18,4.34,8.55,7.32-1.24,8.67-1.24,8.67l-1.48-.37-2-6a65.91,65.91,0,0,1-7.81.25C147.51,37.61,144.41,37.24,144.41,37.24Z" style="fill:#263238;stroke:#263238;stroke-linecap:round;stroke-linejoin:round"></path><path d="M144,35.51s-.25,9.91.5,12.14,1.61,7,4.58,7.81,6.33-1,7.94-2.23,2.23-5.95,2.23-5.95,2.11-.87,2.11-2.73a3,3,0,0,0-1.49-2.6h-1l-.87-6.07S150.36,38.23,144,35.51Z" style="fill:#fff;stroke:#263238;stroke-linecap:round;stroke-linejoin:round"></path><polyline points="149 41.21 149.25 43.31 148.63 49.14 151.23 49.39" style="fill:none;stroke:#263238;stroke-linecap:round;stroke-linejoin:round"></polyline><path d="M148.5,50.75a4.45,4.45,0,0,0,4.47,0" style="fill:none;stroke:#263238;stroke-linecap:round;stroke-linejoin:round"></path><path d="M148.86,43.38a2.67,2.67,0,1,1-2.67-2.67A2.67,2.67,0,0,1,148.86,43.38Z" style="fill:none;stroke:#263238;stroke-linecap:round;stroke-linejoin:round"></path><path d="M156,43.38a2.67,2.67,0,1,1-2.66-2.67A2.66,2.66,0,0,1,156,43.38Z" style="fill:none;stroke:#263238;stroke-linecap:round;stroke-linejoin:round"></path><line x1="148.88" y1="42.2" x2="150.49" y2="42.2" style="fill:none;stroke:#263238;stroke-linecap:round;stroke-linejoin:round"></line><line x1="156.19" y1="42.7" x2="158.92" y2="41.95" style="fill:#fff;stroke:#263238;stroke-linecap:round;stroke-linejoin:round"></line><path d="M145.16,40s1.86-1,2.85.12" style="fill:none;stroke:#263238;stroke-linecap:round;stroke-linejoin:round"></path><path d="M150.74,40.09a4.6,4.6,0,0,1,4.33,0" style="fill:none;stroke:#263238;stroke-linecap:round;stroke-linejoin:round"></path><path d="M147,43.13c0,.47-.25.85-.57.85s-.56-.38-.56-.85.25-.85.56-.85S147,42.66,147,43.13Z" style="fill:#263238"></path><path d="M152.72,43.13c0,.47-.25.85-.57.85s-.56-.38-.56-.85.25-.85.56-.85S152.72,42.66,152.72,43.13Z" style="fill:#263238"></path><path d="M132.14,64.88l-7.06,33.35s.86,4.46,2.6,4.46a15,15,0,0,0,6.69-2.85c.75-.87.5-6,.5-6Z" style="fill:#fff;stroke:#263238;stroke-linecap:round;stroke-linejoin:round"></path><path d="M148.26,57.32S145,58.54,144.19,61a23.27,23.27,0,0,0-.52,6.68" style="fill:none;stroke:#263238;stroke-linecap:round;stroke-linejoin:round;stroke-width:2px"></path><path d="M146.33,75.17c0,3.48-.17,6.93-.17,7.22,0,.52-3.28,4.85-3.28,4.85" style="fill:none;stroke:#263238;stroke-linecap:round;stroke-linejoin:round"></path><path d="M142,75.3c-.29-2.7-.53-5.32-.53-6.28,0-2.23,3.67-3,4.45-.79.37,1,.45,4,.44,6.94" style="fill:none;stroke:#263238;stroke-linecap:round;stroke-linejoin:round;stroke-width:2px"></path><path d="M147.73,86.71a58.67,58.67,0,0,1-4.85-3.93c-.07-.22-.53-3.92-.91-7.48" style="fill:none;stroke:#263238;stroke-linecap:round;stroke-linejoin:round"></path><circle cx="164.87" cy="76.18" r="2" style="fill:none;stroke:#263238;stroke-linecap:round;stroke-linejoin:round"></circle><path d="M160.86,57.76s3.39,3.13,3.89,16.66" style="fill:none;stroke:#263238;stroke-linecap:round;stroke-linejoin:round;stroke-width:2px"></path><polygon points="145.9 88.93 149.5 85.83 149.99 94.26 145.03 95.88 145.9 88.93" style="fill:#fff;stroke:#263238;stroke-linecap:round;stroke-linejoin:round"></polygon><path d="M126.94,92.65a24,24,0,0,0-1.62,6.82c0,2.73,1.74,5.33,4,5s16.61-6.7,16.61-6.7v-8.8l-16.11,2.85" style="fill:#fff;stroke:#263238;stroke-linecap:round;stroke-linejoin:round"></path><polygon points="149.99 98.85 147.88 77.9 165.36 76.29 166.97 98.35 149.99 98.85" style="fill:#263238;stroke:#263238;stroke-linecap:round;stroke-linejoin:round"></polygon><polygon points="154.58 77.4 154.58 75.42 157.8 75.17 158.05 77.03 154.58 77.4" style="fill:none;stroke:#263238;stroke-linecap:round;stroke-linejoin:round"></polygon><path d="M161.64,91.16l-.47-.09-2-.4a29.84,29.84,0,0,0-1.74-3.35c-.37-.37-2.36-.37-3.22-.49S152.47,85.09,152,86s-.13,1,.12,1.36a6.06,6.06,0,0,0,1.86.87l.25,1h-6.7s-1,.62,0,1.12l1,.49s.5,4.09,1.37,4.34a40.43,40.43,0,0,0,7.81.37c1-.25,4.71-.49,4.71-.49Z" style="fill:#fff;stroke:#263238;stroke-linecap:round;stroke-linejoin:round"></path><path d="M183.83,88.19a11,11,0,0,1,1.37,4.34c.37,2.85-1.86,4.46-5.58,5.2s-18.72.5-18.72.5l.12-7.81,18.6-2.48" style="fill:#fff;stroke:#263238;stroke-linecap:round;stroke-linejoin:round"></path></g><g id="freepik--floor-2--inject-32"><line x1="28.32" y1="449.98" x2="476.49" y2="449.98" style="fill:none;stroke:#263238;stroke-linecap:round;stroke-linejoin:round"></line></g><g id="freepik--floor-1--inject-32"><line x1="28.32" y1="205.11" x2="476.49" y2="205.11" style="fill:none;stroke:#263238;stroke-linecap:round;stroke-linejoin:round"></line></g><g id="freepik--Syringe--inject-32"><rect x="238.7" y="165.75" width="34.78" height="242.83" style="fill:#fff;stroke:#263238;stroke-linecap:round;stroke-linejoin:round"></rect><rect x="241.59" y="165.75" width="28.99" height="69.2" style="fill:#40F5FF;stroke:#263238;stroke-linecap:round;stroke-linejoin:round"></rect><rect x="241.96" y="240.75" width="28.26" height="233.05" style="fill:#fff;stroke:#263238;stroke-linecap:round;stroke-linejoin:round"></rect><polyline points="255 451.5 255 240.75 270.22 240.75 270.22 473.8 255 473.8 255 458" style="fill:#fff;stroke:#263238;stroke-linecap:round;stroke-linejoin:round"></polyline><rect x="241.96" y="405.6" width="28.26" height="8.65" style="fill:#263238;stroke:#263238;stroke-linecap:round;stroke-linejoin:round"></rect><rect x="241.96" y="223.36" width="28.26" height="17.39" style="fill:#263238;stroke:#263238;stroke-linecap:round;stroke-linejoin:round"></rect><rect x="225.21" y="402.75" width="61.75" height="5.83" rx="2.68" style="fill:#fff;stroke:#263238;stroke-linecap:round;stroke-linejoin:round"></rect><rect x="230.58" y="470.49" width="51.01" height="5.83" rx="2.68" style="fill:#fff;stroke:#263238;stroke-linecap:round;stroke-linejoin:round"></rect><polygon points="238.69 165.75 243.82 151.44 269 151.44 273.48 165.75 238.69 165.75" style="fill:#fff;stroke:#263238;stroke-linecap:round;stroke-linejoin:round"></polygon><polygon points="260.98 111.32 251.2 111.32 239.79 156.13 272.38 156.13 260.98 111.32" style="fill:#40F5FF;stroke:#263238;stroke-linecap:round;stroke-linejoin:round"></polygon><rect x="238.69" y="152.38" width="34.8" height="5.02" style="fill:#40F5FF;stroke:#263238;stroke-linecap:round;stroke-linejoin:round"></rect><rect x="252.68" y="106.88" width="7.14" height="4.28" style="fill:#40F5FF;stroke:#263238;stroke-linecap:round;stroke-linejoin:round"></rect><line x1="256.09" y1="106.52" x2="256.09" y2="8" style="fill:none;stroke:#263238;stroke-linecap:round;stroke-linejoin:round"></line><path d="M255.94,10.4a43.85,43.85,0,0,1-2.36,5.77c-1.5,3-3.34,4-3.34,6.56a3.62,3.62,0,0,0,3.33,3.44c1.93.2,2.45-1.73,2.46-2.37S255.94,10.4,255.94,10.4Z" style="fill:#40F5FF;stroke:#263238;stroke-linecap:round;stroke-linejoin:round"></path><line x1="244.6" y1="178.06" x2="257.46" y2="178.06" style="fill:none;stroke:#263238;stroke-linecap:round;stroke-linejoin:round"></line><line x1="244.6" y1="183.16" x2="250.5" y2="183.16" style="fill:none;stroke:#263238;stroke-linecap:round;stroke-linejoin:round"></line><line x1="244.6" y1="188.04" x2="257.46" y2="188.04" style="fill:none;stroke:#263238;stroke-linecap:round;stroke-linejoin:round"></line><line x1="244.6" y1="193.14" x2="250.5" y2="193.14" style="fill:none;stroke:#263238;stroke-linecap:round;stroke-linejoin:round"></line><line x1="244.6" y1="198.01" x2="257.46" y2="198.01" style="fill:none;stroke:#263238;stroke-linecap:round;stroke-linejoin:round"></line><line x1="244.6" y1="203.11" x2="250.5" y2="203.11" style="fill:none;stroke:#263238;stroke-linecap:round;stroke-linejoin:round"></line><line x1="244.6" y1="207.99" x2="257.46" y2="207.99" style="fill:none;stroke:#263238;stroke-linecap:round;stroke-linejoin:round"></line><line x1="244.6" y1="213.09" x2="250.5" y2="213.09" style="fill:none;stroke:#263238;stroke-linecap:round;stroke-linejoin:round"></line><line x1="244.6" y1="217.96" x2="257.46" y2="217.96" style="fill:none;stroke:#263238;stroke-linecap:round;stroke-linejoin:round"></line><line x1="244.6" y1="223.06" x2="250.5" y2="223.06" style="fill:none;stroke:#263238;stroke-linecap:round;stroke-linejoin:round"></line><line x1="244.6" y1="227.94" x2="257.46" y2="227.94" style="fill:none;stroke:#263238;stroke-linecap:round;stroke-linejoin:round"></line><line x1="244.6" y1="233.04" x2="250.5" y2="233.04" style="fill:none;stroke:#263238;stroke-linecap:round;stroke-linejoin:round"></line><line x1="244.6" y1="237.91" x2="257.46" y2="237.91" style="fill:none;stroke:#263238;stroke-linecap:round;stroke-linejoin:round"></line><line x1="244.6" y1="243.01" x2="250.5" y2="243.01" style="fill:none;stroke:#263238;stroke-linecap:round;stroke-linejoin:round"></line><line x1="244.6" y1="247.88" x2="257.46" y2="247.88" style="fill:none;stroke:#263238;stroke-linecap:round;stroke-linejoin:round"></line><line x1="244.6" y1="252.99" x2="250.5" y2="252.99" style="fill:none;stroke:#263238;stroke-linecap:round;stroke-linejoin:round"></line><line x1="244.6" y1="257.86" x2="257.46" y2="257.86" style="fill:none;stroke:#263238;stroke-linecap:round;stroke-linejoin:round"></line><line x1="244.6" y1="262.96" x2="250.5" y2="262.96" style="fill:none;stroke:#263238;stroke-linecap:round;stroke-linejoin:round"></line><line x1="244.6" y1="267.83" x2="257.46" y2="267.83" style="fill:none;stroke:#263238;stroke-linecap:round;stroke-linejoin:round"></line><line x1="244.6" y1="272.94" x2="250.5" y2="272.94" style="fill:none;stroke:#263238;stroke-linecap:round;stroke-linejoin:round"></line><line x1="244.6" y1="277.81" x2="257.46" y2="277.81" style="fill:none;stroke:#263238;stroke-linecap:round;stroke-linejoin:round"></line><line x1="244.6" y1="282.91" x2="250.5" y2="282.91" style="fill:none;stroke:#263238;stroke-linecap:round;stroke-linejoin:round"></line><line x1="244.6" y1="287.78" x2="257.46" y2="287.78" style="fill:none;stroke:#263238;stroke-linecap:round;stroke-linejoin:round"></line><line x1="244.6" y1="292.89" x2="250.5" y2="292.89" style="fill:none;stroke:#263238;stroke-linecap:round;stroke-linejoin:round"></line><line x1="244.6" y1="297.76" x2="257.46" y2="297.76" style="fill:none;stroke:#263238;stroke-linecap:round;stroke-linejoin:round"></line><line x1="244.6" y1="302.86" x2="250.5" y2="302.86" style="fill:none;stroke:#263238;stroke-linecap:round;stroke-linejoin:round"></line><line x1="244.6" y1="307.73" x2="257.46" y2="307.73" style="fill:none;stroke:#263238;stroke-linecap:round;stroke-linejoin:round"></line><line x1="244.6" y1="312.84" x2="250.5" y2="312.84" style="fill:none;stroke:#263238;stroke-linecap:round;stroke-linejoin:round"></line><line x1="244.6" y1="317.71" x2="257.46" y2="317.71" style="fill:none;stroke:#263238;stroke-linecap:round;stroke-linejoin:round"></line><line x1="244.6" y1="322.81" x2="250.5" y2="322.81" style="fill:none;stroke:#263238;stroke-linecap:round;stroke-linejoin:round"></line><line x1="244.6" y1="327.68" x2="257.46" y2="327.68" style="fill:none;stroke:#263238;stroke-linecap:round;stroke-linejoin:round"></line><line x1="244.6" y1="332.79" x2="250.5" y2="332.79" style="fill:none;stroke:#263238;stroke-linecap:round;stroke-linejoin:round"></line><line x1="244.6" y1="337.66" x2="257.46" y2="337.66" style="fill:none;stroke:#263238;stroke-linecap:round;stroke-linejoin:round"></line><line x1="244.6" y1="342.76" x2="250.5" y2="342.76" style="fill:none;stroke:#263238;stroke-linecap:round;stroke-linejoin:round"></line><line x1="244.6" y1="347.63" x2="257.46" y2="347.63" style="fill:none;stroke:#263238;stroke-linecap:round;stroke-linejoin:round"></line><line x1="244.6" y1="352.74" x2="250.5" y2="352.74" style="fill:none;stroke:#263238;stroke-linecap:round;stroke-linejoin:round"></line><line x1="244.6" y1="357.61" x2="257.46" y2="357.61" style="fill:none;stroke:#263238;stroke-linecap:round;stroke-linejoin:round"></line><line x1="244.6" y1="362.71" x2="250.5" y2="362.71" style="fill:none;stroke:#263238;stroke-linecap:round;stroke-linejoin:round"></line><line x1="244.6" y1="367.58" x2="257.46" y2="367.58" style="fill:none;stroke:#263238;stroke-linecap:round;stroke-linejoin:round"></line><line x1="244.6" y1="372.69" x2="250.5" y2="372.69" style="fill:none;stroke:#263238;stroke-linecap:round;stroke-linejoin:round"></line><line x1="244.6" y1="377.56" x2="257.46" y2="377.56" style="fill:none;stroke:#263238;stroke-linecap:round;stroke-linejoin:round"></line><line x1="244.6" y1="382.66" x2="250.5" y2="382.66" style="fill:none;stroke:#263238;stroke-linecap:round;stroke-linejoin:round"></line></g></svg>