<svg xmlns="http://www.w3.org/2000/svg" viewBox="0 0 500 500"><g id="freepik--background-complete--inject-41"><path d="M418.58,370.58A35.23,35.23,0,0,1,428,347.3C430.79,359,418.58,370.58,418.58,370.58Z" style="fill:#ebebeb"></path><path d="M432.19,364a35.21,35.21,0,0,1,25.08-.69C447.7,370.56,432.19,364,432.19,364Z" style="fill:#ebebeb"></path><path d="M433.74,356.42a27.74,27.74,0,0,1,3.41-19.49C441.26,345.48,433.74,356.42,433.74,356.42Z" style="fill:#ebebeb"></path><path d="M381.12,329.12c19.89,5.29,30.56,22.58,30.56,22.58C394.68,351.71,381.12,329.12,381.12,329.12Z" style="fill:#ebebeb"></path><path d="M412.89,337.27c-1-21.44,19.92-45.7,19.92-45.7-3.17,26.61-19.92,45.7-19.92,45.7" style="fill:#ebebeb"></path><path d="M412.79,276.21a57.39,57.39,0,0,1-7.54,30.71C402.3,293.13,412.79,276.21,412.79,276.21Z" style="fill:#ebebeb"></path><path d="M404.71,319.77c-15.67-1.68-24.2-17.28-24.2-17.28C399.46,307.8,404.71,319.77,404.71,319.77Z" style="fill:#ebebeb"></path><path d="M370.9,385.31a35.25,35.25,0,0,1,24.64-4.75C387.27,389.27,370.9,385.31,370.9,385.31Z" style="fill:#ebebeb"></path><path d="M411.52,392.34A23,23,0,0,1,401,404.21C401.66,397,411.52,392.34,411.52,392.34Z" style="fill:#ebebeb"></path><path d="M409.5,390c-8.91,5.49-18.74,3.35-18.74,3.35C396.79,387.09,409.5,390,409.5,390Z" style="fill:#ebebeb"></path><path d="M417.51,418.89a1.34,1.34,0,0,1,0-.32c0-.25,0-.56,0-.93v-3.59c0-1.56,0-3.47,0-5.69s-.05-4.73-.16-7.52c-.14-5.57-.53-12.2-1.1-19.55s-1.53-15.39-2.76-23.81c-2.48-16.83-5.86-31.88-8.58-42.69-1.37-5.41-2.53-9.77-3.37-12.77-.4-1.46-.71-2.62-.94-3.47l-.22-.91a1.21,1.21,0,0,1-.06-.31s.06.09.13.29.17.53.29.89c.26.84.61,2,1.06,3.43.93,3,2.16,7.33,3.59,12.73a397.49,397.49,0,0,1,8.8,42.71c1.23,8.43,2.1,16.5,2.7,23.86s.88,14,.95,19.59c.09,2.79.06,5.31.06,7.53s0,4.13-.09,5.69-.09,2.71-.12,3.59c0,.38,0,.68-.05.93S417.53,418.89,417.51,418.89Z" style="fill:#e0e0e0"></path><path d="M388.75,373.52c.11-.17,6.44,4,14.15,9.27s13.86,9.69,13.75,9.85-6.45-4-14.15-9.27S388.64,373.68,388.75,373.52Z" style="fill:#e0e0e0"></path><path d="M416.65,375.8a5.68,5.68,0,0,1,1-1.07l2.82-2.71,9.42-8.84,9.42-8.83,2.86-2.68a5.41,5.41,0,0,1,1.11-.92,6.28,6.28,0,0,1-.92,1.11c-.61.7-1.54,1.66-2.7,2.84-2.32,2.37-5.6,5.55-9.29,9s-7.08,6.5-9.56,8.69c-1.24,1.09-2.26,2-3,2.55A5.63,5.63,0,0,1,416.65,375.8Z" style="fill:#e0e0e0"></path><path d="M368.63,363.36s16.19-.31,23,12.44A29.18,29.18,0,0,1,368.63,363.36Z" style="fill:#ebebeb"></path><path d="M390.75,356.85s13.19,9.41,11.09,23.73A29.16,29.16,0,0,1,390.75,356.85Z" style="fill:#ebebeb"></path><path d="M460.21,333.68s-5.2,18.13-21.74,21.38A34,34,0,0,1,460.21,333.68Z" style="fill:#ebebeb"></path><path d="M383.55,266.27s20.67,13.48,18.38,35.4A44.42,44.42,0,0,1,383.55,266.27Z" style="fill:#ebebeb"></path><path d="M452.33,386.17a8,8,0,0,1-1.34,1.08c-.89.64-2.17,1.61-3.71,2.83a94,94,0,0,0-11.19,10.51,92.79,92.79,0,0,0-9.25,12.26c-1.06,1.66-1.88,3-2.42,4a7.94,7.94,0,0,1-.93,1.44,8.21,8.21,0,0,1,.68-1.57c.48-1,1.24-2.42,2.24-4.12A78.76,78.76,0,0,1,447,389.69c1.59-1.19,2.91-2.09,3.85-2.67A7.7,7.7,0,0,1,452.33,386.17Z" style="fill:#e0e0e0"></path><path d="M434.35,399.63A35.23,35.23,0,0,1,439.09,375C441.32,390.36,434.35,399.63,434.35,399.63Z" style="fill:#ebebeb"></path><path d="M448.25,392.05a25.6,25.6,0,0,1,18-2.79C456.31,394.55,448.25,392.05,448.25,392.05Z" style="fill:#ebebeb"></path><polygon points="387.38 420.58 395.14 471.53 440.18 471.53 450.64 421.31 387.38 420.58" style="fill:#ebebeb"></polygon><path d="M444.34,453.23c0,.15-11.54.27-25.78.27s-25.78-.12-25.78-.27,11.54-.26,25.78-.26S444.34,453.09,444.34,453.23Z" style="fill:#fafafa"></path><path d="M444.51,450.73c0,.14-11.62.26-25.95.26s-25.95-.12-25.95-.26,11.61-.27,25.95-.27S444.51,450.58,444.51,450.73Z" style="fill:#fafafa"></path><path d="M444.42,447.9c0,.14-11.62.26-25.95.26s-26-.12-26-.26,11.62-.27,26-.27S444.42,447.75,444.42,447.9Z" style="fill:#fafafa"></path><path d="M400.31,468.62a81.32,81.32,0,0,1-2.24-12.92,41.91,41.91,0,0,1,1.38,6.42A39.83,39.83,0,0,1,400.31,468.62Z" style="fill:#fafafa"></path><path d="M403.38,468.08a47.88,47.88,0,0,1-.56-6.26,48.59,48.59,0,0,1-.3-6.28,30.21,30.21,0,0,1,.82,6.25A30.63,30.63,0,0,1,403.38,468.08Z" style="fill:#fafafa"></path><path d="M409,468.08a31.93,31.93,0,0,1-1.17-6.42,30.76,30.76,0,0,1-.34-6.51,57,57,0,0,1,.86,6.45A54.75,54.75,0,0,1,409,468.08Z" style="fill:#fafafa"></path><path d="M412.88,468.35a32,32,0,0,1-.62-6.52,31.25,31.25,0,0,1,.2-6.55,178,178,0,0,1,.42,13.07Z" style="fill:#fafafa"></path><path d="M419.82,468.08a74.08,74.08,0,0,1-.42-12.4,71.35,71.35,0,0,1,.42,12.4Z" style="fill:#fafafa"></path><path d="M424.89,468.35a38.44,38.44,0,0,1-.21-6.4,40.44,40.44,0,0,1,.31-6.4,37.75,37.75,0,0,1,.22,6.4A38.35,38.35,0,0,1,424.89,468.35Z" style="fill:#fafafa"></path><path d="M429.64,467.67A43.5,43.5,0,0,1,430,461a40.89,40.89,0,0,1,.91-6.64,43.54,43.54,0,0,1-.39,6.69A41.12,41.12,0,0,1,429.64,467.67Z" style="fill:#fafafa"></path><path d="M435.77,467a22.6,22.6,0,0,1,.76-5.69,23,23,0,0,1,1.67-5.49,49.77,49.77,0,0,1-1.15,5.6A51.46,51.46,0,0,1,435.77,467Z" style="fill:#fafafa"></path><path d="M382.22,410.49V420a3.75,3.75,0,0,0,3.75,3.76H451.2A3.75,3.75,0,0,0,455,420v-9.53Z" style="fill:#ebebeb"></path><polygon points="387.87 423.78 388.41 426.81 448.6 431.1 450.12 423.78 387.87 423.78" style="fill:#e0e0e0"></polygon><rect x="372.99" y="33.46" width="77.25" height="80.53" style="fill:#e0e0e0"></rect><rect x="367.76" y="33.46" width="77.25" height="80.53" style="fill:#fafafa"></rect><path d="M445,114h-77.3V33.44H445Zm-77.25,0H445V33.48h-77.2Z" style="fill:#e0e0e0"></path><rect x="378.15" y="44.29" width="56.48" height="58.88" style="fill:#fff"></rect><path d="M378.15,103.56a9.78,9.78,0,0,1-1.4,1.62c-.9.95-2.17,2.24-3.59,3.64s-2.72,2.64-3.69,3.53a9.1,9.1,0,0,1-1.63,1.36,8.82,8.82,0,0,1,1.39-1.62c.9-1,2.17-2.24,3.6-3.64s2.73-2.66,3.69-3.54A8.12,8.12,0,0,1,378.15,103.56Z" style="fill:#e0e0e0"></path><path d="M434.63,103.41a9.49,9.49,0,0,1,1.62,1.39c.95.91,2.24,2.17,3.64,3.6s2.65,2.72,3.53,3.69a8.58,8.58,0,0,1,1.36,1.63,9.13,9.13,0,0,1-1.61-1.39c-.95-.9-2.24-2.17-3.65-3.6S436.87,106,436,105A9.12,9.12,0,0,1,434.63,103.41Z" style="fill:#e0e0e0"></path><path d="M434.48,44.44a8.94,8.94,0,0,1,1.39-1.62c.9-1,2.17-2.24,3.59-3.64s2.73-2.65,3.69-3.53a8.58,8.58,0,0,1,1.63-1.36,8.75,8.75,0,0,1-1.38,1.61c-.91,1-2.18,2.25-3.6,3.65s-2.74,2.65-3.7,3.54A8.76,8.76,0,0,1,434.48,44.44Z" style="fill:#e0e0e0"></path><path d="M378,44.59a9.32,9.32,0,0,1-1.62-1.4c-.95-.9-2.24-2.17-3.64-3.59s-2.64-2.72-3.53-3.69a8.58,8.58,0,0,1-1.36-1.63,8.61,8.61,0,0,1,1.61,1.39c1,.9,2.25,2.17,3.65,3.59s2.65,2.74,3.54,3.7A7.8,7.8,0,0,1,378,44.59Z" style="fill:#e0e0e0"></path><path d="M434.48,103.16a1.58,1.58,0,0,1,0-.28c0-.2,0-.47,0-.82,0-.74,0-1.8,0-3.18,0-2.79,0-6.85-.06-12,0-10.31-.07-25-.11-42.59l.22.21-56.33,0h0l.25-.25c0,21.61,0,41.82,0,58.87l-.21-.21,40.78.11,11.46.06,3,0h1.06a1.15,1.15,0,0,1-.25,0h-.76l-3,0-11.41.06-40.92.11h-.22v-.22c0-17,0-37.26,0-58.87V44h.25l56.33,0h.21v.22c0,17.64-.08,32.38-.11,42.73,0,5.13,0,9.17-.05,12,0,1.36,0,2.41,0,3.13,0,.34,0,.61,0,.8S434.48,103.17,434.48,103.16Z" style="fill:#e0e0e0"></path><rect x="396.97" y="64.3" width="18.85" height="18.85" style="fill:#ebebeb"></rect><rect x="373.5" y="140.01" width="77.25" height="80.53" style="fill:#e0e0e0"></rect><rect x="368.27" y="140.01" width="77.25" height="80.53" style="fill:#fafafa"></rect><path d="M445.55,220.56h-77.3V140h77.3Zm-77.25-.05h77.2V140H368.3Z" style="fill:#e0e0e0"></path><rect x="378.66" y="150.83" width="56.48" height="58.88" style="fill:#fff"></rect><path d="M378.66,210.1a9.92,9.92,0,0,1-1.4,1.62c-.9.95-2.17,2.24-3.59,3.64s-2.73,2.65-3.69,3.53a8.58,8.58,0,0,1-1.63,1.36,8.61,8.61,0,0,1,1.39-1.61c.9-.95,2.17-2.24,3.59-3.65s2.74-2.65,3.7-3.54A8.72,8.72,0,0,1,378.66,210.1Z" style="fill:#e0e0e0"></path><path d="M435.14,210a8.94,8.94,0,0,1,1.62,1.39c.95.9,2.24,2.17,3.64,3.59s2.65,2.73,3.53,3.69a8.58,8.58,0,0,1,1.36,1.63,8.75,8.75,0,0,1-1.61-1.38c-.95-.9-2.25-2.18-3.65-3.6s-2.65-2.73-3.54-3.7A9.32,9.32,0,0,1,435.14,210Z" style="fill:#e0e0e0"></path><path d="M435,151a9.92,9.92,0,0,1,1.4-1.62c.9-1,2.17-2.24,3.59-3.64s2.73-2.65,3.69-3.53a8.58,8.58,0,0,1,1.63-1.36,8.75,8.75,0,0,1-1.38,1.61c-.91,1-2.18,2.24-3.6,3.65s-2.74,2.65-3.7,3.54A8.72,8.72,0,0,1,435,151Z" style="fill:#e0e0e0"></path><path d="M378.5,151.13a8.94,8.94,0,0,1-1.62-1.39c-.95-.9-2.24-2.17-3.64-3.59s-2.65-2.73-3.53-3.69a9,9,0,0,1-1.36-1.63,8.75,8.75,0,0,1,1.61,1.38c1,.9,2.25,2.18,3.65,3.6s2.65,2.73,3.54,3.7A9.32,9.32,0,0,1,378.5,151.13Z" style="fill:#e0e0e0"></path><path d="M435,209.71s0-.1,0-.29,0-.47,0-.82c0-.74,0-1.8,0-3.18,0-2.79,0-6.84-.05-12,0-10.31-.07-25-.11-42.59l.21.22-56.32,0h0l.25-.25c0,21.61,0,41.83,0,58.88l-.21-.21,40.78.11,11.46,0,3,0H434l-3,0-11.41.06-40.92.1h-.22v-.22c0-17.05,0-37.27,0-58.88v-.25h.25l56.32,0h.22v.22c0,17.65-.08,32.39-.11,42.73,0,5.13,0,9.18,0,11.95,0,1.36,0,2.41,0,3.14,0,.34,0,.6,0,.8A1.21,1.21,0,0,1,435,209.71Z" style="fill:#e0e0e0"></path><rect x="397.47" y="170.85" width="18.85" height="18.85" style="fill:#ebebeb"></rect><rect x="44.25" y="24.29" width="158.26" height="207.78" style="fill:#e0e0e0"></rect><rect x="53.72" y="27.64" width="141.33" height="202.54" style="fill:#ebebeb"></rect><rect x="72.63" y="94.4" width="56.17" height="135.6" style="fill:#e0e0e0"></rect><rect x="81.66" y="110.91" width="8.87" height="8.87" style="fill:#fafafa"></rect><rect x="96.28" y="110.91" width="8.87" height="8.87" style="fill:#fafafa"></rect><rect x="110.9" y="110.91" width="8.87" height="8.87" style="fill:#fafafa"></rect><rect x="81.66" y="124.27" width="8.87" height="8.87" style="fill:#fafafa"></rect><rect x="96.28" y="124.27" width="8.87" height="8.87" style="fill:#fafafa"></rect><rect x="110.9" y="124.27" width="8.87" height="8.87" style="fill:#fafafa"></rect><rect x="81.66" y="137.64" width="8.87" height="8.87" style="fill:#fafafa"></rect><rect x="96.28" y="137.64" width="8.87" height="8.87" style="fill:#fafafa"></rect><rect x="110.9" y="137.64" width="8.87" height="8.87" style="fill:#fafafa"></rect><rect x="81.66" y="151" width="8.87" height="8.87" style="fill:#fafafa"></rect><rect x="96.28" y="151" width="8.87" height="8.87" style="fill:#fafafa"></rect><rect x="110.9" y="151" width="8.87" height="8.87" style="fill:#fafafa"></rect><rect x="81.66" y="164.36" width="8.87" height="8.87" style="fill:#fafafa"></rect><rect x="96.28" y="164.36" width="8.87" height="8.87" style="fill:#fafafa"></rect><rect x="110.9" y="164.36" width="8.87" height="8.87" style="fill:#fafafa"></rect><rect x="81.66" y="177.72" width="8.87" height="8.87" style="fill:#fafafa"></rect><rect x="96.28" y="177.72" width="8.87" height="8.87" style="fill:#fafafa"></rect><rect x="110.9" y="177.72" width="8.87" height="8.87" style="fill:#fafafa"></rect><rect x="81.66" y="191.08" width="8.87" height="8.87" style="fill:#fafafa"></rect><rect x="96.28" y="191.08" width="8.87" height="8.87" style="fill:#fafafa"></rect><rect x="110.9" y="191.08" width="8.87" height="8.87" style="fill:#fafafa"></rect><rect x="81.66" y="204.44" width="8.87" height="8.87" style="fill:#fafafa"></rect><rect x="96.28" y="204.44" width="8.87" height="8.87" style="fill:#fafafa"></rect><rect x="110.9" y="204.44" width="8.87" height="8.87" style="fill:#fafafa"></rect><rect x="81.66" y="217.8" width="8.87" height="8.87" style="fill:#fafafa"></rect><rect x="96.28" y="217.8" width="8.87" height="8.87" style="fill:#fafafa"></rect><rect x="110.9" y="217.8" width="8.87" height="8.87" style="fill:#fafafa"></rect><rect x="123.9" y="138.2" width="38.27" height="92.39" style="fill:#e0e0e0"></rect><rect x="130.05" y="149.45" width="6.04" height="6.04" style="fill:#fafafa"></rect><rect x="140.01" y="149.45" width="6.04" height="6.04" style="fill:#fafafa"></rect><rect x="149.97" y="149.45" width="6.04" height="6.04" style="fill:#fafafa"></rect><rect x="130.05" y="158.56" width="6.04" height="6.04" style="fill:#fafafa"></rect><rect x="140.01" y="158.56" width="6.04" height="6.04" style="fill:#fafafa"></rect><rect x="149.97" y="158.56" width="6.04" height="6.04" style="fill:#fafafa"></rect><rect x="130.05" y="167.66" width="6.04" height="6.04" style="fill:#fafafa"></rect><rect x="140.01" y="167.66" width="6.04" height="6.04" style="fill:#fafafa"></rect><rect x="149.97" y="167.66" width="6.04" height="6.04" style="fill:#fafafa"></rect><rect x="130.05" y="176.76" width="6.04" height="6.04" style="fill:#fafafa"></rect><rect x="140.01" y="176.76" width="6.04" height="6.04" style="fill:#fafafa"></rect><rect x="149.97" y="176.76" width="6.04" height="6.04" style="fill:#fafafa"></rect><rect x="130.05" y="185.87" width="6.04" height="6.04" style="fill:#fafafa"></rect><rect x="140.01" y="185.87" width="6.04" height="6.04" style="fill:#fafafa"></rect><rect x="149.97" y="185.87" width="6.04" height="6.04" style="fill:#fafafa"></rect><rect x="130.05" y="194.97" width="6.04" height="6.04" style="fill:#fafafa"></rect><rect x="140.01" y="194.97" width="6.04" height="6.04" style="fill:#fafafa"></rect><rect x="149.97" y="194.97" width="6.04" height="6.04" style="fill:#fafafa"></rect><rect x="130.05" y="204.08" width="6.04" height="6.04" style="fill:#fafafa"></rect><rect x="140.01" y="204.08" width="6.04" height="6.04" style="fill:#fafafa"></rect><rect x="149.97" y="204.08" width="6.04" height="6.04" style="fill:#fafafa"></rect><rect x="130.05" y="213.18" width="6.04" height="6.04" style="fill:#fafafa"></rect><rect x="140.01" y="213.18" width="6.04" height="6.04" style="fill:#fafafa"></rect><rect x="149.97" y="213.18" width="6.04" height="6.04" style="fill:#fafafa"></rect><rect x="130.05" y="222.28" width="6.04" height="6.04" style="fill:#fafafa"></rect><rect x="140.01" y="222.28" width="6.04" height="6.04" style="fill:#fafafa"></rect><rect x="149.97" y="222.28" width="6.04" height="6.04" style="fill:#fafafa"></rect><rect x="171.54" y="176.09" width="22.16" height="53.49" style="fill:#e0e0e0"></rect><rect x="175.1" y="182.61" width="3.5" height="3.5" style="fill:#fafafa"></rect><rect x="180.87" y="182.61" width="3.5" height="3.5" style="fill:#fafafa"></rect><rect x="186.64" y="182.61" width="3.5" height="3.5" style="fill:#fafafa"></rect><rect x="175.1" y="187.88" width="3.5" height="3.5" style="fill:#fafafa"></rect><rect x="180.87" y="187.88" width="3.5" height="3.5" style="fill:#fafafa"></rect><rect x="186.64" y="187.88" width="3.5" height="3.5" style="fill:#fafafa"></rect><rect x="175.1" y="193.15" width="3.5" height="3.5" style="fill:#fafafa"></rect><rect x="180.87" y="193.15" width="3.5" height="3.5" style="fill:#fafafa"></rect><rect x="186.64" y="193.15" width="3.5" height="3.5" style="fill:#fafafa"></rect><rect x="175.1" y="198.42" width="3.5" height="3.5" style="fill:#fafafa"></rect><rect x="180.87" y="198.42" width="3.5" height="3.5" style="fill:#fafafa"></rect><rect x="186.64" y="198.42" width="3.5" height="3.5" style="fill:#fafafa"></rect><rect x="175.1" y="203.69" width="3.5" height="3.5" style="fill:#fafafa"></rect><rect x="180.87" y="203.69" width="3.5" height="3.5" style="fill:#fafafa"></rect><rect x="186.64" y="203.69" width="3.5" height="3.5" style="fill:#fafafa"></rect><rect x="175.1" y="208.96" width="3.5" height="3.5" style="fill:#fafafa"></rect><rect x="180.87" y="208.96" width="3.5" height="3.5" style="fill:#fafafa"></rect><rect x="186.64" y="208.96" width="3.5" height="3.5" style="fill:#fafafa"></rect><rect x="175.1" y="214.23" width="3.5" height="3.5" style="fill:#fafafa"></rect><rect x="180.87" y="214.23" width="3.5" height="3.5" style="fill:#fafafa"></rect><rect x="186.64" y="214.23" width="3.5" height="3.5" style="fill:#fafafa"></rect><rect x="175.1" y="219.5" width="3.5" height="3.5" style="fill:#fafafa"></rect><rect x="180.87" y="219.5" width="3.5" height="3.5" style="fill:#fafafa"></rect><rect x="186.64" y="219.5" width="3.5" height="3.5" style="fill:#fafafa"></rect><rect x="175.1" y="224.77" width="3.5" height="3.5" style="fill:#fafafa"></rect><rect x="180.87" y="224.77" width="3.5" height="3.5" style="fill:#fafafa"></rect><rect x="186.64" y="224.77" width="3.5" height="3.5" style="fill:#fafafa"></rect><path d="M173.49,106.1a24.69,24.69,0,0,1-20.1-39,24.68,24.68,0,1,0,34.42,34.42A24.52,24.52,0,0,1,173.49,106.1Z" style="fill:#fafafa"></path><polygon points="211.59 24.29 37.18 24.29 39.82 20.29 207.81 20.29 211.59 24.29" style="fill:#e0e0e0"></polygon><polygon points="211.59 32.53 37.18 32.53 39.82 28.52 207.81 28.52 211.59 32.53" style="fill:#e0e0e0"></polygon><polygon points="211.59 40.77 37.18 40.77 39.82 36.76 207.81 36.76 211.59 40.77" style="fill:#e0e0e0"></polygon><polygon points="211.59 49.01 37.18 49.01 39.82 45 207.81 45 211.59 49.01" style="fill:#e0e0e0"></polygon><polygon points="211.59 57.25 37.18 57.25 39.82 53.24 207.81 53.24 211.59 57.25" style="fill:#e0e0e0"></polygon><polygon points="211.59 65.49 37.18 65.49 39.82 61.48 207.81 61.48 211.59 65.49" style="fill:#e0e0e0"></polygon><polygon points="211.59 73.72 37.18 73.72 39.82 69.72 207.81 69.72 211.59 73.72" style="fill:#e0e0e0"></polygon><polygon points="211.59 81.96 37.18 81.96 39.82 77.96 207.81 77.96 211.59 81.96" style="fill:#e0e0e0"></polygon><polygon points="211.59 90.2 37.18 90.2 39.82 86.2 207.81 86.2 211.59 90.2" style="fill:#e0e0e0"></polygon><rect x="52.24" y="229.59" width="160.64" height="9.35" style="fill:#e0e0e0"></rect><rect x="33.06" y="229.59" width="160.64" height="9.35" style="fill:#f5f5f5"></rect></g><g id="freepik--Floor--inject-41"><path d="M450.08,471.51c0,.14-95,.26-212.07.26s-212.09-.12-212.09-.26,94.94-.26,212.09-.26S450.08,471.37,450.08,471.51Z" style="fill:#263238"></path></g><g id="freepik--Character--inject-41"><path d="M48.76,298.89H46.55a5.65,5.65,0,0,1-5.66-5.66v-17H54.42v17A5.65,5.65,0,0,1,48.76,298.89Z" style="fill:#e0e0e0"></path><path d="M48.76,298.89a9.35,9.35,0,0,0,1.89-.42,5.76,5.76,0,0,0,1.9-1.22,5.47,5.47,0,0,0,1.51-2.58,5.81,5.81,0,0,0,.18-1.75c0-.64,0-1.3,0-2,0-1.37,0-2.85,0-4.41,0-3.14,0-6.62,0-10.33l.25.25H40.89l.26-.25c0,4,0,7.74,0,11.14,0,1.69,0,3.29,0,4.79a11.13,11.13,0,0,0,.08,2.11,5.39,5.39,0,0,0,.66,1.79,5.49,5.49,0,0,0,2.38,2.21,5.59,5.59,0,0,0,2.4.57l1.6,0a2.39,2.39,0,0,1,.55.05,2.39,2.39,0,0,1-.55.05l-1.6,0a5.67,5.67,0,0,1-2.51-.51,5.77,5.77,0,0,1-2.56-2.27,5.65,5.65,0,0,1-.73-1.9,11.3,11.3,0,0,1-.12-2.18c0-1.5,0-3.1,0-4.79,0-3.4,0-7.15,0-11.14v-.26h14v.26c0,3.71,0,7.19,0,10.33,0,1.56,0,3,0,4.41,0,.69,0,1.35,0,2a6.19,6.19,0,0,1-.23,1.84,5.72,5.72,0,0,1-3.66,3.87,5.28,5.28,0,0,1-1.44.28A2.81,2.81,0,0,1,48.76,298.89Z" style="fill:#263238"></path><rect x="42.78" y="265.11" width="31.93" height="3.6" style="fill:#455a64"></rect><rect x="74.84" y="258.05" width="2.51" height="6.16" style="fill:#e0e0e0"></rect><path d="M77.35,264.21a12.9,12.9,0,0,1-.14-1.83c0-1.1-.1-2.6-.11-4.33l.25.25H74.84l.26-.26h0v.88c0,.29,0,.58,0,.87,0,.56,0,1.1,0,1.63,0,1,0,1.92-.06,2.77l-.18-.19a20.39,20.39,0,0,1,2.51.19,15.66,15.66,0,0,1-2.51.18h-.18v-.19c0-.85,0-1.77-.06-2.77,0-.53,0-1.07,0-1.63v-1.75h0l.26-.26H77.6v.25c0,1.84-.07,3.42-.12,4.5A8.79,8.79,0,0,1,77.35,264.21Z" style="fill:#263238"></path><path d="M77.19,263.32H75.45A4.45,4.45,0,0,0,71,267.77v3.09H81.64v-3.09A4.45,4.45,0,0,0,77.19,263.32Z" style="fill:#e0e0e0"></path><path d="M77.19,263.32s.07,0,.19,0a2.23,2.23,0,0,1,.56,0,4.21,4.21,0,0,1,2,.76,4.56,4.56,0,0,1,1.82,2.68,8.68,8.68,0,0,1,.13,2c0,.68,0,1.39,0,2.13v.24h-.24l-6.19,0h-4.7v-.25c0-.85,0-1.68,0-2.47a5.52,5.52,0,0,1,.33-2.3,4.61,4.61,0,0,1,2.72-2.63,6.12,6.12,0,0,1,2.48-.23,3.52,3.52,0,0,1,.89.09,3.31,3.31,0,0,1-.89.08,6.49,6.49,0,0,0-2.36.36,4.31,4.31,0,0,0-2.44,2.48,5.31,5.31,0,0,0-.26,2.15c0,.79,0,1.62,0,2.47l-.25-.25h4.45l6.19,0-.24.24c0-.74,0-1.45,0-2.13a8.78,8.78,0,0,0-.09-1.89,4.34,4.34,0,0,0-1.59-2.54,4.66,4.66,0,0,0-1.82-.84A4.81,4.81,0,0,1,77.19,263.32Z" style="fill:#263238"></path><path d="M82.15,277.13h0v-7.42H70.35v7.43h-.76A10.85,10.85,0,0,0,58.74,288V442.54H93V287.61A10.6,10.6,0,0,0,82.15,277.13Z" style="fill:#1EB2A6"></path><path d="M82,269.74a33.49,33.49,0,0,1-5.84.26,33.56,33.56,0,0,1-5.85-.26,32.42,32.42,0,0,1,5.85-.26A32.35,32.35,0,0,1,82,269.74Z" style="fill:#263238"></path><path d="M82.45,277.13a36.87,36.87,0,0,1-6.13.26,36.87,36.87,0,0,1-6.13-.26,36.87,36.87,0,0,1,6.13-.26A36.87,36.87,0,0,1,82.45,277.13Z" style="fill:#263238"></path><path d="M101.36,233.09V443h11V237.69a18.2,18.2,0,0,1,5.72-13.24l26.45-24.87L139,192l-31.66,27.59A18.2,18.2,0,0,0,101.36,233.09Z" style="fill:#e0e0e0"></path><path d="M101.36,233.09s0-.33,0-1a17.61,17.61,0,0,1,1.91-7.29,18.31,18.31,0,0,1,3.88-5.16l31.72-27.75.13-.11.11.13c1.72,2.33,3.62,4.9,5.59,7.55l.09.12-.11.11L130.5,213.08l-7.7,7.25-4,3.76a19.32,19.32,0,0,0-3.56,4.23,17.9,17.9,0,0,0-2.14,5.21,21.62,21.62,0,0,0-.49,5.76q0,5.91,0,12,0,12.25,0,25.37c0,34.93,0,74,0,115.3,0,17.49,0,34.6,0,51v.25H101.11V443c0-60.23.07-112.71.09-150.14,0-18.71.06-33.66.07-43.94,0-5.13,0-9.09,0-11.78,0-1.34,0-2.36,0-3s0-1,0-1,0,.35,0,1,0,1.71,0,3c0,2.69,0,6.65,0,11.78,0,10.28,0,25.23.07,43.94,0,37.43.06,89.91.09,150.14l-.25-.25h11l-.26.26c0-16.43,0-33.54,0-51,0-41.26,0-80.37,0-115.3q0-13.09,0-25.37,0-6.14,0-12a22.07,22.07,0,0,1,.51-5.85,18.4,18.4,0,0,1,2.2-5.33,19.46,19.46,0,0,1,3.63-4.32l4-3.75,7.71-7.23,14.22-13.35,0,.22-5.58-7.56.23,0-31.81,27.64a18.38,18.38,0,0,0-3.89,5.09,19,19,0,0,0-1.58,4.4,21.5,21.5,0,0,0-.4,2.84C101.38,232.76,101.36,233.09,101.36,233.09Z" style="fill:#263238"></path><path d="M115.15,210.93l7.93,9.45,24.09-20.95a5.94,5.94,0,0,0,.67-8.29h0a5.93,5.93,0,0,0-8.39-.73Z" style="fill:#455a64"></path><circle cx="48.13" cy="255.06" r="6.76" style="fill:#455a64"></circle><circle cx="48.13" cy="255.06" r="4.54" style="fill:#e0e0e0"></circle><path d="M52.67,255.06c-.05,0-.05-.41-.24-1.09a4.52,4.52,0,0,0-1.67-2.37,4.31,4.31,0,1,0,0,6.92,4.58,4.58,0,0,0,1.67-2.38c.19-.68.19-1.09.24-1.08s0,.1,0,.29a3.26,3.26,0,0,1-.09.84A4.53,4.53,0,0,1,51,258.81a4.71,4.71,0,0,1-4.49.73,4.76,4.76,0,0,1,0-9,4.71,4.71,0,0,1,4.49.73,4.53,4.53,0,0,1,1.63,2.62,3.26,3.26,0,0,1,.09.84C52.7,255,52.69,255.06,52.67,255.06Z" style="fill:#263238"></path><rect x="46.14" y="260.41" width="3.53" height="12.35" style="fill:#455a64"></rect><path d="M44.27,272.23H51a3.87,3.87,0,0,1,3.87,3.87v.76a0,0,0,0,1,0,0H40.39a0,0,0,0,1,0,0v-.76A3.87,3.87,0,0,1,44.27,272.23Z" style="fill:#455a64"></path><circle cx="108.89" cy="438.23" r="32.03" style="fill:#455a64"></circle><circle cx="108.89" cy="438.23" r="21.22" style="fill:#e0e0e0"></circle><path d="M115.86,437.52a7.12,7.12,0,1,1-7.12-7.11A7.12,7.12,0,0,1,115.86,437.52Z" style="fill:#263238"></path><path d="M51.67,272.13a14.08,14.08,0,0,1-3.77.26,14,14,0,0,1-3.76-.26,13.5,13.5,0,0,1,3.76-.26A13.61,13.61,0,0,1,51.67,272.13Z" style="fill:#263238"></path><path d="M82,259.62H69.76a1.57,1.57,0,0,1-1.58-1.57h0a1.58,1.58,0,0,1,1.58-1.58H82a1.58,1.58,0,0,1,1.58,1.58h0A1.57,1.57,0,0,1,82,259.62Z" style="fill:#e0e0e0"></path><path d="M82,259.62a1.89,1.89,0,0,0,1.11-.61,1.44,1.44,0,0,0,.26-1.37,1.42,1.42,0,0,0-1.45-1c-3.11,0-7.4.07-12.14.07a1.33,1.33,0,0,0-1.18.74,1.31,1.31,0,0,0,.11,1.35,1.36,1.36,0,0,0,1.23.55h1.57l5.46.06,3.68.08a7.33,7.33,0,0,1,1.35.1,6.35,6.35,0,0,1-1.35.1l-3.68.09-5.46.05H69.92a1.83,1.83,0,1,1-.16-3.66c4.74,0,9,0,12.14.08a1.73,1.73,0,0,1,1.73,1.26,1.69,1.69,0,0,1-.38,1.59,1.58,1.58,0,0,1-.91.5C82.1,259.67,82,259.64,82,259.62Z" style="fill:#263238"></path><path d="M192.56,286.6c-1.88-24.28,3.93-29.08,10.06-31.93l.53-.25c4.82-2.31,10.21-2.19,14.55-2.09,5.42.13,15.18.25,24.63.38s56.21.53,61.67.66l-.17,7.26c-5.42-.12-52.15-.53-61.6-.66s-19.24-.25-24.7-.37c-3.75-.09-8-.19-11.24,1.37l-.61.3c-3,1.39-7.53,3.49-5.88,24.77Z" style="fill:#e0e0e0"></path><rect x="287.49" y="176.82" width="87.53" height="150.87" rx="9.69" style="fill:#455a64"></rect><path d="M366.91,182.69c.17,0,.32,32.23.32,72s-.15,72-.32,72-.32-32.23-.32-72S366.73,182.69,366.91,182.69Z" style="fill:#263238"></path><path d="M201.45,280.29a3.45,3.45,0,0,1,0,.47c0,.33,0,.78,0,1.36,0,1.22.09,3,.15,5.23.11,4.57.27,11.14.47,19.24.34,16.28.8,38.72,1.32,63.5,0,2,.08,4,.11,5.81l0,1.28-.54-1.16-25.17-54-7.49-16.23c-.86-1.9-1.54-3.37-2-4.4l-.5-1.15a1.92,1.92,0,0,1-.16-.4,1.65,1.65,0,0,1,.2.37l.56,1.13,2.09,4.36,7.65,16.16c6.43,13.72,15.35,32.73,25.32,54l-.52.12c0-1.84-.07-3.82-.11-5.81-.46-24.78-.87-47.22-1.16-63.5-.13-8.11-.23-14.68-.3-19.25,0-2.25,0-4,0-5.23v-1.36A4.24,4.24,0,0,1,201.45,280.29Z" style="fill:#e0e0e0"></path><path d="M239.78,310.08a3.31,3.31,0,0,1-.29.7c-.24.49-.54,1.13-.93,1.94-.82,1.68-2,4.1-3.54,7.07-3,6-7.33,14.13-12.26,23.06s-9.58,16.91-13,22.64c-1.71,2.87-3.12,5.18-4.11,6.76l-1.15,1.82a5.2,5.2,0,0,1-.43.62,3.31,3.31,0,0,1,.34-.68l1.06-1.87,4-6.84c3.35-5.79,7.93-13.8,12.87-22.72s9.27-17.05,12.39-23l3.69-7c.43-.78.76-1.41,1-1.89A4.55,4.55,0,0,1,239.78,310.08Z" style="fill:#e0e0e0"></path><path d="M258.05,364.7c0,.14-12.37,2.8-27.69,5.92s-27.77,5.54-27.8,5.4,12.37-2.8,27.69-5.93S258,364.55,258.05,364.7Z" style="fill:#e0e0e0"></path><path d="M256.31,403.29c-.07.14-12.09-5.54-26.86-12.68s-26.68-13-26.62-13.17,12.09,5.54,26.86,12.68S256.37,403.16,256.31,403.29Z" style="fill:#e0e0e0"></path><path d="M245.41,432.26s-.19-.15-.52-.46l-1.4-1.42c-1.21-1.23-2.92-3.05-5-5.32-4.18-4.55-9.8-11-15.67-18.36s-10.87-14.31-14.36-19.41c-1.75-2.55-3.13-4.63-4.06-6.09l-1.06-1.68a2.94,2.94,0,0,1-.34-.61,3.35,3.35,0,0,1,.43.55c.29.42.67,1,1.15,1.62,1,1.47,2.45,3.5,4.19,6,3.57,5,8.61,11.91,14.47,19.29s11.43,13.83,15.53,18.44l4.89,5.44,1.32,1.48A3.88,3.88,0,0,1,245.41,432.26Z" style="fill:#e0e0e0"></path><path d="M222.51,460.25a4.58,4.58,0,0,1-.23-.86c-.13-.61-.31-1.44-.54-2.48l-2-9.15c-1.68-7.71-4.13-18.35-7.13-30s-6-22.17-8.25-29.74c-1.12-3.75-2-6.8-2.68-9L201,376.6a6.11,6.11,0,0,1-.21-.86,4.74,4.74,0,0,1,.32.82c.2.6.47,1.4.82,2.41.7,2.1,1.68,5.14,2.85,8.92,2.34,7.54,5.4,18,8.41,29.71s5.39,22.34,7,30.08c.8,3.87,1.41,7,1.8,9.19l.45,2.5A4.88,4.88,0,0,1,222.51,460.25Z" style="fill:#e0e0e0"></path><path d="M183.55,468.28a.74.74,0,0,1,0-.24l.15-.69.64-2.67c.57-2.36,1.37-5.69,2.35-9.79,2-8.27,4.51-19.74,6.95-32.48s4.28-24.35,5.51-32.76c.6-4.18,1.08-7.57,1.42-10,.17-1.14.3-2.05.39-2.71,0-.29.09-.52.12-.71s0-.24.06-.23,0,.08,0,.24,0,.42-.06.71c-.07.67-.17,1.58-.29,2.72-.26,2.37-.68,5.78-1.25,10-1.13,8.43-2.93,20.05-5.36,32.81s-5,24.21-7.11,32.47c-1,4.13-1.89,7.46-2.52,9.75-.31,1.11-.55,2-.73,2.64-.08.28-.15.5-.21.69S183.56,468.29,183.55,468.28Z" style="fill:#e0e0e0"></path><path d="M146,403.29a3.1,3.1,0,0,1,.56-.29l1.62-.75,6-2.68,19.83-8.93c7.73-3.5,14.77-6.61,19.9-8.78,2.56-1.09,4.64-1.95,6.08-2.53l1.67-.65a3.22,3.22,0,0,1,.6-.2,2.4,2.4,0,0,1-.55.3l-1.63.75-6,2.68-19.83,8.93c-7.73,3.5-14.77,6.61-19.89,8.78-2.57,1.08-4.65,1.95-6.09,2.52l-1.67.66A2.67,2.67,0,0,1,146,403.29Z" style="fill:#e0e0e0"></path><path d="M207.08,375a2.6,2.6,0,0,1-.64-.18l-1.82-.61c-1.58-.54-3.85-1.37-6.63-2.42-5.58-2.1-13.22-5.18-21.52-8.91s-15.67-7.4-20.95-10.18c-2.63-1.39-4.75-2.54-6.2-3.36l-1.67-1a3.26,3.26,0,0,1-.56-.36,2.75,2.75,0,0,1,.61.26l1.71.87,6.29,3.2c5.31,2.69,12.7,6.3,21,10s15.9,6.85,21.43,9.05l6.57,2.57,1.78.71A2.92,2.92,0,0,1,207.08,375Z" style="fill:#e0e0e0"></path><path d="M207.93,375.9c0,4.42-2.06,8-4.61,8s-4.61-3.59-4.61-8,2.07-8,4.61-8S207.93,371.49,207.93,375.9Z" style="fill:#e0e0e0"></path><path d="M160,441.21c-.12-.08,9.47-14.77,21.43-32.8s21.76-32.59,21.88-32.51-9.47,14.77-21.43,32.81S160.13,441.3,160,441.21Z" style="fill:#e0e0e0"></path><path d="M205.78,377c0,.15-13.62-.52-30.4-1.49s-30.38-1.88-30.37-2,13.62.52,30.4,1.49S205.79,376.86,205.78,377Z" style="fill:#e0e0e0"></path><path d="M250.92,342.25a2.44,2.44,0,0,1-.47.33l-1.42.85c-1.23.73-3,1.79-5.21,3.12-4.38,2.67-10.34,6.48-16.71,11s-11.92,8.95-15.86,12.23c-2,1.63-3.56,3-4.65,3.91l-1.26,1.06a2.62,2.62,0,0,1-.47.34,2.39,2.39,0,0,1,.39-.42l1.2-1.14c1-1,2.6-2.37,4.54-4,3.89-3.36,9.41-7.82,15.79-12.38s12.4-8.32,16.84-10.9c2.22-1.3,4-2.31,5.3-3l1.46-.77A2,2,0,0,1,250.92,342.25Z" style="fill:#e0e0e0"></path><path d="M205.73,472a5,5,0,0,1-.08-.91c0-.64-.06-1.51-.1-2.61-.07-2.32-.17-5.59-.3-9.6-.25-8.16-.6-19.34-1-31.69s-.85-23.53-1.14-31.68c-.14-4-.26-7.29-.34-9.61,0-1.09-.06-2-.08-2.61a4.85,4.85,0,0,1,0-.91,5.41,5.41,0,0,1,.09.91c.05.64.1,1.51.18,2.6.12,2.32.3,5.59.51,9.6.4,8.1.89,19.31,1.3,31.68s.68,23.58.82,31.7c.06,4,.1,7.29.13,9.61v2.61A7,7,0,0,1,205.73,472Z" style="fill:#e0e0e0"></path><path d="M259.34,383h-.28l-.81,0-3.13-.15c-2.73-.15-6.69-.41-11.62-.83-9.86-.82-23.62-2.31-39.12-4.83h-.1l-.06-.07-7.45-8.25-31.4-34.9-9.46-10.62c-1.1-1.24-1.95-2.22-2.56-2.91l-.65-.76a1.79,1.79,0,0,1-.21-.27s.09.07.25.23.4.43.69.73c.63.67,1.51,1.63,2.63,2.84l9.6,10.5,31.52,34.8c2.54,2.83,5,5.6,7.44,8.25l-.16-.08c15.49,2.54,29.22,4.09,39.07,5,4.93.46,8.88.78,11.6,1l3.12.24.81.08Z" style="fill:#e0e0e0"></path><path d="M183.55,284.75a7.56,7.56,0,0,1,.53,1.75c.29,1.16.7,2.88,1.2,5.1,1,4.43,2.4,10.87,4.09,18.83,3.38,15.91,7.94,37.91,12.91,62.23.13.68.27,1.35.4,2h-.53c5.6-23.71,10.65-45.08,14.31-60.56,1.84-7.7,3.34-13.93,4.38-18.27.52-2.13.93-3.79,1.21-5l.33-1.28a3.56,3.56,0,0,1,.13-.44,2.72,2.72,0,0,1-.08.45c-.06.32-.16.75-.27,1.3-.27,1.16-.64,2.83-1.12,5-1,4.35-2.44,10.59-4.21,18.31-3.62,15.48-8.61,36.87-14.15,60.6l-.29,1.2-.24-1.21c-.13-.62-.27-1.3-.4-2L189,310.5l-3.92-18.86c-.47-2.2-.84-3.92-1.1-5.12-.13-.56-.23-1-.3-1.33A4.53,4.53,0,0,0,183.55,284.75Z" style="fill:#e0e0e0"></path><path d="M147.9,375.9c0-49.71,22.29-90.57,50.81-95.27a33.43,33.43,0,0,0-5.49-.45c-31.1,0-56.31,42.86-56.31,95.72s25.21,95.73,56.31,95.73a34.56,34.56,0,0,0,5.49-.45C170.19,466.48,147.9,425.62,147.9,375.9Z" style="fill:#455a64"></path><path d="M147.9,375.9s0,.73.07,2.12c0,.71,0,1.58.06,2.6s.1,2.23.17,3.58a156.32,156.32,0,0,0,3,23.27,131,131,0,0,0,4.4,16.17,108.11,108.11,0,0,0,8,18,81.12,81.12,0,0,0,5.91,9.16,66.79,66.79,0,0,0,7.63,8.64c5.71,5.4,13.07,10,21.65,11.43l1.63.27-1.63.27a31.21,31.21,0,0,1-7,.4,35.78,35.78,0,0,1-7.07-1,41.56,41.56,0,0,1-13.28-6.28c-8.2-5.84-14.75-14.24-19.86-23.6A119.17,119.17,0,0,1,140.3,410.1a159.4,159.4,0,0,1,0-68.38,119.38,119.38,0,0,1,11.27-30.86c5.1-9.36,11.66-17.76,19.86-23.6A41.51,41.51,0,0,1,184.7,281a35.15,35.15,0,0,1,7.08-1,31.21,31.21,0,0,1,7,.4l1.63.26-1.63.28c-8.58,1.46-15.94,6-21.65,11.43a67.46,67.46,0,0,0-7.63,8.64,79.75,79.75,0,0,0-5.91,9.16,108.47,108.47,0,0,0-8,18,131.5,131.5,0,0,0-4.4,16.17,156.32,156.32,0,0,0-3,23.27c-.07,1.35-.12,2.54-.17,3.57s-.05,1.9-.06,2.6c0,1.4-.07,2.12-.07,2.12s0-.72,0-2.12c0-.7,0-1.57,0-2.6s.08-2.23.13-3.58a152.17,152.17,0,0,1,2.86-23.33,130.53,130.53,0,0,1,4.35-16.22,107.34,107.34,0,0,1,7.94-18.13,79.74,79.74,0,0,1,5.92-9.23,66.18,66.18,0,0,1,7.67-8.72c5.74-5.46,13.18-10.11,21.9-11.61v.54a30.23,30.23,0,0,0-6.87-.38,34.09,34.09,0,0,0-7,1,40.75,40.75,0,0,0-13.07,6.21c-8.09,5.77-14.6,14.11-19.66,23.42a119,119,0,0,0-11.2,30.7,159.16,159.16,0,0,0,0,68.1,119.07,119.07,0,0,0,11.19,30.7c5.07,9.3,11.57,17.64,19.66,23.41a40.7,40.7,0,0,0,13.08,6.21,33.89,33.89,0,0,0,7,1,30.23,30.23,0,0,0,6.87-.38v.54c-8.72-1.5-16.16-6.15-21.9-11.61a67.67,67.67,0,0,1-7.67-8.72,80.49,80.49,0,0,1-5.92-9.22,108.59,108.59,0,0,1-7.94-18.14,129.61,129.61,0,0,1-4.35-16.22A152.17,152.17,0,0,1,148,384.21c-.05-1.35-.09-2.55-.13-3.58s0-1.9,0-2.6C147.88,376.63,147.9,375.9,147.9,375.9Z" style="fill:#263238"></path><path d="M204.21,280.18a33.55,33.55,0,0,0-5.5.45c28.52,4.7,50.82,45.56,50.82,95.27s-22.3,90.58-50.82,95.28a34.69,34.69,0,0,0,5.5.45c31.1,0,56.31-42.86,56.31-95.73S235.31,280.18,204.21,280.18Z" style="fill:#263238"></path><path d="M155.21,394.69l1.32,31.38s-31.45,11.88-31.77,17.7l60.92-.37,0-49Z" style="fill:#1EB2A6"></path><path d="M175.35,423.31a2.5,2.5,0,0,1,1.74,2.83,2.39,2.39,0,0,1-2.79,1.75,2.62,2.62,0,0,1-1.83-3c.4-1.16,2-2.07,3.11-1.5" style="fill:#e0e0e0"></path><g style="opacity:0.6000000000000001"><path d="M185.68,443.4l-.2-4.94-58.34,2.2s-2.7,1.2-2.38,3.11Z" style="fill:#fff"></path></g><path d="M155.54,425.76c0,.3,1.5.43,3,1.38s2.25,2.19,2.53,2.07-.18-1.84-2-2.95S155.47,425.49,155.54,425.76Z" style="fill:#263238"></path><path d="M149.16,428.45c-.06.29,1.23.78,2.25,2s1.31,2.58,1.61,2.56.47-1.7-.82-3.23S149.17,428.16,149.16,428.45Z" style="fill:#263238"></path><path d="M145.58,436.12c.27.06.67-1.43-.1-3.05s-2.17-2.27-2.29-2,.74,1.11,1.35,2.46S145.28,436.09,145.58,436.12Z" style="fill:#263238"></path><path d="M156,418.58c.13.27,1.49-.15,3.17,0s3,.62,3.15.37-1.11-1.31-3.1-1.41S155.88,418.35,156,418.58Z" style="fill:#263238"></path><path d="M308,282.13l-28.49-3.87s-59.42-11.94-89.48-15.67a52,52,0,0,0-16.35.4c-11,2.22-19.74,10.6-21.2,27.34-.73,8.41-1.33,123.77-1.33,123.77l37.88-.29,10.49-102.17,41.26,13.92,60.26-.22C308.52,319.52,308,282.13,308,282.13Z" style="fill:#263238"></path><path d="M201.28,296.78a7.28,7.28,0,0,1,0,1.54c-.06,1-.18,2.42-.38,4.18-.38,3.53-1,8.38-1.78,13.73s-1.54,10.18-2.13,13.67c-.29,1.75-.54,3.16-.74,4.13a8.74,8.74,0,0,1-.35,1.5A8.22,8.22,0,0,1,196,334c.15-1.08.34-2.48.57-4.15.51-3.61,1.2-8.4,2-13.7l1.94-13.69c.22-1.68.41-3.08.55-4.16A9.91,9.91,0,0,1,201.28,296.78Z" style="fill:#455a64"></path><path d="M208.43,301.27a5.88,5.88,0,0,1-.55,2,16.24,16.24,0,0,1-6.4,7.62,5.6,5.6,0,0,1-1.88.9,28.67,28.67,0,0,0,5.27-4.56A29.08,29.08,0,0,0,208.43,301.27Z" style="fill:#455a64"></path><path d="M199.19,394.47l.73,31.39s-31.66,11.3-32.09,17.11l60.93.76.85-49Z" style="fill:#1EB2A6"></path><path d="M218.8,423.46a2.48,2.48,0,0,1,1.68,2.86,2.39,2.39,0,0,1-2.82,1.69,2.62,2.62,0,0,1-1.77-3c.42-1.14,2.06-2,3.13-1.44" style="fill:#e0e0e0"></path><g style="opacity:0.6000000000000001"><path d="M228.76,443.73l-.11-4.94-58.37,1.12s-2.73,1.15-2.45,3.06Z" style="fill:#fff"></path></g><path d="M198.94,425.54c0,.3,1.49.45,2.94,1.43s2.22,2.23,2.5,2.12-.15-1.84-1.93-3S198.88,425.27,198.94,425.54Z" style="fill:#263238"></path><path d="M192.52,428.1c-.07.29,1.21.81,2.2,2.08s1.27,2.61,1.57,2.6.51-1.69-.76-3.25S192.53,427.82,192.52,428.1Z" style="fill:#263238"></path><path d="M188.79,435.71c.27.06.71-1.42,0-3.06s-2.12-2.3-2.25-2,.72,1.12,1.31,2.48S188.5,435.67,188.79,435.71Z" style="fill:#263238"></path><path d="M199.57,418.37c.12.27,1.49-.12,3.17,0s3,.68,3.14.43-1.09-1.33-3.07-1.46S199.42,418.13,199.57,418.37Z" style="fill:#263238"></path><path d="M199.56,416.45a2.71,2.71,0,0,1,.08.66c0,.5.08,1.13.13,1.89.09,1.72.22,4.05.36,6.85V426l-.14.06c-3.62,1.45-8.19,3.32-13.11,5.41-6,2.59-11.49,4.78-15,7.14a17,17,0,0,0-3.84,3.2,5,5,0,0,0-.76,1.13c-.14.27-.18.43-.19.43a2.89,2.89,0,0,1,.79-1.68,15.68,15.68,0,0,1,3.79-3.38c3.55-2.48,9.06-4.73,15-7.32,4.93-2.09,9.52-3.93,13.17-5.32l-.13.2c-.08-2.81-.14-5.14-.18-6.86,0-.77,0-1.39,0-1.9A2.44,2.44,0,0,1,199.56,416.45Z" style="fill:#263238"></path><path d="M353.3,284.07l-28.49-3.87s-59.42-11.94-89.48-15.66a51.39,51.39,0,0,0-16.35.4c-11,2.22-14.75,15.48-16.64,23.7S196.11,418,196.11,418l35.31-.74,13.41-103.66,37.48,12h64.31C354.07,319.74,353.3,284.07,353.3,284.07Z" style="fill:#263238"></path><path d="M240.11,265.36a3.82,3.82,0,0,1-.47-.07l-1.38-.24c-1.21-.2-3-.47-5.32-.67a52.53,52.53,0,0,0-8.47-.11c-.82.07-1.67.13-2.54.28l-1.32.21-1.35.31a25.16,25.16,0,0,0-2.74.84c-.46.18-.9.41-1.36.62l-.69.32-.64.42a19,19,0,0,0-4.75,4.35,29.13,29.13,0,0,0-3.59,6,39.3,39.3,0,0,0-2.37,7.16,46.08,46.08,0,0,0-1.19,7.92c-.49,11-1,23.12-1.59,35.83-1.17,25.42-2.24,48.43-3,65.11-.41,8.31-.74,15.05-1,19.73-.13,2.31-.23,4.11-.29,5.36,0,.6-.07,1.06-.09,1.4s0,.47,0,.47,0-.16,0-.47,0-.81,0-1.4c0-1.25.11-3.06.19-5.37.19-4.68.46-11.42.8-19.73.73-16.69,1.74-39.7,2.85-65.12.58-12.71,1.13-24.82,1.64-35.84a46.86,46.86,0,0,1,1.21-8,40.93,40.93,0,0,1,2.43-7.23,29.17,29.17,0,0,1,3.68-6.11,19.3,19.3,0,0,1,4.87-4.42l.66-.42.71-.33c.47-.21.92-.44,1.39-.62a23.77,23.77,0,0,1,2.79-.83l1.37-.31,1.34-.2c.87-.14,1.73-.2,2.56-.26a50.73,50.73,0,0,1,8.51.2c2.32.24,4.11.54,5.32.77l1.37.29A4.11,4.11,0,0,1,240.11,265.36Z" style="fill:#455a64"></path><path d="M246.56,298.72a8.36,8.36,0,0,1,0,1.55c-.06,1-.19,2.42-.38,4.18-.38,3.52-1,8.37-1.79,13.72s-1.53,10.19-2.12,13.68c-.29,1.75-.55,3.16-.74,4.13a7.65,7.65,0,0,1-.36,1.5,9.58,9.58,0,0,1,.15-1.54c.15-1.08.34-2.47.57-4.15.52-3.6,1.21-8.4,2-13.69l1.94-13.7c.22-1.68.41-3.07.55-4.15A10.23,10.23,0,0,1,246.56,298.72Z" style="fill:#455a64"></path><path d="M253.71,303.21a5.68,5.68,0,0,1-.56,2,16.14,16.14,0,0,1-2.59,4.32,16.36,16.36,0,0,1-3.8,3.31,5.52,5.52,0,0,1-1.88.89,29.36,29.36,0,0,0,5.26-4.55C252.65,306.24,253.54,303.14,253.71,303.21Z" style="fill:#455a64"></path><path d="M281.86,325.34c0,.14-7.44-2.21-16.52-5.24s-16.4-5.6-16.36-5.74,7.44,2.21,16.53,5.24S281.91,325.21,281.86,325.34Z" style="fill:#455a64"></path><path d="M193.93,252.45,234,216l16-31,24.24,9.54s-24.37,40.87-28.82,44-44.14,24.73-44.14,24.73Z" style="fill:#ffbf9d"></path><path d="M195.26,251.06c-1.16.58-21.16,6.19-25.37,10.06s-12.38,14.66-12.38,14.66,1.3,2.33,3.16,1.25c4.11-2.4,9.79-10.83,9.7-10.75l-6.44,16.66s-.27,3.7,3.49,1.17,8.78-16.57,8.78-16.57l-3.15,20.15s2.74,1.82,5.49-2.25c2.6-3.86,5.2-15.08,5.2-15.08s4.48-4.08,7.66-4.16.53,12.88.53,12.88.28,4.65,3.7,4l4.22-12.56,3.28-9.79Z" style="fill:#ffbf9d"></path><path d="M353.3,284.07c-.18-4.31-2.38-14.6-9.81-40.54L330.15,150.1l-17.55-2.19h0l-29,1.24-13.24,5.54s-11.17,27.93-11.32,48.23c0,0,4.68,23.72,10,54.55l-8.64,18.41Z" style="fill:#1EB2A6"></path><path d="M329.79,150.1s8.39-1.08,16.73,9.34c7.54,9.42,10.74,43.15,10.74,43.15l-28.92,3.62S325.74,154.45,329.79,150.1Z" style="fill:#1EB2A6"></path><path d="M271.15,154.56s-7.32.52-14,11.64c-4.45,7.37-17.16,30-17.16,30L265,217Z" style="fill:#1EB2A6"></path><g style="opacity:0.30000000000000004"><path d="M265.41,266.35c15.5,3.46,31.62.43,47.21-2.6l25.8-5c2.58-.5,5.33-1.09,7.15-3,1-1.06,1.56-3,.39-3.89l-78.3,8.7Z"></path></g><path d="M322.3,167.81s-4,9.33-2.37,25.24c1.6,15.69,7.59,40.34,7.59,40.34l5.63-3.22-3.1-24.58Z" style="opacity:0.30000000000000004"></path><path d="M264.26,173.5a1.61,1.61,0,0,1-.11.48l-.4,1.36c-.4,1.17-.86,2.89-1.44,5a73.92,73.92,0,0,0-2.2,17,78.26,78.26,0,0,0,.43,9.45c.28,2.9.66,5.5,1,7.67s.67,3.94.88,5.15c.09.56.17,1,.23,1.41a1.65,1.65,0,0,1,0,.49,1.55,1.55,0,0,1-.15-.47c-.09-.38-.2-.83-.33-1.39-.27-1.2-.65-2.95-1-5.12s-.82-4.78-1.13-7.69a73,73,0,0,1-.47-9.5A68.2,68.2,0,0,1,262,180.27c.62-2.13,1.14-3.84,1.59-5l.51-1.33A2.4,2.4,0,0,1,264.26,173.5Z" style="fill:#263238"></path><path d="M331,152.33c-5.08,3.38-7.86,9.44-8.72,15.48s-.07,12.19.57,18.26S325,206.21,325,206.21l32.22-3.62" style="fill:#1EB2A6"></path><path d="M357.26,202.59a2.9,2.9,0,0,1-.61.11l-1.79.25-6.7.82-23.1,2.69-.25,0,0-.25c-.42-3.81-.86-7.91-1.32-12.15-.33-3.06-.65-6.06-1-9s-.61-5.68-.75-8.36a36.76,36.76,0,0,1,1.56-14.1,21.34,21.34,0,0,1,4.93-8.18,13.05,13.05,0,0,1,2.76-2.17s0,.06-.17.16l-.53.41a21.09,21.09,0,0,0-1.92,1.74,21.79,21.79,0,0,0-4.72,8.16,36.71,36.71,0,0,0-1.43,13.95c.15,2.66.46,5.45.77,8.34s.64,5.88,1,8.95c.45,4.24.89,8.34,1.29,12.14L325,206l23.11-2.5,6.72-.68,1.8-.16A4.81,4.81,0,0,1,357.26,202.59Z" style="fill:#263238"></path><path d="M262.71,178.14s-6.6,11.92-5.67,22.46,4.21,13.26,4.21,13.26a76.42,76.42,0,0,1-1.42-16.35A131,131,0,0,1,262.71,178.14Z" style="opacity:0.30000000000000004"></path><path d="M262.92,128.61c2.83-8.27,8.61-7.84,7.48-11.25S264,112.78,264,107.5c0-6.91,2.56-6.83,5.48-11,2.62-3.7,2.26-8.73,2.63-13.25s1.14-9.3,4.14-12.71c3.78-4.31,13.71-5.09,18.39-1.76.73,25.7,6.81,51.72,1.31,76.84A68.46,68.46,0,0,1,259.78,137C263.3,136.31,261.76,132,262.92,128.61Z" style="fill:#e0e0e0"></path><path d="M320.73,150,324,84a5.5,5.5,0,0,0-4.76-5.72l-29-8.2c-9.32-1.26-15.86,10.07-16.72,19.43-.95,10.41-1.7,23.14-.69,30.95,2,15.71,14,18,14,18,0,15.46-.33,16.61-.33,16.61L290,167.28Z" style="fill:#ffbf9d"></path><path d="M277,101.31a2,2,0,0,0,1.88,2.07,1.91,1.91,0,0,0,2.12-1.74,2,2,0,0,0-1.88-2.08A1.92,1.92,0,0,0,277,101.31Z" style="fill:#263238"></path><path d="M276.09,95c.25.26,1.8-.82,4-.75s3.71,1.19,3.95.93c.12-.11-.12-.59-.79-1.11A5.5,5.5,0,0,0,280,93a5.29,5.29,0,0,0-3.15.92C276.21,94.45,276,94.92,276.09,95Z" style="fill:#263238"></path><path d="M295.3,101.91a2,2,0,0,0,1.88,2.08,1.91,1.91,0,0,0,2.11-1.75,2,2,0,0,0-1.87-2.08A1.92,1.92,0,0,0,295.3,101.91Z" style="fill:#263238"></path><path d="M295.67,95.87c.24.27,1.79-.81,3.95-.75s3.7,1.19,3.95.94-.12-.6-.8-1.12a5.5,5.5,0,0,0-3.15-1.07,5.3,5.3,0,0,0-3.16.92C295.79,95.28,295.55,95.75,295.67,95.87Z" style="fill:#263238"></path><path d="M289,111.82a14.56,14.56,0,0,0-3.49-.73c-.55-.08-1.07-.2-1.15-.58a2.82,2.82,0,0,1,.41-1.62l1.75-4.15c2.43-5.91,4.21-10.77,4-10.87s-2.4,4.62-4.83,10.53q-.89,2.17-1.68,4.17a3.17,3.17,0,0,0-.35,2.16,1.41,1.41,0,0,0,.88.83,3.88,3.88,0,0,0,.93.15A14.41,14.41,0,0,0,289,111.82Z" style="fill:#263238"></path><path d="M286.79,137.31a39.88,39.88,0,0,0,21.1-5s-5.57,11-21.18,9.08Z" style="fill:#ff9a6c"></path><path d="M289.18,117a5.34,5.34,0,0,1,4.44-2.2,3.46,3.46,0,0,1,2.79,1.63,3.17,3.17,0,0,1-3.69,4.64,7.9,7.9,0,0,1-3.12-2,2.55,2.55,0,0,1-.66-.83,1.1,1.1,0,0,1,.12-1.09" style="fill:#ff9a6c"></path><path d="M295.31,113.49c-.35,0-.42,2.31-2.47,3.92s-4.54,1.28-4.56,1.6c0,.15.54.47,1.59.53a5.83,5.83,0,0,0,3.81-1.2,5.11,5.11,0,0,0,1.92-3.29C295.72,114.07,295.47,113.48,295.31,113.49Z" style="fill:#263238"></path><path d="M296.59,87.13c.2.59,2.36.38,4.88.75s4.55,1.13,4.9.61c.16-.24-.18-.81-1-1.4a8.59,8.59,0,0,0-7.45-1C297,86.4,296.51,86.85,296.59,87.13Z" style="fill:#e0e0e0"></path><path d="M277.07,87.63c.36.5,1.86,0,3.65.06s3.29.43,3.65-.08c.16-.24-.06-.74-.71-1.22a5.29,5.29,0,0,0-5.89,0C277.13,86.89,276.9,87.39,277.07,87.63Z" style="fill:#e0e0e0"></path><path d="M286.78,68c2.68-6.43,8.49-7,14.71-7.66s15.47,1.91,20.62,5.28c4,2.62,8.52,5.95,11.41,9.66s4,7.64,5.7,11.75c2.31,5.54,3.37,13-1,19.71-.5.77,3.83,2.32,4.82,7.55,1.61,8.48.95,10.25,3.21,18.61.82,3,1.65,6.58-2.59,8.31a9.89,9.89,0,0,1-2.47.59c-6.59.8-13,2.94-20.28,3.4h-4.52c-5.73,0-8.66-3.68-8.46-8.36.59-14.12,7.47-37.31,8.23-41.76C316.12,95.07,318.5,63.82,286.78,68Z" style="fill:#e0e0e0"></path><path d="M288.85,68.63c2,1.44,3,4,3.29,6.46s.19,5,.65,7.42a15.54,15.54,0,0,0,8.95,11.19c1.45.63,3.45.89,4.35-.42a8.58,8.58,0,0,0,5.22,8.18c2.32.93,4.92.79,7.35,1.33s5,2.22,5.12,4.71l1-17.36L319.93,74.8l-15-8.93Z" style="fill:#e0e0e0"></path><path d="M315.44,97.25A11,11,0,0,1,314,96.09a10.4,10.4,0,0,1-2.37-4.38,36,36,0,0,1-1.05-7.39,60.11,60.11,0,0,0-1.06-9.15A17.49,17.49,0,0,0,305.44,67a9.89,9.89,0,0,0-6.69-3.2,8.14,8.14,0,0,0-4.89,1.16,5.51,5.51,0,0,0-.65.47,3.46,3.46,0,0,0-.43.4,2.28,2.28,0,0,0-.32.36A10.26,10.26,0,0,1,293.92,65,8.2,8.2,0,0,1,298.74,64a9.86,9.86,0,0,1,6.5,3.18,17.28,17.28,0,0,1,4,8.07,62.87,62.87,0,0,1,1.08,9.1,34.36,34.36,0,0,0,1.12,7.43,10.24,10.24,0,0,0,2.48,4.4A5.55,5.55,0,0,0,315.44,97.25Z" style="fill:#fff"></path><path d="M328.48,95.15a8.5,8.5,0,0,1-2.3-.57,11.92,11.92,0,0,1-4.79-4.21,22.82,22.82,0,0,1-2.2-3.87,17.61,17.61,0,0,1-1.23-5c-.21-1.8-.29-3.7-.5-5.67a26.12,26.12,0,0,0-.47-3,16.43,16.43,0,0,0-1-3,16.1,16.1,0,0,0-8.39-8.08,15.26,15.26,0,0,0-9.53-.64A15.58,15.58,0,0,0,292.24,64a10.9,10.9,0,0,0-1.74,1.63l.12-.1.34-.31a5.9,5.9,0,0,1,.55-.5c.23-.18.48-.41.8-.63a15.88,15.88,0,0,1,5.82-2.72,15.12,15.12,0,0,1,9.38.7,15.87,15.87,0,0,1,8.22,7.95,16.29,16.29,0,0,1,1,2.91,25.12,25.12,0,0,1,.47,3c.21,2,.3,3.86.52,5.67a17.3,17.3,0,0,0,1.28,5,22.09,22.09,0,0,0,2.25,3.9,11.8,11.8,0,0,0,4.92,4.2,7,7,0,0,0,1.72.43l.46,0Z" style="fill:#455a64"></path><path d="M306.09,93.28s0,0,0,.15,0,.25,0,.43,0,.43.09.7.12.6.2,1a9.81,9.81,0,0,0,1,2.48,8.7,8.7,0,0,0,2.37,2.67c2.14,1.63,5.44,2.39,9,2.22a26.74,26.74,0,0,0,5.57-.86,22.85,22.85,0,0,0,5.69-2.29l.36-.21-.41-.06a22,22,0,0,1-6.54-2l-.11-.05-.09.28a20.76,20.76,0,0,0,13.52-2.43l.27-.15-.29-.1a25.65,25.65,0,0,1-8-4.06,12.87,12.87,0,0,1-4.18-5.56,13,13,0,0,1-.69-4.53c0-.52.07-.93.1-1.23,0-.13,0-.23,0-.31s0-.11,0-.11a.65.65,0,0,0,0,.1c0,.09,0,.19,0,.32,0,.29-.08.7-.14,1.22a11.81,11.81,0,0,0,4.82,10.28,25.83,25.83,0,0,0,8.08,4.15l0-.25a20.59,20.59,0,0,1-13.33,2.37l-1-.17.92.45.11,0a22,22,0,0,0,6.62,2l-.05-.27a22.71,22.71,0,0,1-5.61,2.27,27,27,0,0,1-5.52.88c-3.52.18-6.76-.55-8.88-2.13a8.52,8.52,0,0,1-2.35-2.58,10,10,0,0,1-1-2.43l-.22-.94c-.06-.27-.08-.51-.11-.7l-.07-.42Z" style="fill:#455a64"></path><path d="M338.18,136c.08,0-.87-8.37-2.12-18.66s-2.33-18.64-2.42-18.64.87,8.37,2.12,18.67S338.1,136,338.18,136Z" style="fill:#455a64"></path><path d="M329.33,138a2.49,2.49,0,0,0,.05-.35c0-.26.05-.6.09-1,.08-.88.17-2.15.26-3.72.18-3.15.34-7.5.32-12.31s-.19-9.16-.39-12.31c-.1-1.57-.2-2.84-.28-3.72,0-.42-.08-.75-.1-1a1.68,1.68,0,0,0-.06-.35,1.55,1.55,0,0,0,0,.35l0,1c.05.91.11,2.17.19,3.72.14,3.15.29,7.49.31,12.3s-.11,9.15-.24,12.3c-.07,1.54-.12,2.81-.16,3.72,0,.42,0,.76,0,1A1.18,1.18,0,0,0,329.33,138Z" style="fill:#fff"></path><path d="M306.13,100.12c.08.18-.41.56-1.1.86s-1.3.41-1.37.24.41-.56,1.1-.86S306.06,100,306.13,100.12Z" style="fill:#ff9a6c"></path><path d="M299.88,114.29c-.19,0-.34-.83-1-1.61s-1.36-1.16-1.3-1.34,1.1-.07,1.85.92S300.07,114.33,299.88,114.29Z" style="fill:#ff9a6c"></path><path d="M274.9,101.57c-.1.16-.37.18-.63.15s-.52-.15-.56-.34.25-.41.66-.34S275,101.41,274.9,101.57Z" style="fill:#ff9a6c"></path><path d="M275.27,102.85a.37.37,0,0,1-.15.48.35.35,0,1,1-.34-.6A.36.36,0,0,1,275.27,102.85Z" style="fill:#ff9a6c"></path><path d="M305.27,145.58c-.08,0-.34-.27-.41-.9a2.49,2.49,0,0,1,.15-1.1c.17-.42.34-.67.2-.87s-.53-.55-.71-1a1.93,1.93,0,0,1-.17-1.12c.1-.65.45-.92.51-.86s-.06.38,0,.88a1.89,1.89,0,0,0,.25.81c.13.28.46.44.77,1a1.09,1.09,0,0,1,0,.88c-.1.24-.21.41-.28.55a2.67,2.67,0,0,0-.24.85C305.29,145.2,305.36,145.55,305.27,145.58Z" style="fill:#ff9a6c"></path><path d="M289.14,104.84s-7.05-2.16-11,6.42c-3.73,8-4.41,8.29-4.41,12.37,0,1.17.37,17,17.28,15.19,0,0,10.44-.07,11.18-8.91.67-8,.34-7.84-.58-9.26S292,105.37,289.14,104.84Z" style="fill:#455a64"></path><path d="M300.09,121.14l38.09-14.4.83,1.16-38,14.84a.91.91,0,0,1-1.33-.49h0A.92.92,0,0,1,300.09,121.14Z" style="fill:#263238"></path><path d="M278.12,125.38c0,.28.1,6.45.1,6.45h8.46l-.16-6.45Z" style="fill:#263238"></path><path d="M286.68,131.83h-8.46s-2,.49-2.1,3.68c-.07,2.52,0,4.32,0,4.32H289l0-3.64S289.47,132.33,286.68,131.83Z" style="fill:#fff"></path><polygon points="276.17 141.63 276.17 152.03 288.96 152.03 288.96 141.63 278.42 141.63 276.17 141.63" style="fill:#fff"></polygon><polygon points="278.45 144.7 280.43 149.02 284.07 149.02 286.34 144.7 286.34 142.15 278.39 142.15 278.45 144.7" style="fill:#e0e0e0"></polygon><path d="M280.8,150.49c.07.38.59,7.3.59,7.3H283l.73-7.41Z" style="fill:#e0e0e0"></path><rect x="280.43" y="149.02" width="3.59" height="1.84" style="fill:#1EB2A6"></rect><path d="M295.63,137.94s.11-.12.33-.28a8.45,8.45,0,0,0,.93-.78,8.19,8.19,0,0,0,2.22-3.76,16.09,16.09,0,0,0,.3-6.53,25,25,0,0,0-2.28-7.72,40,40,0,0,0-4.35-6.85c-.76-1-1.52-1.9-2.24-2.75a17.46,17.46,0,0,0-2.15-2.21c-.35-.31-.7-.6-1-.87a2.69,2.69,0,0,0-1-.58,4.38,4.38,0,0,0-1.87,0,6.72,6.72,0,0,0-1.55.48s.1-.12.35-.26a4.74,4.74,0,0,1,1.16-.42,4.42,4.42,0,0,1,2-.06,2.83,2.83,0,0,1,1.1.6c.35.26.71.55,1.07.85a17.7,17.7,0,0,1,2.23,2.2c.74.85,1.52,1.76,2.3,2.75a38.57,38.57,0,0,1,4.44,6.91,24.39,24.39,0,0,1,2.28,7.89,15.75,15.75,0,0,1-.42,6.7A8,8,0,0,1,297,137a5.16,5.16,0,0,1-1,.71A1.49,1.49,0,0,1,295.63,137.94Z" style="fill:#263238"></path><path d="M288.09,125.3a59,59,0,0,1-11.07,0,59,59,0,0,1,11.07,0Z" style="fill:#263238"></path><rect x="278.24" y="131.77" width="8.44" height="7.97" style="fill:#e0e0e0"></rect><path d="M289,152a4.94,4.94,0,0,1,0-.68l0-1.88c0-1.67-.06-4-.09-6.8,0-1.43,0-3-.05-4.66,0-.84,0-1.71,0-2.6a5.05,5.05,0,0,0-.09-1.3,2.67,2.67,0,0,0-.59-1.13,2.86,2.86,0,0,0-2.45-.9h-6.19a2.63,2.63,0,0,0-3,2.35c0,.38,0,.86,0,1.29v2.58c0,1.71,0,3.36,0,5,0,3.19,0,6.14,0,8.76l-.21-.21,9.25.11L288,152c.61,0,.93,0,.95,0a5.33,5.33,0,0,1-.86.05l-2.55,0-9.38.11H276V152c0-2.62,0-5.57,0-8.76,0-1.6,0-3.25,0-5v-2.58c0-.45,0-.85,0-1.35a3.14,3.14,0,0,1,1.8-2.51,3.46,3.46,0,0,1,1.68-.29h6.19a3.31,3.31,0,0,1,2.81,1.08,3.15,3.15,0,0,1,.69,1.33,5.91,5.91,0,0,1,.09,1.43c0,.9,0,1.79,0,2.64,0,1.69,0,3.28,0,4.73,0,2.82-.07,5.13-.09,6.8,0,.75,0,1.35,0,1.82A5.23,5.23,0,0,1,289,152Z" style="fill:#263238"></path><rect x="274.78" y="139.02" width="15.23" height="3.42" style="fill:#1EB2A6"></rect><polygon points="269.98 119.55 273.79 121.32 274.45 119.32 270.14 117.32 269.98 119.55" style="fill:#263238"></polygon><rect x="252.28" y="372.17" width="110.8" height="7.27" style="fill:#263238"></rect><rect x="280.62" y="331.51" width="7.27" height="104.88" style="fill:#e0e0e0"></rect><path d="M240.81,325.56H371.46a3.56,3.56,0,0,1,3.56,3.56v8.05a3.56,3.56,0,0,1-3.56,3.56H240.81a6.34,6.34,0,0,1-6.34-6.34V331.9A6.34,6.34,0,0,1,240.81,325.56Z" style="fill:#e0e0e0"></path><path d="M228.41,454.08l-6.85-2.42,31.78-90.32a10.4,10.4,0,0,1,10.09-7.15h22.38v7.27H263.27a3.07,3.07,0,0,0-3,2.13l0,.11Z" style="fill:#e0e0e0"></path><polygon points="360.7 333.92 353.82 333.92 354.58 267.89 360.7 267.89 360.7 333.92" style="fill:#e0e0e0"></polygon><rect x="339.85" y="340.72" width="7.27" height="52.46" style="fill:#263238"></rect><path d="M274.83,415.76a28.32,28.32,0,1,0,28.32,28.32A28.32,28.32,0,0,0,274.83,415.76Zm0,45.33a17,17,0,1,1,17-17A17,17,0,0,1,274.83,461.09Z" style="fill:#455a64"></path><path d="M274.8,462.65a18.42,18.42,0,1,1,18.39-20h0a18.43,18.43,0,0,1-16.82,19.9C275.85,462.63,275.32,462.65,274.8,462.65Zm0-33.73q-.64,0-1.29.06a15.31,15.31,0,1,0,16.53,14h0A15.32,15.32,0,0,0,274.84,428.92Z" style="fill:#e0e0e0"></path><rect x="273.04" y="427.41" width="3.12" height="34" transform="matrix(0.55, -0.84, 0.84, 0.55, -247.6, 429.83)" style="fill:#e0e0e0"></rect><path d="M264.51,457.76l-2.33-2.07L273.39,443c2.8-3.17,5.61-6.33,7.72-8.7,1.05-1.19,1.94-2.18,2.56-2.87,1.2-1.34,1.86-2.08,3-1.33l-1.74,2.57.89-1.27,1.08,1.11C286.23,433.22,273.14,448,264.51,457.76Z" style="fill:#e0e0e0"></path><rect x="272.93" y="428.14" width="3.12" height="32.98" transform="translate(-45.75 31.73) rotate(-6.11)" style="fill:#e0e0e0"></rect><rect x="257.97" y="442.67" width="33.73" height="3.12" transform="translate(-36.19 24.54) rotate(-4.8)" style="fill:#e0e0e0"></rect><path d="M259.5,416.74l15.14,26.63,29.56-4.62S300.08,403.36,259.5,416.74Z" style="fill:#263238"></path><rect x="118.58" y="443.37" width="80.49" height="11.01" style="fill:#455a64"></rect><rect x="167.07" y="443.37" width="62.67" height="11.01" style="fill:#263238"></rect><path d="M249,330.35h-8.21V285.61a23.5,23.5,0,0,1,23.47-23.46H365.61v8.21H264.24A15.27,15.27,0,0,0,249,285.61Z" style="fill:#e0e0e0"></path><path d="M360,279.53a3.39,3.39,0,0,1,0,.46c0,.33,0,.78,0,1.36,0,1.23.09,3,.16,5.23.11,4.58.26,11.14.46,19.25.34,16.27.8,38.71,1.32,63.5,0,2,.08,4,.11,5.81l0,1.27-.54-1.16c-9.91-21.27-18.77-40.31-25.17-54.05L329,305c-.86-1.9-1.54-3.38-2-4.41l-.5-1.15a1.7,1.7,0,0,1-.16-.4,2.5,2.5,0,0,1,.2.38c.14.27.32.65.56,1.13l2.09,4.36,7.65,16.16c6.43,13.72,15.35,32.73,25.32,54l-.52.12c0-1.85-.07-3.82-.11-5.81-.45-24.79-.87-47.23-1.16-63.5-.13-8.11-.23-14.68-.29-19.25,0-2.25,0-4-.06-5.24V280A4.13,4.13,0,0,1,360,279.53Z" style="fill:#e0e0e0"></path><path d="M398.33,309.32a3.15,3.15,0,0,1-.29.69c-.24.49-.54,1.14-.93,1.94-.81,1.68-2,4.1-3.54,7.08-3,6-7.33,14.13-12.26,23.05s-9.58,16.91-13,22.64c-1.71,2.87-3.12,5.18-4.11,6.77-.47.75-.86,1.35-1.15,1.82a3.12,3.12,0,0,1-.43.61,3.43,3.43,0,0,1,.34-.67l1.06-1.87,4-6.85c3.35-5.78,7.93-13.79,12.87-22.71s9.27-17.06,12.39-23l3.69-7c.43-.79.77-1.42,1-1.9A4.35,4.35,0,0,1,398.33,309.32Z" style="fill:#e0e0e0"></path><path d="M416.6,363.93c0,.15-12.37,2.8-27.69,5.93s-27.77,5.54-27.8,5.39,12.37-2.8,27.69-5.92S416.57,363.79,416.6,363.93Z" style="fill:#e0e0e0"></path><path d="M414.86,402.53c-.07.13-12.09-5.55-26.86-12.68s-26.68-13-26.62-13.17,12.09,5.54,26.86,12.68S414.92,402.39,414.86,402.53Z" style="fill:#e0e0e0"></path><path d="M404,431.5a3.41,3.41,0,0,1-.52-.47l-1.4-1.41c-1.21-1.24-2.92-3.05-5-5.33-4.18-4.55-9.8-11-15.67-18.36S370.49,391.62,367,386.52c-1.75-2.54-3.13-4.63-4.06-6.08l-1.06-1.68a3.73,3.73,0,0,1-.34-.61,3.35,3.35,0,0,1,.43.55c.3.41.68.95,1.15,1.62l4.19,6c3.57,5,8.61,11.91,14.47,19.28s11.43,13.84,15.53,18.44l4.89,5.44,1.32,1.49A3.88,3.88,0,0,1,404,431.5Z" style="fill:#e0e0e0"></path><path d="M381.06,459.49a4.92,4.92,0,0,1-.23-.86q-.19-.93-.54-2.49c-.48-2.21-1.15-5.32-2-9.14-1.69-7.72-4.14-18.35-7.14-30s-6-22.16-8.25-29.74l-2.68-9c-.31-1-.55-1.83-.72-2.44a5.27,5.27,0,0,1-.22-.86,5.16,5.16,0,0,1,.32.83c.2.6.47,1.4.82,2.41.7,2.09,1.68,5.14,2.85,8.91,2.34,7.55,5.4,18,8.41,29.72s5.39,22.34,7,30.08c.8,3.87,1.41,7,1.81,9.18.18,1,.33,1.89.44,2.51A4.68,4.68,0,0,1,381.06,459.49Z" style="fill:#e0e0e0"></path><path d="M342.1,467.52a.72.72,0,0,1,0-.24l.15-.7c.16-.65.37-1.54.64-2.66.57-2.36,1.37-5.7,2.35-9.79,2-8.28,4.51-19.75,7-32.49s4.28-24.34,5.51-32.76c.6-4.17,1.08-7.56,1.42-10,.17-1.14.3-2,.39-2.71,0-.28.09-.51.12-.7a.81.81,0,0,1,.06-.24,1.17,1.17,0,0,1,0,.25c0,.19,0,.42-.06.71-.07.66-.17,1.57-.29,2.72-.26,2.36-.68,5.78-1.25,10-1.13,8.43-2.93,20.05-5.36,32.8s-5.05,24.22-7.1,32.48c-1,4.12-1.89,7.46-2.53,9.75-.31,1.11-.55,2-.73,2.64-.08.27-.15.5-.21.68A.74.74,0,0,1,342.1,467.52Z" style="fill:#e0e0e0"></path><path d="M304.59,402.53a3.11,3.11,0,0,1,.56-.3l1.63-.74,6-2.69,19.83-8.92c7.73-3.51,14.77-6.62,19.9-8.79,2.56-1.08,4.64-1.94,6.09-2.52l1.66-.66a2.67,2.67,0,0,1,.6-.19,2.21,2.21,0,0,1-.55.29l-1.63.75-6,2.69-19.83,8.92c-7.73,3.51-14.77,6.61-19.89,8.78-2.57,1.09-4.65,2-6.09,2.53l-1.67.65A2.47,2.47,0,0,1,304.59,402.53Z" style="fill:#e0e0e0"></path><path d="M365.63,374.19A3.36,3.36,0,0,1,365,374l-1.82-.62c-1.58-.54-3.85-1.36-6.63-2.41-5.58-2.1-13.22-5.18-21.52-8.91s-15.67-7.41-20.95-10.19c-2.63-1.38-4.75-2.53-6.2-3.35l-1.67-.95a2.87,2.87,0,0,1-.56-.37,3,3,0,0,1,.61.27l1.72.86,6.28,3.2c5.31,2.69,12.7,6.31,21,10s15.9,6.85,21.43,9l6.57,2.58,1.78.71A2.39,2.39,0,0,1,365.63,374.19Z" style="fill:#e0e0e0"></path><path d="M366.48,375.14c0,4.42-2.06,8-4.61,8s-4.61-3.58-4.61-8,2.07-8,4.61-8S366.48,370.72,366.48,375.14Z" style="fill:#e0e0e0"></path><path d="M318.56,440.45c-.12-.08,9.47-14.77,21.43-32.8s21.76-32.59,21.88-32.51S352.4,389.91,340.44,408,318.68,440.53,318.56,440.45Z" style="fill:#e0e0e0"></path><path d="M364.33,376.25c0,.15-13.62-.52-30.4-1.5s-30.38-1.88-30.37-2,13.62.52,30.4,1.5S364.34,376.1,364.33,376.25Z" style="fill:#e0e0e0"></path><path d="M409.47,341.48a2,2,0,0,1-.47.33l-1.42.86c-1.23.72-3,1.79-5.2,3.12-4.38,2.66-10.35,6.48-16.72,11S373.74,365.76,369.8,369c-2,1.64-3.56,3-4.65,3.91L363.89,374a3.2,3.2,0,0,1-.47.35,2.57,2.57,0,0,1,.4-.43l1.2-1.13c1-1,2.59-2.37,4.53-4.05,3.89-3.35,9.42-7.82,15.8-12.37s12.39-8.33,16.83-10.91c2.22-1.29,4-2.31,5.3-3l1.47-.76A3.31,3.31,0,0,1,409.47,341.48Z" style="fill:#e0e0e0"></path><path d="M364.28,471.25a5.12,5.12,0,0,1-.08-.91c0-.65-.06-1.52-.1-2.61-.07-2.32-.17-5.59-.3-9.61-.25-8.15-.6-19.33-1-31.68s-.85-23.54-1.14-31.69c-.14-4-.26-7.28-.34-9.6,0-1.1-.06-2-.07-2.61a5.71,5.71,0,0,1,0-.91,5.17,5.17,0,0,1,.09.9c.05.65.1,1.52.18,2.61.12,2.32.3,5.58.51,9.6.41,8.1.89,19.3,1.3,31.68s.68,23.58.82,31.69c.06,4,.1,7.29.13,9.61v2.62A7.18,7.18,0,0,1,364.28,471.25Z" style="fill:#e0e0e0"></path><path d="M417.89,382.24h-.28l-.81,0-3.13-.16c-2.73-.15-6.69-.41-11.62-.82-9.86-.82-23.62-2.31-39.12-4.83l-.09,0-.07-.07-7.44-8.24c-12.26-13.62-23.35-25.95-31.4-34.91-4-4.46-7.21-8.08-9.47-10.62l-2.56-2.9c-.27-.32-.49-.57-.65-.77s-.22-.26-.21-.27l.25.24c.18.18.4.42.69.73l2.63,2.83,9.6,10.51,31.52,34.8,7.44,8.25-.16-.09c15.49,2.54,29.23,4.1,39.07,5,4.93.46,8.88.77,11.6,1l3.12.25.81.07A1,1,0,0,1,417.89,382.24Z" style="fill:#e0e0e0"></path><path d="M342.1,284a7.56,7.56,0,0,1,.53,1.75c.29,1.16.7,2.88,1.2,5.1,1,4.44,2.4,10.87,4.09,18.83,3.38,15.91,7.94,37.92,12.91,62.24.13.67.27,1.34.4,2h-.53c5.6-23.71,10.65-45.09,14.31-60.56,1.84-7.7,3.34-13.94,4.38-18.27.52-2.13.93-3.79,1.21-4.95l.33-1.29a3,3,0,0,1,.13-.43,3.17,3.17,0,0,1-.08.45c-.06.31-.16.74-.27,1.29-.26,1.17-.64,2.84-1.12,5-1,4.34-2.44,10.59-4.21,18.3-3.62,15.49-8.61,36.87-14.15,60.6l-.28,1.21L360.7,374c-.13-.62-.27-1.29-.4-2l-12.76-62.27c-1.65-7.95-3-14.38-3.92-18.86-.47-2.21-.84-3.93-1.1-5.12l-.3-1.33C342.15,284.13,342.1,284,342.1,284Z" style="fill:#e0e0e0"></path><path d="M306.45,375.14c0-49.72,22.29-90.58,50.81-95.27a33.43,33.43,0,0,0-5.49-.46c-31.1,0-56.31,42.86-56.31,95.73s25.21,95.73,56.31,95.73a33.43,33.43,0,0,0,5.49-.46C328.74,465.72,306.45,424.86,306.45,375.14Z" style="fill:#455a64"></path><path d="M362.76,279.41a33.55,33.55,0,0,0-5.5.46c28.52,4.69,50.82,45.55,50.82,95.27s-22.3,90.58-50.82,95.27a33.55,33.55,0,0,0,5.5.46c31.1,0,56.31-42.86,56.31-95.73S393.86,279.41,362.76,279.41Z" style="fill:#263238"></path><path d="M357.26,470.26c-28.3,0-51.33-42.9-51.33-95.63,0-24.37,6-48.16,16.78-67,9.92-17.25,22.71-27.81,34.22-28.25,6.57-.24,13.83,3.24,21,10.1,8.4,8.08,16,20.36,21.48,34.57a142.51,142.51,0,0,1,9.23,50.56C408.6,427.36,385.57,470.26,357.26,470.26Zm.34-189.83H357c-11.15.43-23.62,10.79-33.36,27.73C312.88,326.83,307,350.43,307,374.63c0,52.16,22.56,94.59,50.29,94.59s50.3-42.43,50.3-94.59c0-27.44-9.4-64.18-30.39-84.38C370.48,283.81,363.73,280.43,357.6,280.43Z" style="fill:#263238"></path><path d="M354.16,203l0,38a18.32,18.32,0,0,1-18,16.77l-66.61,4.34-3.24-15.48,64.94-17.09-2.7-23.53Z" style="fill:#ffbf9d"></path><path d="M339.17,239.58a7.5,7.5,0,0,1-.78-1.8,19.2,19.2,0,0,0-2.11-4.12,11.14,11.14,0,0,0-3.35-3.1c-1-.6-1.72-.88-1.68-1a4.27,4.27,0,0,1,1.9.59,9.62,9.62,0,0,1,3.66,3.12,14.44,14.44,0,0,1,2,4.34A5.25,5.25,0,0,1,339.17,239.58Z" style="fill:#ff9a6c"></path><path d="M266.31,246.67,243.87,257,234,277.61l.44,14.88h0a5.77,5.77,0,0,0,3.79-4.78l.87-7.81.82,12.59s3.89-.59,4.92-3.71,1.72-10.92,1.72-10.92l7.13-8.55s9.36-1.07,12.59-4.12,5.72-5.07,5.72-5.07l-5.72-13" style="fill:#ffbf9d"></path><path d="M103,399.07c-.5,0-20.17.3-20.67.28-18.52-.8-33.06-11.34-33.25-25.88-.08-6.69,0-74,0-74.59l1.22,0c0,.62-.09,67.88,0,74.56.17,13.84,13.18,23.07,32.13,24.68.52.05,19.68-.22,20.19-.22,10.57,0,31-10.07,32.68-19.12.64-3.48,1.35-9.9,2.25-18,3.53-31.94,7-85.35,21.87-94.19,8.62-5.12,28.49-7.28,46.9-9.5,17.1-2.07,34.78-4.21,44.8-8.94,4.29-2,18.42-9.35,20.34-18.69,1.21-5.87,10.06-70.86,10.15-71.52l1.23,0c-.36,2.69-9,65.9-10.19,71.82-2,9.61-15.35,16.87-21,19.54-10.2,4.81-28,7-45.17,9-18.29,2.21-38,4.36-46.43,9.34-14.38,8.54-18,63.65-21.28,93.28-.9,8.16-1.62,14.61-2.26,18.13-1,5.66-7.87,10.7-13.78,14.2C118.36,395.78,107.55,399.07,103,399.07Z" style="fill:#e0e0e0"></path><path d="M103,399.07l.43,0c.29,0,.72-.05,1.28-.11a43,43,0,0,0,5-1,71.65,71.65,0,0,0,7.87-2.46,37.27,37.27,0,0,0,4.81-2.15c1.63-.94,3.34-2,5.07-3.26a36.52,36.52,0,0,0,5.13-4.38,14.21,14.21,0,0,0,3.76-6.31c.52-2.54.81-5.27,1.17-8.09s.65-5.76,1-8.81c1.36-12.2,2.52-26.2,4.5-41.73,1-7.76,2.2-15.91,4-24.33a129.82,129.82,0,0,1,3.31-12.77A45.83,45.83,0,0,1,156,271.21c.35-.47.74-.91,1.12-1.37a16.78,16.78,0,0,1,1.27-1.26,17.33,17.33,0,0,1,1.44-1.07c.51-.3,1-.57,1.58-.85a45,45,0,0,1,6.78-2.49,134,134,0,0,1,14.48-3c9.9-1.56,20.2-2.65,30.77-4,5.28-.67,10.64-1.37,16-2.28a121.14,121.14,0,0,0,16.2-3.66,46.83,46.83,0,0,0,7.81-3.21,66,66,0,0,0,7.37-4.36,41.73,41.73,0,0,0,6.63-5.54,18.75,18.75,0,0,0,4.56-7.31l.3-1c.09-.35.13-.73.2-1.09.14-.72.25-1.45.36-2.18.23-1.47.45-2.94.68-4.41q.64-4.43,1.29-8.9,1.26-9,2.55-18.1,2.52-18.3,5.14-37.28l.25.28-1.23,0,.24-.21c-3,21.6-6,44.09-9.43,67.2-.23,1.44-.45,2.89-.72,4.34a14.36,14.36,0,0,1-1.68,4.14,26.89,26.89,0,0,1-5.89,6.65,53.19,53.19,0,0,1-7.34,5.11,56.85,56.85,0,0,1-8,4,96.2,96.2,0,0,1-17.52,4.47c-6,1.05-12,1.85-18.06,2.61-8.52,1.07-17,2-25.38,3.17-4.19.59-8.36,1.24-12.48,2.07A76,76,0,0,0,163.23,265a19,19,0,0,0-5.35,3,18.67,18.67,0,0,0-3.82,4.78,52.47,52.47,0,0,0-4.8,11.32A173.94,173.94,0,0,0,144,308c-2.55,16-4,31.78-5.59,47.24q-.65,5.79-1.27,11.53c-.44,3.82-.85,7.62-1.46,11.38a10.78,10.78,0,0,1-2.32,5.24,24.72,24.72,0,0,1-4,4,49.23,49.23,0,0,1-9.53,5.94,55.32,55.32,0,0,1-10.39,3.86,31.28,31.28,0,0,1-5.43.92c-1.85.1-3.64.06-5.46.1l-10.77.11-5.32.06c-1.77-.2-3.53-.35-5.26-.69-6.92-1.15-13.69-3.59-19-8a22.4,22.4,0,0,1-6.23-8,13.49,13.49,0,0,1-.9-2.36,14.58,14.58,0,0,1-.59-2.45,14.73,14.73,0,0,1-.29-2.48c-.08-.84-.07-1.66-.07-2.48,0-26.32,0-50.79,0-73.06l.18.18-1.21,0,.18-.18c0,21.94,0,41.76,0,59.15q0,6.53,0,12.59c0,1,0,2,0,3s.1,2,.27,2.91a21.21,21.21,0,0,0,1.63,5.41,24.83,24.83,0,0,0,6.4,8.37,31.75,31.75,0,0,0,8.13,5.12,40.33,40.33,0,0,0,8.18,2.7c.66.14,1.3.3,2,.42l1.91.28c1.24.22,2.46.27,3.63.37a29.76,29.76,0,0,0,3.39.05l3.11,0,5.39-.06,7.31-.08H103l-2.49.06-7.3.12-5.39.09-3.12.05a29.73,29.73,0,0,1-3.39,0c-1.17-.1-2.4-.14-3.65-.36l-1.91-.28c-.65-.11-1.3-.27-2-.41a40.55,40.55,0,0,1-8.22-2.68,32.36,32.36,0,0,1-8.2-5.14A25,25,0,0,1,50.88,382a21.58,21.58,0,0,1-1.66-5.47c-.18-1-.18-1.95-.28-2.94s0-2,0-3q0-6.06,0-12.58c0-17.4,0-37.23,0-59.17v-.18h.18l1.22,0h.18v.19c0,22.27,0,46.73,0,73,0,.82,0,1.65.07,2.46a15.32,15.32,0,0,0,.28,2.44,14.14,14.14,0,0,0,.59,2.39,12.64,12.64,0,0,0,.88,2.31,22.1,22.1,0,0,0,6.11,7.82c5.24,4.3,11.94,6.72,18.81,7.86,1.71.34,3.47.48,5.22.68l5.31-.06,10.75-.12c1.8,0,3.63,0,5.42-.1a31.55,31.55,0,0,0,5.34-.91,54.63,54.63,0,0,0,10.3-3.83A49.14,49.14,0,0,0,129,387a25.38,25.38,0,0,0,3.94-3.95,10.46,10.46,0,0,0,2.22-5c.6-3.74,1-7.54,1.45-11.36s.84-7.66,1.26-11.52c1.61-15.46,3-31.29,5.59-47.27A176,176,0,0,1,148.76,284a53.89,53.89,0,0,1,4.86-11.43,19.27,19.27,0,0,1,3.92-4.9,19.67,19.67,0,0,1,5.5-3.1,77,77,0,0,1,12.16-3.32c4.13-.83,8.31-1.48,12.51-2.07C196.1,258,204.58,257,213.09,256c6.06-.75,12.09-1.56,18-2.6a96.51,96.51,0,0,0,17.42-4.44,56.42,56.42,0,0,0,8-4,52.53,52.53,0,0,0,7.26-5,26.58,26.58,0,0,0,5.79-6.52,14.19,14.19,0,0,0,1.62-4c.26-1.43.48-2.88.71-4.32,3.43-23.09,6.47-45.59,9.44-67.19l0-.21h.21l1.23,0h.3l0,.3q-2.61,19-5.14,37.27-1.31,9.15-2.56,18.1-.66,4.49-1.3,8.91c-.23,1.47-.46,2.94-.68,4.41-.12.74-.23,1.47-.36,2.2-.08.37-.12.73-.22,1.1l-.3,1.08a19.24,19.24,0,0,1-4.68,7.49,41.56,41.56,0,0,1-6.7,5.6,66.22,66.22,0,0,1-7.42,4.38,46.29,46.29,0,0,1-7.88,3.23,122.91,122.91,0,0,1-16.27,3.68c-5.41.9-10.77,1.6-16.06,2.26-10.58,1.33-20.87,2.41-30.76,3.95a135.16,135.16,0,0,0-14.44,3,43.63,43.63,0,0,0-6.71,2.45,13.15,13.15,0,0,0-5.28,4.43,45.7,45.7,0,0,0-5.75,12.34,128.38,128.38,0,0,0-3.31,12.73c-1.78,8.41-3,16.55-4,24.3-2,15.51-3.19,29.52-4.58,41.72-.35,3.05-.69,6-1,8.81s-.66,5.54-1.19,8.11a14.32,14.32,0,0,1-3.83,6.39,36.05,36.05,0,0,1-5.16,4.38,57.4,57.4,0,0,1-5.1,3.26,36.86,36.86,0,0,1-4.84,2.14,71.5,71.5,0,0,1-7.89,2.43,41.05,41.05,0,0,1-5,.93c-.57.06-1,.09-1.28.09Z" style="fill:#263238"></path></g></svg>