<svg xmlns="http://www.w3.org/2000/svg" viewBox="0 0 500 500"><g id="freepik--background-complete--inject-51"><path d="M238.4,337.8H45.3a5.71,5.71,0,0,1-5.71-5.71V60.66A5.71,5.71,0,0,1,45.3,55H238.4a5.71,5.71,0,0,1,5.71,5.71V332.09A5.71,5.71,0,0,1,238.4,337.8ZM45.3,55.2a5.47,5.47,0,0,0-5.46,5.46V332.09a5.47,5.47,0,0,0,5.46,5.46H238.4a5.47,5.47,0,0,0,5.46-5.46V60.66a5.47,5.47,0,0,0-5.46-5.46Z" style="fill:#ebebeb"></path><path d="M454.7,337.8H261.6a5.71,5.71,0,0,1-5.71-5.71V60.66A5.71,5.71,0,0,1,261.6,55H454.7a5.71,5.71,0,0,1,5.71,5.71V332.09A5.71,5.71,0,0,1,454.7,337.8ZM261.6,55.2a5.47,5.47,0,0,0-5.46,5.46V332.09a5.47,5.47,0,0,0,5.46,5.46H454.7a5.47,5.47,0,0,0,5.46-5.46V60.66a5.47,5.47,0,0,0-5.46-5.46Z" style="fill:#ebebeb"></path><rect x="416.78" y="398.49" width="33.12" height="0.25" style="fill:#ebebeb"></rect><rect x="322.53" y="401.21" width="8.69" height="0.25" style="fill:#ebebeb"></rect><rect x="396.59" y="389.21" width="19.19" height="0.25" style="fill:#ebebeb"></rect><rect x="52.46" y="390.89" width="43.19" height="0.25" style="fill:#ebebeb"></rect><rect x="104.56" y="390.89" width="6.33" height="0.25" style="fill:#ebebeb"></rect><rect x="131.47" y="395.11" width="93.68" height="0.25" style="fill:#ebebeb"></rect><rect y="382.4" width="500" height="0.25" style="fill:#ebebeb"></rect><path d="M435.78,382.26h2.32v0Z" style="fill:#f5f5f5"></path><path d="M423.69,382.29l12.09,0c-4,.05-8.22.16-12.09.18Z" style="fill:#f5f5f5"></path><rect x="54.4" y="312.11" width="391.91" height="10.97" rx="2.98" style="fill:#e0e0e0"></rect><rect x="432.56" y="81.27" width="2.42" height="230.75" style="fill:#e0e0e0"></rect><rect x="75.53" y="91.38" width="1.99" height="207.64" style="fill:#e0e0e0"></rect><rect x="65.74" y="81.36" width="366.78" height="230.75" style="fill:#fafafa"></rect><rect x="77.24" y="93.58" width="346.24" height="207.64" style="fill:#e0e0e0"></rect><path d="M271.87,231.88c-5.18,0-10.24-3.16-15.21-8.12h15.21a.68.68,0,0,0,0-1.36H255.33l-.5-.54v-1.23a.67.67,0,0,0-.68-.68.68.68,0,0,0-.64.44c-5.9-6.76-11.67-15.69-17.35-24.48-11.62-18-23.65-36.58-36.85-36.58l-.5,0V130l4.31,6.62a.68.68,0,0,0,.57.31.7.7,0,0,0,.37-.11.68.68,0,0,0,.2-.95l-5.56-8.55a.7.7,0,0,0-1.14,0L192,135.84a.68.68,0,0,0,.2.95.7.7,0,0,0,1-.2l4.3-6.62v29.49c-12.47,1.64-23.91,19.32-35,36.45-6.26,9.69-12.63,19.54-19.17,26.49H131.07v-1.77a.69.69,0,0,0-1.37,0v1.77h-5.3a.68.68,0,1,0,0,1.36h5.3v2.81a.69.69,0,1,0,1.37,0v-2.81H142c-5,5-10,8.12-15.21,8.12a.67.67,0,0,0-.68.68.68.68,0,0,0,.68.69c5.91,0,11.59-3.75,17.1-9.49h1.31v2.81a.69.69,0,1,0,1.37,0v-2.81h14.1v2.81a.69.69,0,1,0,1.37,0v-2.81h14.1v2.81a.69.69,0,1,0,1.37,0v-2.81h14.1v2.81a.69.69,0,1,0,1.37,0v-2.81h4.5V240.3a.68.68,0,0,0,1.36,0V223.76h8.25v2.81a.68.68,0,1,0,1.36,0v-2.81h14.11v2.81a.68.68,0,1,0,1.36,0v-2.81H238v2.81a.68.68,0,1,0,1.36,0v-2.81h14.11v2.81a.68.68,0,1,0,1.36,0v-2.73c5.49,5.7,11.15,9.41,17,9.41a.69.69,0,0,0,.68-.69A.68.68,0,0,0,271.87,231.88ZM145.14,222.4l0,0v0Zm47.81,0v-1.77a.69.69,0,0,0-1.37,0v1.77h-14.1v-1.77a.69.69,0,0,0-1.37,0v1.77H162v-1.77a.69.69,0,0,0-1.37,0v1.77h-14.1v-1.59c5.84-6.78,11.5-15.54,17.07-24.15,10.86-16.8,22.07-34.13,33.84-35.82V222.4Zm46.41,0v-1.77a.68.68,0,0,0-1.36,0v1.77H223.89v-1.77a.65.65,0,0,0-.3-.55.8.8,0,0,0,.37-.18l12.25-12.26a.68.68,0,1,0-1-1L223,218.93a.68.68,0,0,0,0,1,1.05,1.05,0,0,0,.11.07.66.66,0,0,0-.57.66v1.77H208.42v-1.77a.68.68,0,0,0-1.36,0v1.77h-8.25V160.72l.5,0c12.46,0,24.28,18.29,35.71,36,6,9.29,12.12,18.74,18.45,25.71v0Z" style="fill:#fff"></path><path d="M173.8,160.69h4.92a.68.68,0,0,0,0-1.36H173.8a.68.68,0,1,0,0,1.36Z" style="fill:#fff"></path><path d="M184.36,160.69h4.91a.68.68,0,1,0,0-1.36h-4.91a.68.68,0,1,0,0,1.36Z" style="fill:#fff"></path><path d="M163,160.69h5.51a.68.68,0,0,0,0-1.36H163a.68.68,0,1,0,0,1.36Z" style="fill:#fff"></path><path d="M150.52,160.69H157a.68.68,0,0,0,0-1.36h-6.49a.68.68,0,1,0,0,1.36Z" style="fill:#fff"></path><path d="M140.86,160.69H145a.68.68,0,0,0,0-1.36h-4.17a.68.68,0,1,0,0,1.36Z" style="fill:#fff"></path><path d="M140.86,170.9a.68.68,0,0,0,.69-.68v-5.47a.69.69,0,0,0-1.37,0v5.47A.68.68,0,0,0,140.86,170.9Z" style="fill:#fff"></path><path d="M140.86,187a.69.69,0,0,0,.69-.69V178a.69.69,0,0,0-1.37,0v8.34A.69.69,0,0,0,140.86,187Z" style="fill:#fff"></path><path d="M140.86,203.61a.68.68,0,0,0,.69-.68V195a.69.69,0,0,0-1.37,0v7.94A.68.68,0,0,0,140.86,203.61Z" style="fill:#fff"></path><path d="M140.86,218.27a.68.68,0,0,0,.69-.68V210.2a.69.69,0,0,0-1.37,0v7.39A.68.68,0,0,0,140.86,218.27Z" style="fill:#fff"></path><path d="M228.18,191.16a.67.67,0,0,0-1,0l-25.95,26a.67.67,0,0,0,0,1,.63.63,0,0,0,.48.2.65.65,0,0,0,.48-.2l26-25.95A.67.67,0,0,0,228.18,191.16Z" style="fill:#fff"></path><path d="M222.78,186a.68.68,0,0,0,0-1,.7.7,0,0,0-1,0l-21.67,21.67a.7.7,0,0,0,0,1,.71.71,0,0,0,.49.2.69.69,0,0,0,.48-.2Z" style="fill:#fff"></path><path d="M201.27,195.47a.63.63,0,0,0,.48.2.65.65,0,0,0,.48-.2L219.5,178.2a.68.68,0,0,0-1-1l-17.27,17.27A.67.67,0,0,0,201.27,195.47Z" style="fill:#fff"></path><path d="M201.27,184.64a.67.67,0,0,0,.48.2.69.69,0,0,0,.48-.2l12.29-12.29a.68.68,0,1,0-1-1l-12.29,12.29A.68.68,0,0,0,201.27,184.64Z" style="fill:#fff"></path><path d="M200.63,174.92a.69.69,0,0,0,.48-.2l8-8a.69.69,0,0,0-1-1l-8,8a.7.7,0,0,0,0,1A.71.71,0,0,0,200.63,174.92Z" style="fill:#fff"></path><path d="M231.46,199.14l-21.15,21.15a.68.68,0,0,0,0,1,.69.69,0,0,0,.48.2.71.71,0,0,0,.49-.2l21.14-21.15a.68.68,0,0,0,0-1A.67.67,0,0,0,231.46,199.14Z" style="fill:#fff"></path><path d="M241.26,212.85a.67.67,0,0,0-1,0l-7.3,7.3a.67.67,0,0,0,0,1,.69.69,0,0,0,.48.2.67.67,0,0,0,.48-.2l7.3-7.3A.67.67,0,0,0,241.26,212.85Z" style="fill:#fff"></path><path d="M382.43,244.36a.68.68,0,0,0,.34-.59V213.13s0,0,0,0a.84.84,0,0,0-.08-.31.72.72,0,0,0-.23-.23s0,0,0,0l-26.54-15.32a.71.71,0,0,0-.69,0l-26.53,15.33a.68.68,0,0,0-.34.59v30.64a.56.56,0,0,0,.09.34.6.6,0,0,0,.25.25l26.53,15.32h0a.55.55,0,0,0,.31.08h.11l.14,0,.09,0h0Zm-52.05-.58,24.49-14.14v3.62a.64.64,0,0,0,.09.34.67.67,0,0,0,.59.34.69.69,0,0,0,.69-.68v-3.62l16.31,9.41,8.19,4.72-24.49,14.15V254a.67.67,0,0,0-.68-.68.68.68,0,0,0-.69.68v3.93l-7.7-4.45Zm-.69-24.27v-5.19l1.19.69a.65.65,0,0,0,.41.31l.25.07,9.84,5.68-10-2.69a.68.68,0,0,0-.83.49.72.72,0,0,0,.06.52.67.67,0,0,0,.42.31l14.95,4,8.23,4.75L329.7,242.6Zm46.92-3.22a.67.67,0,0,0,.93.25l3.86-2.23v28.28l-24.49-14.13,2.51-1.46a.68.68,0,0,0-.68-1.18l-2.52,1.45V199l24.49,14.13-3.86,2.23A.68.68,0,0,0,376.61,216.29Zm-21.75-8.5v19.48l-3.82-2.2,1.53.41a.68.68,0,1,0,.35-1.32l-6.45-1.73-9.84-5.68,16.23,4.35a.68.68,0,1,0,.35-1.32l-21.15-5.66-1.69-1L354.86,199Z" style="fill:#fff"></path><path d="M366.79,222a.7.7,0,0,0-.93-.25l-4,2.32a.69.69,0,0,0-.25.94.7.7,0,0,0,.93.25l4-2.32A.69.69,0,0,0,366.79,222Z" style="fill:#fff"></path><path d="M369.84,219.41a.69.69,0,0,0-.25.94.7.7,0,0,0,.93.25l3.64-2.11a.68.68,0,1,0-.68-1.18Z" style="fill:#fff"></path><path d="M356.24,249.36v-3.91a.69.69,0,0,0-1.37,0v3.91a.75.75,0,0,0,.09.34.68.68,0,0,0,1.28-.34Z" style="fill:#fff"></path><path d="M356.24,241.38v-4.13a.69.69,0,0,0-1.37,0v4.12a.67.67,0,0,0,.09.34.69.69,0,0,0,1.28-.34Z" style="fill:#fff"></path><path d="M349.94,203.12a.67.67,0,0,0,.41.32l2.73.73a.68.68,0,0,0,.36-1.32l-2.74-.73a.68.68,0,0,0-.83.49A.65.65,0,0,0,349.94,203.12Z" style="fill:#fff"></path><path d="M334.32,237.78l-1.86-.5a.7.7,0,0,0-.84.49.78.78,0,0,0,.07.52.7.7,0,0,0,.42.31l1.86.5a.68.68,0,1,0,.35-1.32Z" style="fill:#fff"></path><path d="M345.22,205.46a.71.71,0,0,0,.07.52.69.69,0,0,0,.42.32l6.23,1.67a.68.68,0,1,0,.36-1.32L346.06,205A.69.69,0,0,0,345.22,205.46Z" style="fill:#fff"></path><path d="M339.13,235.7a.67.67,0,0,0-.48-.83l-6.24-1.67a.69.69,0,0,0-.84.48.77.77,0,0,0,.07.52.72.72,0,0,0,.42.32l6.23,1.67A.69.69,0,0,0,339.13,235.7Z" style="fill:#fff"></path><path d="M340.5,208.19a.77.77,0,0,0,.07.52.72.72,0,0,0,.42.32l11.61,3.1a.68.68,0,0,0,.84-.48.7.7,0,0,0-.49-.84l-11.61-3.1A.68.68,0,0,0,340.5,208.19Z" style="fill:#fff"></path><path d="M335.23,211.24a.65.65,0,0,0,.07.51.66.66,0,0,0,.41.32l17.2,4.61a.69.69,0,0,0,.84-.49.68.68,0,0,0-.48-.83l-17.2-4.61A.69.69,0,0,0,335.23,211.24Z" style="fill:#fff"></path><path d="M344.91,232.36a.67.67,0,0,0-.48-.83l-12.24-3.28a.68.68,0,0,0-.84.48.67.67,0,0,0,.07.52.7.7,0,0,0,.41.32l12.25,3.27A.67.67,0,0,0,344.91,232.36Z" style="fill:#fff"></path><path d="M350.53,229.12a.68.68,0,0,0-.48-.84l-18.68-5a.68.68,0,0,0-.83.48.69.69,0,0,0,.48.84l18.67,5A.68.68,0,0,0,350.53,229.12Z" style="fill:#fff"></path><circle cx="355.98" cy="150.19" r="28.58" style="fill:#e0e0e0"></circle><path d="M324.46,149.16a29.34,29.34,0,1,0,29.34-29.33A29.35,29.35,0,0,0,324.46,149.16Zm24.44-21.73a4.17,4.17,0,0,1-3-.06c.46,2-1.55,3.86-3.45,4.9-2.46,1.34-5.23,1.89-5.76-.3-.32-1.33.67-3.2,3.18-4.91,1.36-.92,3.54-1.61,4.89-1.08-.21-1.22.9-2.58,2.6-3.15s3.64-.06,4.06,1.21S350.72,126.83,348.9,127.43Zm14.25,10.09a4.08,4.08,0,1,1-1.28-5.63A4.07,4.07,0,0,1,363.15,137.52ZM349.43,171a3.13,3.13,0,1,1,3.13,3.13A3.13,3.13,0,0,1,349.43,171Zm-.83-10.76a3.59,3.59,0,0,1,3.59-3.59h.15a13.26,13.26,0,0,1,17.15-15,5.32,5.32,0,1,1,7.69,6.59A13.25,13.25,0,0,1,369,167a2.75,2.75,0,0,1,.37,1.37,2.72,2.72,0,0,1-5.43,0,2.82,2.82,0,0,1,.16-.92,13.27,13.27,0,0,1-9.14-5,3.6,3.6,0,0,1-6.39-2.26Zm-7.88-20.91a2.68,2.68,0,0,1,4.17-2.46,4.08,4.08,0,1,1,1.09,3,2.69,2.69,0,0,1-5.26-.52ZM336.84,164a2,2,0,1,1,2,2A2,2,0,0,1,336.84,164Zm-4-22.94a2.69,2.69,0,1,1,2.9,2.44A2.68,2.68,0,0,1,332.88,141Z" style="fill:#f5f5f5"></path><path d="M336.84,164a2,2,0,1,0,2-2A2,2,0,0,0,336.84,164Z" style="fill:#e6e6e6"></path><path d="M336.54,164a2.33,2.33,0,1,1,2.33,2.33A2.33,2.33,0,0,1,336.54,164Zm.59,0a1.74,1.74,0,1,0,1.74-1.74A1.74,1.74,0,0,0,337.13,164Z" style="fill:#fff"></path><path d="M349.43,171a3.13,3.13,0,1,0,3.13-3.13A3.13,3.13,0,0,0,349.43,171Z" style="fill:#e6e6e6"></path><path d="M349.13,171a3.43,3.43,0,1,1,3.43,3.42A3.44,3.44,0,0,1,349.13,171Zm.59,0a2.84,2.84,0,1,0,2.84-2.84A2.84,2.84,0,0,0,349.72,171Z" style="fill:#fff"></path><path d="M357.53,138.8a4.08,4.08,0,1,0-1.29-5.62A4.07,4.07,0,0,0,357.53,138.8Z" style="fill:#e6e6e6"></path><path d="M357.37,139.05a4.37,4.37,0,0,1-1.38-6,4.38,4.38,0,1,1,4.68,6.59,4,4,0,0,1-1,.12A4.32,4.32,0,0,1,357.37,139.05Zm-.88-5.72a3.77,3.77,0,0,0,1.19,5.22h0a3.79,3.79,0,1,0-1.19-5.22Z" style="fill:#fff"></path><path d="M340.72,139.31a2.69,2.69,0,0,0,5.26.52,4.08,4.08,0,1,0-1.09-3,2.68,2.68,0,0,0-4.17,2.46Z" style="fill:#e6e6e6"></path><path d="M341.47,141.37a3,3,0,0,1-1.05-2,3,3,0,0,1,2.72-3.23,3.08,3.08,0,0,1,1.5.26,4.38,4.38,0,1,1,4.7,5,4.33,4.33,0,0,1-3.25-1.05,3,3,0,0,1-2.44,1.7h-.27A3,3,0,0,1,341.47,141.37Zm4.72-1.75a3.78,3.78,0,1,0,5.21-5.47,3.7,3.7,0,0,0-2.76-.88,3.8,3.8,0,0,0-3.46,3.59.27.27,0,0,1-.16.25.3.3,0,0,1-.3,0,2.39,2.39,0,0,0-3.71,2.2h0a2.41,2.41,0,0,0,.84,1.62,2.32,2.32,0,0,0,1.75.55,2.39,2.39,0,0,0,2.09-1.72.3.3,0,0,1,.22-.2H346A.27.27,0,0,1,346.19,139.62Z" style="fill:#fff"></path><path d="M332.88,141a2.69,2.69,0,1,0,2.44-2.91A2.69,2.69,0,0,0,332.88,141Z" style="fill:#e6e6e6"></path><path d="M332.58,141h0a3,3,0,1,1,3.23,2.72h-.25A3,3,0,0,1,332.58,141Zm2.77-2.64a2.38,2.38,0,1,0,.2,0ZM332.87,141h0Z" style="fill:#fff"></path><path d="M338,159.74l.09,0a.29.29,0,0,0,.18-.37c-1.63-4.8-.35-14.43-.34-14.52a.29.29,0,1,0-.58-.08c-.06.4-1.31,9.86.37,14.79A.29.29,0,0,0,338,159.74Z" style="fill:#e6e6e6"></path><path d="M334.69,162.4a.3.3,0,0,0,.24-.12.29.29,0,0,0-.06-.41,13.75,13.75,0,0,1-4.64-7.05.29.29,0,0,0-.37-.2.3.3,0,0,0-.19.37,14.26,14.26,0,0,0,4.84,7.35A.32.32,0,0,0,334.69,162.4Z" style="fill:#e6e6e6"></path><path d="M347.28,166.53a.3.3,0,0,0,.3-.28.3.3,0,0,0-.29-.31,16.43,16.43,0,0,1-4.19-.7.29.29,0,0,0-.37.2.29.29,0,0,0,.2.37,17.41,17.41,0,0,0,4.34.72Z" style="fill:#e6e6e6"></path><path d="M336.73,171.64a.29.29,0,0,0,.28-.22l1-3.68a.3.3,0,0,0-.57-.16l-1,3.69a.3.3,0,0,0,.21.36Z" style="fill:#e6e6e6"></path><path d="M330.43,166.57h0a11.38,11.38,0,0,0,4.33-1.15.3.3,0,0,0-.27-.53,10.61,10.61,0,0,1-4.1,1.09.29.29,0,0,0-.27.32A.29.29,0,0,0,330.43,166.57Z" style="fill:#e6e6e6"></path><path d="M341.65,161a.28.28,0,0,0,.26-.17c1.16-2.48,5.45-10.95,5.49-11a.29.29,0,0,0-.13-.4.31.31,0,0,0-.4.13c0,.09-4.33,8.56-5.49,11.05a.3.3,0,0,0,.14.4Z" style="fill:#e6e6e6"></path><path d="M347.22,174.33a.3.3,0,0,0,.26-.16.29.29,0,0,0-.11-.4,17.83,17.83,0,0,1-6.42-6.49.29.29,0,1,0-.51.29,18.38,18.38,0,0,0,6.64,6.72A.33.33,0,0,0,347.22,174.33Z" style="fill:#e6e6e6"></path><path d="M348.6,160.22a3.6,3.6,0,0,0,6.39,2.26,13.27,13.27,0,0,0,9.14,5,2.82,2.82,0,0,0-.16.92,2.72,2.72,0,0,0,5.43,0A2.75,2.75,0,0,0,369,167a13.25,13.25,0,0,0,8.15-18.74,5.32,5.32,0,1,0-7.69-6.59,13.26,13.26,0,0,0-17.15,15h-.15A3.59,3.59,0,0,0,348.6,160.22Zm0,0a3.6,3.6,0,0,0,6.39,2.26,13.27,13.27,0,0,0,9.14,5,2.82,2.82,0,0,0-.16.92,2.72,2.72,0,0,0,5.43,0A2.75,2.75,0,0,0,369,167a13.25,13.25,0,0,0,8.15-18.74,5.32,5.32,0,1,0-7.69-6.59,13.26,13.26,0,0,0-17.15,15h-.15A3.59,3.59,0,0,0,348.6,160.22Z" style="fill:#e6e6e6"></path><path d="M336.7,132c.53,2.19,3.3,1.64,5.76.3,1.9-1,3.91-2.86,3.45-4.9a4.17,4.17,0,0,0,3,.06c1.82-.6,3-2.12,2.53-3.39s-2.24-1.81-4.06-1.21-2.81,1.93-2.6,3.15c-1.35-.53-3.53.16-4.89,1.08C337.37,128.77,336.38,130.64,336.7,132Z" style="fill:#e6e6e6"></path><path d="M337.59,133.52a2.07,2.07,0,0,1-1.18-1.48h0c-.38-1.57.89-3.57,3.31-5.22a6.92,6.92,0,0,1,4.73-1.24,3.8,3.8,0,0,1,2.83-3,4.58,4.58,0,0,1,2.73-.1,2.42,2.42,0,0,1,1.71,1.5c.47,1.42-.76,3.11-2.73,3.76a4.63,4.63,0,0,1-2.72.11c.13,2.42-2.73,4.2-3.67,4.71a9.15,9.15,0,0,1-3.85,1.21A2.79,2.79,0,0,1,337.59,133.52ZM346,127.1a3.78,3.78,0,0,0,2.76.05c1.67-.55,2.72-1.91,2.35-3a1.81,1.81,0,0,0-1.31-1.11,4.06,4.06,0,0,0-2.38.09c-1.52.51-2.58,1.74-2.4,2.82a.28.28,0,0,1-.1.27.3.3,0,0,1-.3,0c-1.21-.47-3.3.17-4.61,1.06-2.64,1.8-3.31,3.55-3.06,4.59h0a1.46,1.46,0,0,0,.84,1.08c.94.42,2.62.05,4.49-1,.91-.5,3.82-2.29,3.31-4.58a.27.27,0,0,1,.1-.29.31.31,0,0,1,.18-.07A.28.28,0,0,1,346,127.1ZM336.69,132h0Z" style="fill:#fff"></path><path d="M363.67,168.36a2.84,2.84,0,0,1,.08-.66,13.65,13.65,0,0,1-5.58-2,13.13,13.13,0,0,1-3.19-2.79,3.89,3.89,0,1,1-3-6.59,13.55,13.55,0,0,1,17.33-15,5.62,5.62,0,1,1,8.24,7,13.55,13.55,0,0,1-8.11,18.82,3,3,0,1,1-5.78,1.19Zm5.1-1.22-.19-.33.36-.11a12.94,12.94,0,0,0,9.38-12.46,13.13,13.13,0,0,0-1.4-5.86l-.12-.24L377,148a5,5,0,1,0-7.27-6.23l-.11.25-.26-.08a13,13,0,0,0-17,12.3,13.22,13.22,0,0,0,.21,2.34l.07.35h-.51a3.3,3.3,0,1,0,2.57,5.36L355,162l.23.29a12.57,12.57,0,0,0,3.27,2.93,13.08,13.08,0,0,0,5.67,1.93l.37,0-.12.35a2.28,2.28,0,0,0-.14.82,2.42,2.42,0,1,0,4.83,0A2.35,2.35,0,0,0,368.77,167.14Z" style="fill:#fff"></path><path d="M364.39,154.87a1.71,1.71,0,0,1,.6-3.11,1.71,1.71,0,0,1,1.28.25,1.65,1.65,0,0,1,.74,1.08,1.67,1.67,0,0,1-.24,1.29,1.73,1.73,0,0,1-1.09.74,2.2,2.2,0,0,1-.36,0A1.65,1.65,0,0,1,364.39,154.87Z" style="fill:#f0f0f0"></path><path d="M275.86,218.49a.71.71,0,0,1-.31.43,1.21,1.21,0,0,1-.5.18.63.63,0,0,1-.42-.12,1.57,1.57,0,0,1-.31-.32,1.91,1.91,0,0,1-.28-.4,3.43,3.43,0,0,1-.19-.44c-.19-.47-.4-.94-.61-1.4s-.41-.93-.59-1.4a6.78,6.78,0,0,0-.8,1.07c-.23.37-.45.75-.67,1.14a3.94,3.94,0,0,1-.26.55,3.94,3.94,0,0,0-.26.55,1.07,1.07,0,0,0-.13.21l-.14.22a1.08,1.08,0,0,1-.16.2.53.53,0,0,1-.21.11.74.74,0,0,1-.39-.14,1,1,0,0,1-.29-.29,1.18,1.18,0,0,1-.16-.38,1.44,1.44,0,0,1,.06-.82,2.53,2.53,0,0,1,.18-.37,3.48,3.48,0,0,1,.22-.36c.08-.12.16-.23.23-.35l.6-.78.59-.78.41-.65c.13-.21.26-.43.38-.66-.17-.38-.34-.75-.53-1.12s-.35-.75-.51-1.13c-.07-.16-.13-.33-.2-.49s-.13-.33-.19-.49a4.37,4.37,0,0,1-.12-.52,2.33,2.33,0,0,1,0-.53.49.49,0,0,1,.08-.21.61.61,0,0,1,.17-.15.67.67,0,0,1,.21-.09.87.87,0,0,1,.22,0,1.48,1.48,0,0,1,.42,0,.47.47,0,0,1,.32.23,1.8,1.8,0,0,1,.17.34c.05.13.1.25.14.38.14.38.28.77.41,1.16s.26.77.4,1.16a5.24,5.24,0,0,0,.7-.87q.3-.47.57-1a4.25,4.25,0,0,1,.21-.43,4.25,4.25,0,0,0,.21-.43.66.66,0,0,0,.12-.17,1.74,1.74,0,0,1,.11-.18,1.12,1.12,0,0,1,.13-.16.52.52,0,0,1,.17-.12,1.11,1.11,0,0,1,.36.13,1.09,1.09,0,0,1,.29.23,1.12,1.12,0,0,1,.2.33,1,1,0,0,1,.07.38,3.9,3.9,0,0,1-.39,1,7.12,7.12,0,0,1-.6.94c-.23.3-.47.59-.72.88s-.49.57-.71.86c.2.33.39.67.56,1l.51,1c.15.32.3.64.45.94s.31.62.46.92a5.38,5.38,0,0,1,.24.55A1.59,1.59,0,0,1,275.86,218.49Z" style="fill:#fff"></path><path d="M209.21,118.34a1.61,1.61,0,0,1-.22.53c-.12.17-.22.34-.32.51l-.41.55-.39.55c-.32.47-.62.94-.92,1.43s-.56,1-.8,1.5a15.1,15.1,0,0,0-.65,1.56,13.25,13.25,0,0,0-.44,1.61L205,127a1.49,1.49,0,0,1-.15.4.65.65,0,0,1-.28.29.69.69,0,0,1-.39.08.46.46,0,0,1-.27-.08.41.41,0,0,1-.18-.19.82.82,0,0,1-.1-.26,1,1,0,0,1,0-.29c0-.26.06-.52.1-.78s.09-.52.15-.78.13-.52.21-.78a5.45,5.45,0,0,1,.3-.76,3.54,3.54,0,0,1-.49-.61,5,5,0,0,1-.34-.7,6.75,6.75,0,0,1-.25-.76c-.07-.26-.13-.52-.2-.78a14,14,0,0,1-.23-1.49,6.56,6.56,0,0,1,0-1.53l.06-.2a1.24,1.24,0,0,1,.1-.2.54.54,0,0,1,.15-.15.26.26,0,0,1,.19-.07.7.7,0,0,1,.32,0,.6.6,0,0,1,.25.13.58.58,0,0,1,.18.23.71.71,0,0,1,.09.28c0,.23,0,.46.07.69s.05.46.06.69.09.51.14.75.11.49.18.74a5.77,5.77,0,0,0,.22.74,6.51,6.51,0,0,0,.33.71c.28-.58.58-1.15.91-1.69s.65-1.1,1-1.65c.13-.24.27-.47.41-.7l.44-.69a.53.53,0,0,1,.24-.23.59.59,0,0,1,.32-.06.66.66,0,0,1,.32.13.88.88,0,0,1,.22.25,1.33,1.33,0,0,1,.12.32A1.45,1.45,0,0,1,209.21,118.34Z" style="fill:#fff"></path><path d="M141,301v7.59a3.12,3.12,0,0,1-3,3.24H84.68a2.11,2.11,0,0,1-2-2.19v-6.45a2.11,2.11,0,0,1,2-2.19Z" style="fill:#e6e6e6"></path><path d="M82.67,299.66v-8.24a1.24,1.24,0,0,1,1.19-1.29h52a5.44,5.44,0,0,1,5.2,5.64v3.89a1.25,1.25,0,0,1-1.19,1.29h-56A1.24,1.24,0,0,1,82.67,299.66Z" style="fill:#e0e0e0"></path><path d="M100,301v6.48a4.19,4.19,0,0,1-4,4.35H84.12a4.19,4.19,0,0,1-4-4.35V301Z" style="fill:#f0f0f0"></path><path d="M80.12,301v-6.47a4.19,4.19,0,0,1,4-4.35H96a4.19,4.19,0,0,1,4,4.35V301Z" style="fill:#e6e6e6"></path><rect x="100.4" y="302.71" width="40.61" height="0.92" style="fill:#e0e0e0"></rect></g><g id="freepik--Character--inject-51"><path d="M201.19,266.88c2.49,32.74,6,73.41,4.25,103.17l-.25,19h95.57s-.95-31.38,2.27-39.73c3.44-8.92,6.3-16.92,8.68-24.16,2.2-9.8,5.26-20.13,8.35-32,2.93-16.32-5.72-41.08-11-47.39a31.06,31.06,0,0,0-8.93-3.86c-3.17-.82-6.5-1.62-9.84-2.38-2.47-.57-5-1.1-7.41-1.49q-5-.85-10.11-1.58a311.75,311.75,0,0,0-33.29-2.8c-2.15-.12-4.3-.19-6.42-.23l-.53.07A31,31,0,0,0,201.1,264C201.09,265,201.11,265.93,201.19,266.88Z" style="fill:#1EB2A6"></path><g style="opacity:0.6000000000000001"><path d="M201.19,266.88c2.49,32.74,6,73.41,4.25,103.17l-.25,19h95.57s-.95-31.38,2.27-39.73c3.44-8.92,6.3-16.92,8.68-24.16,2.2-9.8,5.26-20.13,8.35-32,2.93-16.32-5.72-41.08-11-47.39a31.06,31.06,0,0,0-8.93-3.86c-3.17-.82-6.5-1.62-9.84-2.38-2.47-.57-5-1.1-7.41-1.49q-5-.85-10.11-1.58a311.75,311.75,0,0,0-33.29-2.8c-2.15-.12-4.3-.19-6.42-.23l-.53.07A31,31,0,0,0,201.1,264C201.09,265,201.11,265.93,201.19,266.88Z"></path></g><path d="M266.29,269.08c-4,0-7.65-1.79-10.45-3.39-5.32-3-9.62-7.89-13.78-12.58l-1-1.12,1.12-1,1,1.12c4.08,4.6,8.3,9.36,13.4,12.27,2.79,1.59,6.48,3.38,10.32,3.19a14.88,14.88,0,0,0,8.89-4.05c2.19-2,4.35-5.42,6.09-8.19l.1-.16-.09-.07.77-1,1.22.86-.73,1.16c-1.79,2.86-4,6.41-6.36,8.51a16.38,16.38,0,0,1-9.81,4.44Z" style="fill:#fff"></path><path d="M301.11,391.49c.5,3.49,1.53,10.58,2.95,20.39H218.79a51.4,51.4,0,0,1,5.37-20.39c.43-.83.88-1.64,1.37-2.43h75.23Z" style="fill:#263238"></path><path d="M284.26,389.06a1.11,1.11,0,0,0,0,.13c-.05.29-.18,1.07-.37,2.3-.56,3.48-1.68,10.57-3.17,20.39H195.34a70,70,0,0,1,11.06-20.39c.68-.84,1.37-1.65,2.09-2.43Z" style="fill:#263238"></path><path d="M237.88,226.07c16.09-11.25,40.06,5.6,48.16,2.52,1.62-9.82,3.35-20-2.15-28.3s-14.83-14.15-24.77-14.71-20.19,4.53-25.12,13.17S231,218.92,237.88,226.07Z" style="fill:#263238"></path><path d="M256,123.3c4.8-5.25,12.69-6.87,19.67-5.47s13.16,5.43,18.59,10c9.5,8,17.33,18.22,21.71,29.87s5.16,24.79,1.23,36.59c-1.89,5.67-7.16,27.15-11.89,30.79-7.43,5.72-21,5.15-29.63,1.57S265.18,201,259.81,193.33c-7-10-19.48-35.37-11.56-56.14C252,127.29,256,123.3,256,123.3Z" style="fill:#263238"></path><path d="M270.1,260.76c-4.44,3.11-7.55,1.2-12.08-1.76-27.27-16.17-15.9-28.64-15.9-28.64,6.81-5.43,8.55-13.19,8.81-25.48a6.9,6.9,0,0,1,.14-1,7.9,7.9,0,0,1,2.2-4.14,8,8,0,0,1,11.31,0l12.51,6.2,0,0c0,.19-.07.38-.11.57-1.23,6.52-2.37,11.53-3.08,15.51-.09.49-.17,1-.25,1.45a.08.08,0,0,0,0,.07c-.08.5-.14,1-.21,1.48-.74,5.5-.13,8.63,3.24,11.23C278.83,237.93,285.05,250.26,270.1,260.76Z" style="fill:#ffb573"></path><path d="M277.1,205.91v0a1.27,1.27,0,0,0-.09.59c-1.23,6.52-2.37,11.53-3.08,15.51a10.22,10.22,0,0,0-.25,1.45.08.08,0,0,0,0,.07,13.41,13.41,0,0,0-.1,1.54.6.6,0,0,1-.11-.06,51.42,51.42,0,0,1-22.37-21.2l0-.08a8,8,0,0,1,13.51-4.13Z" style="opacity:0.2;isolation:isolate"></path><path d="M238.94,163.6c2.56,22.67,3.15,32.32,15.07,43.69,17.93,17.07,44.72,9.64,49-13.23,3.77-20.56-1-54.19-23.43-62.67S236.39,140.89,238.94,163.6Z" style="fill:#ffb573"></path><path d="M247.25,163.43c4.8,1.9,6,23.34-5,23.46S231.49,157.22,247.25,163.43Z" style="fill:#263238"></path><path d="M233.23,184.07a18.63,18.63,0,0,0,8.69,11c5.58,3.1,9.68-1.51,9.22-7.57-.44-5.53-3.8-13.59-9.93-14.2S231.58,178.38,233.23,184.07Z" style="fill:#ffb573"></path><path d="M289.58,172.06a56.67,56.67,0,0,0,9.06,12.1,8.5,8.5,0,0,1-7,2.21Z" style="fill:#ed893e"></path><path d="M271.32,169.47c.09,1.84,1.1,3.32,2.33,3.28s2.08-1.57,2-3.41-1.1-3.35-2.32-3.28S271.23,167.6,271.32,169.47Z" style="fill:#263238"></path><path d="M294.61,168.88c.08,1.84,1.09,3.32,2.32,3.28s2.09-1.55,2-3.41-1.1-3.33-2.33-3.28S294.51,167,294.61,168.88Z" style="fill:#263238"></path><path d="M296.07,165.59l4.31-1.42S298.3,167.71,296.07,165.59Z" style="fill:#263238"></path><path d="M269.86,162.08a.82.82,0,0,0,.43-.35,8.28,8.28,0,0,1,6.54-3.79,1.06,1.06,0,0,0,1.11-1v0a1.11,1.11,0,0,0-1.07-1.13,10.28,10.28,0,0,0-8.49,4.75,1.1,1.1,0,0,0,.29,1.51A1.06,1.06,0,0,0,269.86,162.08Z" style="fill:#263238"></path><path d="M305.12,158.77l.09-.18a1.09,1.09,0,0,0-.48-1.46,10.47,10.47,0,0,0-9.79,0,1.14,1.14,0,0,0-.33,1.51,1.1,1.1,0,0,0,1.47.37,8.34,8.34,0,0,1,7.8,0A1.06,1.06,0,0,0,305.12,158.77Z" style="fill:#263238"></path><path d="M272.8,166.15l4.31-1.42S275,168.29,272.8,166.15Z" style="fill:#263238"></path><path d="M292.72,191.68s-6.35-1.78-24.27-2.1c1.89,6.15,5.65,11.18,14.85,11.27S292.72,191.68,292.72,191.68Z" style="fill:#263238"></path><path d="M279.19,196a15,15,0,0,1,9.92,3.12,9,9,0,0,1-5.81,1.72,14.83,14.83,0,0,1-9.89-3.12A8.92,8.92,0,0,1,279.19,196Z" style="fill:#ff5652"></path><path d="M291.9,191.49a4,4,0,0,1-2.9,3,83.08,83.08,0,0,1-15.8-1.81,4.9,4.9,0,0,1-3.95-3.06A132.07,132.07,0,0,1,291.9,191.49Z" style="fill:#fff"></path><g id="freepik--Masker--inject-51"><path d="M304.14,177.93c-2.44-.21-3.68.09-5.65-1.37a29.19,29.19,0,0,1-4-3.5,7.18,7.18,0,0,0-6.4-2,24.94,24.94,0,0,0-5.63,2.71c-10.91,5.94-32.74,6.85-41.48-5.72,1.55,2.49,5.4,6.63,7.92,11.17,0,0,1.9,16.71-1.84,16.76a14.45,14.45,0,0,1-3.27-.23c5.4,6.5,10.61,12.6,17.79,17s16.32,6.52,24.21,3.5c6.81-2.61,13-9.25,15.8-16s3.5-14.15,3.77-21.44Zm-5.63,18.85a17.3,17.3,0,0,1-1.88,5.38,10.76,10.76,0,0,1-4.62,3.53c-4.73,2.28-10.47,2.17-15.61,1.05a10.57,10.57,0,0,1-6.57-5.17c-1.46-2.48-3.51-14.85-2.12-15.18a91.45,91.45,0,0,0,32.74.8C299.73,190.37,299.23,193.6,298.51,196.78Zm5.63-18.85c-2.44-.21-3.68.09-5.65-1.37a29.19,29.19,0,0,1-4-3.5,7.18,7.18,0,0,0-6.4-2,24.94,24.94,0,0,0-5.63,2.71c-10.91,5.94-32.74,6.85-41.48-5.72,1.55,2.49,5.4,6.63,7.92,11.17,0,0,1.9,16.71-1.84,16.76a14.45,14.45,0,0,1-3.27-.23c5.4,6.5,10.61,12.6,17.79,17s16.32,6.52,24.21,3.5c6.81-2.61,13-9.25,15.8-16s3.5-14.15,3.77-21.44Zm-5.63,18.85a17.3,17.3,0,0,1-1.88,5.38,10.76,10.76,0,0,1-4.62,3.53c-4.73,2.28-10.47,2.17-15.61,1.05a10.57,10.57,0,0,1-6.57-5.17c-1.46-2.48-3.51-14.85-2.12-15.18a91.45,91.45,0,0,0,32.74.8C299.73,190.37,299.23,193.6,298.51,196.78Z" style="fill:#fff;opacity:0.9"></path><path d="M300.65,187.19a91.68,91.68,0,0,1-32.74-.8c-1.38.34.65,12.7,2.11,15.17a10.64,10.64,0,0,0,6.58,5.18c5.14,1.12,10.87,1.24,15.61-1a10.94,10.94,0,0,0,4.62-3.54,17.06,17.06,0,0,0,1.87-5.37C299.43,193.6,299.93,190.38,300.65,187.19Z" style="fill:#fff;opacity:0.5"></path></g><path d="M353.77,226.21l-16-10,13-17.56s13.58,13.06,14.21,23.57Z" style="fill:#ffb573"></path><path d="M325.47,200.38l6-6a3.84,3.84,0,0,1,4-.92l15.31,5.27-13.05,17.53-12-10.2A3.84,3.84,0,0,1,325.47,200.38Z" style="fill:#ffb573"></path><path d="M310.1,295.66l44.12,22.7a35,35,0,0,0,12.11,4.84c13.26,2.49,28.35-7,23.56-26.56C386.56,283,377.53,250,365,219.75l-17.83,2.54L360,285.82l-52.14-43.41Z" style="fill:#1EB2A6"></path><g style="opacity:0.1"><path d="M310.1,295.66l44.12,22.7a35,35,0,0,0,12.11,4.84c13.26,2.49,28.35-7,23.56-26.56C386.56,283,377.53,250,365,219.75l-17.83,2.54L360,285.82l-52.14-43.41Z"></path></g><path d="M251.27,389.06c0,.8,0,1.62,0,2.43q0,10-.25,20.39H190.29c1.18-6.82,10.81-38.06,11.76-52.45.87-15.55-1.74-40.44-4.17-63.24-1.94-18.34-3.78-35.34-3.58-45a17.31,17.31,0,0,1,13.26-16.4c.77-.18,1.61-.38,2.53-.58,4.13-.9,9.71-2,15.5-2.82l1.62-.23,1.83-.24,2.87-.33a89.49,89.49,0,0,1,10.64-.55h.25a.36.36,0,0,1,0,.1s0,.11,0,.18c.07.5.22,1.69.45,3.53.38,3.15,1,8.2,1.65,15,1.47,14.58,3.4,37.1,4.74,65.59C250.71,336.08,251.38,361.27,251.27,389.06Z" style="fill:#1EB2A6"></path><polyline points="196.52 283.27 199.77 314.39 208.56 261.12 196.52 283.27" style="opacity:0.2"></polyline><path d="M320.07,293.18c-.74,2.81-1.46,5.53-2.19,8.18-2.31,8.54-4.49,16.33-6.17,23.81-3.17,14.05-4.58,27-1.82,41.71,1.47,7.9,2.78,16.22,3.93,24.61.93,6.8,1.75,13.64,2.49,20.39H283.68q.33-10.58.51-20.39c0-.77,0-1.54.05-2.3v-.13c.51-29.89-.15-55.8-1.31-77.43-1.38-25.87-3.49-45.63-5.24-58.81-.73-5.58-1.41-10-1.93-13.16,0-.13,0-.24-.06-.36-.05-.3-.1-.59-.14-.86s-.07-.41-.1-.59c-.06-.35-.12-.69-.18-1q-.25-1.51-.42-2.37c-.05-.3-.1-.52-.13-.69a0,0,0,0,0,0,0l0-.18,0-.14,1.82.07.42,0,.42,0c12.07.69,23.1,4,30.51,8.85.39.26.81,2.84,1.26,3.38C314.34,252.1,323,276.86,320.07,293.18Z" style="fill:#1EB2A6"></path><path d="M242.8,230s4.5,26.76,6.88,84.38c-10.83-27.45-18.62-51.67-18.62-51.67s6.7-4.65,8.71-6.45l-11.88-5.34c-.5-3.31-2.3-19.57-2.3-19.57C238.85,229.49,242.8,230,242.8,230Z" style="fill:#fff;opacity:0.7000000000000001;isolation:isolate"></path><path d="M274.66,233.44s4.15,18.4,8.56,82.29c5.15-21.44,12.22-47.81,12.22-47.81a83.8,83.8,0,0,0-9.41-9.68l9.41-1.08s-5-16.37-6.33-22C279.8,233.13,274.66,233.44,274.66,233.44Z" style="fill:#fff;opacity:0.7000000000000001;isolation:isolate"></path><path d="M275.24,134.37c1.7,4.28,3.29,8.67,3.69,13.25s-.48,9.45-3.31,13.07c5.4-1.36,9.13-7,8.84-12.56,2.59,4.26,2.24,10.36.43,15,5.88-2.3,9.73-9.34,7.91-15.39,4.48,3.66,7.53,9.21,9.46,14.67,1.94-12.57-5.34-26-16.74-31.65a9.81,9.81,0,0,0-5.75-1.31C277.79,129.77,274.5,132.51,275.24,134.37Z" style="fill:#263238"></path><path d="M258.3,120.71c31.45,2.78,30.93,23.56,5.3,38.94-14.23,8.48-28.75,32.45-14,58.09,4.71,8.17-64.15,37.53-39.68-44.61C222.85,129.82,233.75,114.75,258.3,120.71Z" style="fill:#263238"></path><path d="M127,216.74c3.95-7.81,4.49-13.19,4.94-21l-26.16-.76,5.81,20.71Z" style="fill:#ffb573"></path><path d="M105.81,194.94l26.16.76-5.73-13.85a6.57,6.57,0,0,0-6-4.06l-8.45-.06a6.57,6.57,0,0,0-6.61,7Z" style="fill:#ffb573"></path><g style="opacity:0.1;isolation:isolate"><path d="M153.86,266.52a94.4,94.4,0,0,1-9.29,4c-1.43.54-5.54,1.55-5.14,1.65l4.61,1.17c-2.82-.95-12.7-55.6-14.6-60.81l-18.77.53c-.08,6.56-3,42.15,8.38,82.87,7.79,35.16,69.15-7.47,76.29-11.84,17-10.44,18.12-53.69,10.65-48.81C206,235.27,160.34,263.33,153.86,266.52Z" style="fill:#fff"></path></g><path d="M153.86,266.52a94.4,94.4,0,0,1-9.29,4c-1.43.54-5.54,1.55-5.14,1.65l4.61,1.17c-2.82-.95-12.7-55.6-14.6-60.81l-18.77.53c-.08,6.56-3,42.15,8.38,82.87,7.79,35.16,69.15-7.47,76.29-11.84,17-10.44,18.12-53.69,10.65-48.81C206,235.27,160.34,263.33,153.86,266.52Z" style="fill:#1EB2A6"></path></g><g id="freepik--speech-bubble--inject-51"><path d="M143.76,73.59c-33.76,1.48-60.5,19-60.6,40.57-.1,22.57,29.19,41.07,65.3,41.24a3.9,3.9,0,0,1,3.7,3.55c1.26,7.41,5.67,9.31,9.55,11l.55.24a39.41,39.41,0,0,0,5.7,1.93,20.94,20.94,0,0,1-2.63-1.43c-3.13-2.06-5.53-5.92-4.07-9.32,2.49-5.83,12.46-8.92,17.81-10.59a31.29,31.29,0,0,0,3-1c19.75-7.31,32-20.71,32.08-35,.1-22.58-29.18-41.09-65.28-41.25C147.13,73.49,145.43,73.52,143.76,73.59Z" style="fill:#fff"></path><path d="M168,173.1a.73.73,0,0,1-.25,0,39.93,39.93,0,0,1-5.85-2l-.55-.23c-3.91-1.69-8.78-3.78-10.14-11.73a2.9,2.9,0,0,0-2.71-2.72c-36.67-.17-66.41-19.12-66.3-42.25.1-21.8,27.14-40.05,61.55-41.55h0c1.71-.08,3.43-.11,5.13-.1,17.65.08,34.25,4.47,46.75,12.37,12.65,8,19.58,18.61,19.53,29.89-.07,14.72-12.61,28.49-32.73,35.94-.51.23-1.48.54-3,1-5.19,1.61-14.87,4.62-17.18,10-1.24,2.9.92,6.26,3.7,8.09a20,20,0,0,0,2.5,1.36,1,1,0,0,1-.42,1.91ZM143.8,74.59c-33.35,1.46-59.55,18.84-59.64,39.57-.1,22,28.75,40.08,64.31,40.24a4.86,4.86,0,0,1,4.67,4.38c1.17,6.8,5.05,8.55,8.83,10.18-1.86-2.32-2.8-5.27-1.63-8,2.68-6.26,12.93-9.44,18.43-11.15,1.21-.38,2.36-.73,2.86-1,19.39-7.18,31.43-20.24,31.49-34.1,0-10.57-6.56-20.58-18.6-28.19-12.19-7.7-28.41-12-45.69-12.06-1.67,0-3.36,0-5,.09Zm0-1h0Z" style="fill:#1EB2A6"></path><path d="M168.8,100.2c0,3.7-1.15,7.23-2.25,10.65a44.81,44.81,0,0,0-2,8.07,43.09,43.09,0,0,0-.13,6.23,31.64,31.64,0,0,1-.7,9.28,16.3,16.3,0,0,1-4,6.95l-1-1.88a14,14,0,0,0,3.09-5.6,29.8,29.8,0,0,0,.63-8.71,44.23,44.23,0,0,1,.15-6.5,45.06,45.06,0,0,1,2.12-8.45c1.09-3.43,2.13-6.66,2.15-10a16.49,16.49,0,0,0-32-6L133.66,92a18.64,18.64,0,0,1,6.75-7.62A18.54,18.54,0,0,1,168.8,100.2Z" style="fill:#1EB2A6"></path><path d="M133.74,101a1,1,0,0,1-.94,1,1,1,0,0,1-1.06-.94,17.44,17.44,0,0,1,.21-3.82l1.78,3.37C133.73,100.81,133.73,100.92,133.74,101Z" style="fill:#1EB2A6"></path><path d="M159.94,92.28a1,1,0,0,1-1.4.22,12.37,12.37,0,0,0-16.85,2.28,14.62,14.62,0,0,0-2.63,7.45l-1.55-2.93h0a15.55,15.55,0,0,1,2.57-5.69,14.23,14.23,0,0,1,19.64-2.71A1,1,0,0,1,159.94,92.28Z" style="fill:#1EB2A6"></path><path d="M141.47,122.23a7.71,7.71,0,0,1-4,6,1,1,0,0,1-.43.1,1,1,0,0,1-.43-1.9c2.18-1,3.1-3.83,3-6.15a23.74,23.74,0,0,0-1.06-5.63c-.22-.79-.43-1.59-.62-2.38a39.74,39.74,0,0,1-.84-5.14l3.09,5.89h0c.09.37.19.73.29,1.09.14.53.29,1,.42,1.59h0a5.12,5.12,0,0,0,.56,6.55Z" style="fill:#1EB2A6"></path><path d="M141.62,120.19a10.33,10.33,0,0,1-.15,2,5.12,5.12,0,0,1-.56-6.55A20.5,20.5,0,0,1,141.62,120.19Z" style="fill:#1EB2A6"></path><path d="M156.48,144a16.2,16.2,0,0,1-5.7,2.21,15.65,15.65,0,0,1-2.73.24,16.71,16.71,0,0,1-13.42-6.81,1,1,0,0,1-.15-.31h0a1,1,0,0,1,0-1.1c.28-.46,2.85-4.55,5.05-5.78s4.77-.32,7.15.6a11.91,11.91,0,0,0,4.69,1.16l1,1.88c-2.25.42-4.5-.44-6.39-1.17-2.13-.83-4-1.54-5.46-.72-1.28.72-3.08,3.19-4,4.56a14.55,14.55,0,0,0,14,5.49,13.84,13.84,0,0,0,5.11-2Z" style="fill:#1EB2A6"></path><path d="M158.65,129.77a14.2,14.2,0,0,1-2.83,4.33l-1-1.85a14,14,0,0,0,2-3.3c1-2.26,1-7.31.91-9.07a1,1,0,0,1,2-.11C159.74,120.05,160.07,126.62,158.65,129.77Z" style="fill:#1EB2A6"></path><path d="M145.82,123.68a4.2,4.2,0,0,1-.72.06,5.12,5.12,0,0,1-5.12-5.12,5,5,0,0,1,.93-2.94h0a4.15,4.15,0,0,1,.43-.51Z" style="fill:#1EB2A6"></path><path d="M150.23,118.62a5.06,5.06,0,0,1-1,3l-4.27-8.1h.11A5.13,5.13,0,0,1,150.23,118.62Z" style="fill:#1EB2A6"></path><path d="M160,146.28a1,1,0,0,1-.46.11,1,1,0,0,1-.89-.53l-1.3-2.47-.94-1.79-3.07-5.84-.94-1.78-5.54-10.54-4.72-9-2.69-5.12h0L137,104.71l-3.18-6-1.52-2.89-6-11.35a1,1,0,0,1,.89-1.47,1,1,0,0,1,.88.54l5.07,9.64,1.26,2.4,2.81,5.32h0l1.75,3.34,5,9.43,4.62,8.77L154.11,133l.94,1.79,2.88,5.47,1,1.85,1.48,2.82A1,1,0,0,1,160,146.28Z" style="fill:#1EB2A6"></path><path d="M160,146.28a1,1,0,0,1-.46.11,1,1,0,0,1-.89-.53l-1.3-2.47-.94-1.79-3.07-5.84-.94-1.78-5.54-10.54-4.72-9-2.69-5.12h0L137,104.71l-3.18-6-1.52-2.89-6-11.35a1,1,0,0,1,.89-1.47,1,1,0,0,1,.88.54l5.07,9.64,1.26,2.4,2.81,5.32h0l1.75,3.34,5,9.43,4.62,8.77L154.11,133l.94,1.79,2.88,5.47,1,1.85,1.48,2.82A1,1,0,0,1,160,146.28Z" style="fill:#fff"></path><path d="M160,146.28a1,1,0,0,1-.46.11,1,1,0,0,1-.89-.53l-1.3-2.47-.94-1.79-3.07-5.84-.94-1.78-5.54-10.54-4.72-9-2.69-5.12h0L137,104.71l-3.18-6-1.52-2.89-6-11.35a1,1,0,0,1,.89-1.47,1,1,0,0,1,.88.54l5.07,9.64,1.26,2.4,2.81,5.32h0l1.75,3.34,5,9.43,4.62,8.77L154.11,133l.94,1.79,2.88,5.47,1,1.85,1.48,2.82A1,1,0,0,1,160,146.28Z" style="fill:#1EB2A6"></path></g><g id="freepik--Desk--inject-51"><rect x="80.33" y="391.81" width="339.33" height="20.55" rx="8.5" style="fill:#263238"></rect></g><g id="freepik--Books--inject-51"><path d="M336.49,345.88v11.46a1.1,1.1,0,0,0,0,2.2c4.37,0,8.74,0,13.11,0V343.68H336.49A1.1,1.1,0,0,0,336.49,345.88Z" style="fill:#1EB2A6"></path><path d="M336.49,345.88v11.46a1.1,1.1,0,0,0,0,2.2c4.37,0,8.74,0,13.11,0V343.68H336.49A1.1,1.1,0,0,0,336.49,345.88Z" style="fill:#fff;opacity:0.30000000000000004"></path><rect x="336.49" y="345.89" width="10.19" height="11.45" style="fill:#1EB2A6"></rect><rect x="336.49" y="345.89" width="10.19" height="11.45" style="fill:#fff;opacity:0.6000000000000001"></rect><path d="M344.54,344.78h56.24c2.42,0,4.39,3.06,4.39,6.83s-2,6.83-4.39,6.83H344.54Z" style="fill:#1EB2A6"></path><path d="M344.54,344.78h56.24c2.42,0,4.39,3.06,4.39,6.83s-2,6.83-4.39,6.83H344.54Z" style="fill:#fff;opacity:0.9"></path><path d="M344.54,359.54c11.56,0,44.06.21,55.62,0,7.92-.15,8.35-15.33.58-15.86-5.41-.37-11,0-16.41,0H344.54a1.1,1.1,0,0,0,0,2.2h53.8c2.53,0,4.35,0,5.33,3,.85,2.59.58,7.87-2.89,8.44a7.88,7.88,0,0,1-1.19,0h-55a1.1,1.1,0,0,0,0,2.2Z" style="fill:#1EB2A6"></path><g style="opacity:0.2"><path d="M344.54,359.54c11.56,0,44.06.21,55.62,0,7.92-.15,8.35-15.33.58-15.86-5.41-.37-11,0-16.41,0H344.54a1.1,1.1,0,0,0,0,2.2h53.8c2.53,0,4.35,0,5.33,3,.85,2.59.58,7.87-2.89,8.44a7.88,7.88,0,0,1-1.19,0h-55a1.1,1.1,0,0,0,0,2.2Z" style="fill:#fff"></path></g><path d="M338.44,361.35V372a1,1,0,0,0,0,2c4.05,0,8.1,0,12.15.05V359.32H338.44A1,1,0,0,0,338.44,361.35Z" style="fill:#1EB2A6"></path><path d="M338.44,361.35V372a1,1,0,0,0,0,2c4.05,0,8.1,0,12.15.05V359.32H338.44A1,1,0,0,0,338.44,361.35Z" style="fill:#fff;opacity:0.30000000000000004"></path><rect x="338.44" y="361.36" width="9.44" height="10.6" style="fill:#1EB2A6"></rect><rect x="338.44" y="361.36" width="9.44" height="10.6" style="fill:#fff;opacity:0.6000000000000001"></rect><path d="M345.9,360.33H398c2.25,0,4.07,2.84,4.07,6.33S400.23,373,398,373H345.9Z" style="fill:#1EB2A6"></path><path d="M345.9,360.33H398c2.25,0,4.07,2.84,4.07,6.33S400.23,373,398,373H345.9Z" style="fill:#fff;opacity:0.9"></path><path d="M345.9,374c10.71,0,40.81.19,51.51,0,7.34-.13,7.73-14.19.54-14.68-5-.35-10.17,0-15.2,0H345.9a1,1,0,0,0,0,2h49.82c2.35,0,4,0,4.94,2.8.78,2.4.54,7.29-2.68,7.82a6.73,6.73,0,0,1-1.1,0h-51a1,1,0,0,0,0,2Z" style="fill:#1EB2A6"></path><path d="M332.39,376.23v12.64a1.21,1.21,0,0,0,0,2.42c4.81,0,9.63,0,14.45.06V373.82H332.39A1.21,1.21,0,0,0,332.39,376.23Z" style="fill:#1EB2A6"></path><path d="M332.39,376.23v12.64a1.21,1.21,0,0,0,0,2.42c4.81,0,9.63,0,14.45.06V373.82H332.39A1.21,1.21,0,0,0,332.39,376.23Z" style="fill:#fff;opacity:0.30000000000000004"></path><rect x="332.39" y="376.25" width="11.23" height="12.62" style="fill:#1EB2A6"></rect><rect x="332.39" y="376.25" width="11.23" height="12.62" style="fill:#fff;opacity:0.6000000000000001"></rect><path d="M341.26,375h62c2.68,0,4.85,3.37,4.85,7.52s-2.17,7.53-4.85,7.53h-62Z" style="fill:#1EB2A6"></path><path d="M341.26,375h62c2.68,0,4.85,3.37,4.85,7.52s-2.17,7.53-4.85,7.53h-62Z" style="fill:#fff;opacity:0.9"></path><path d="M341.26,391.29c12.75,0,48.57.23,61.31,0,8.73-.16,9.2-16.89.63-17.47-6-.41-12.1,0-18.08,0H341.26a1.21,1.21,0,0,0,0,2.41h59.29c2.8,0,4.8,0,5.88,3.33.93,2.86.64,8.68-3.19,9.31a8.18,8.18,0,0,1-1.31,0H341.26a1.21,1.21,0,0,0,0,2.42Z" style="fill:#1EB2A6"></path><g style="opacity:0.2"><path d="M341.26,391.29c12.75,0,48.57.23,61.31,0,8.73-.16,9.2-16.89.63-17.47-6-.41-12.1,0-18.08,0H341.26a1.21,1.21,0,0,0,0,2.41h59.29c2.8,0,4.8,0,5.88,3.33.93,2.86.64,8.68-3.19,9.31a8.18,8.18,0,0,1-1.31,0H341.26a1.21,1.21,0,0,0,0,2.42Z"></path></g></g><g id="freepik--earth-globe--inject-51"><polygon points="122.05 379.77 127.66 379.77 127.47 366.44 121.86 366.44 122.05 379.77" style="fill:#1EB2A6"></polygon><path d="M106.72,391.75c0-7.35,8-13.31,18-13.31s18,6,18,13.31Z" style="fill:#1EB2A6"></path><path d="M125.62,369a29.32,29.32,0,0,0,20.87-8.65l-.82-.82a28.36,28.36,0,0,1-40.11-40.1l-.82-.83A29.53,29.53,0,0,0,125.62,369Z" style="fill:#263238"></path><path d="M125.62,369.47a30,30,0,0,1-21.21-51.2l.33-.34,1.49,1.49-.33.34a27.88,27.88,0,1,0,39.43,39.43l.34-.33,1.49,1.49-.34.34A29.79,29.79,0,0,1,125.62,369.47Zm-20.87-50.19a29,29,0,0,0,41.06,41.07l-.14-.15a28.83,28.83,0,0,1-40.77-40.77Z" style="fill:#263238"></path><circle cx="126.19" cy="339.09" r="25.16" transform="translate(-159.43 116.99) rotate(-31.72)" style="fill:#1EB2A6"></circle><circle cx="126.19" cy="339.09" r="25.16" transform="translate(-159.43 116.99) rotate(-31.72)" style="fill:#1EB2A6"></circle><circle cx="126.19" cy="339.09" r="25.16" transform="translate(-159.43 116.99) rotate(-31.72)" style="opacity:0.1"></circle><path d="M129.56,315.75l3.17,1.9v3s-2.41-.33-3.17-1.64c0,0,.65-.28-1.21-1.39S126.93,315.19,129.56,315.75Z" style="fill:#fff"></path><path d="M127.81,339.82l-1.83.88s-.54,1.06-.43,1-.41,2.19-.3,2.22-1,1-1,1l-.55,1.35v1.57l2.63,3.57,1.93,1.09-1.68,9.19.69.26,8.76-6.42.58-1.57,2.59-1,1.38-3.61,1.57-1.82s.15-1.83,0-1.79l-.84.29L140,345a18.32,18.32,0,0,0-2.92-.37c-.14.15-.58-1.69-.58-1.69l-2.55-.71-2.67-1.75-1.93.36Z" style="fill:#fff"></path><path d="M122.84,335.31h1.41l2,1.05,3.74.94.18.3-3.71-.06.68-.43-.55-.35-1.49,0,.18-.18-1.55-.79s-1-.23-1-.12l-.4.05Z" style="fill:#fff"></path><polygon points="125.74 337.6 125.4 337.27 124.84 337.29 125.07 337.6 125.74 337.6" style="fill:#fff"></polygon><polygon points="135.14 318.15 134.59 318.15 134.59 318.82 135.14 319.15 135.63 319.15 135.63 318.65 135.14 318.15" style="fill:#fff"></polygon><path d="M132.73,325.27a44.23,44.23,0,0,0-5.25,2.3,3,3,0,0,0-1.19,2.75l-2.31,1.3.54,2.51-.54.33-.88-2.08a21.89,21.89,0,0,0-4.34-.22c-1.28.22-1.57,2.74-1.57,2.74L118,337l1.75.11.22-1.21,1.86.11-1.2,2.3,2.18.33.22,1.61,2.19,1.67s.44.55,0,.77-10.83-6-11.81-7.55-2.25-5.74-1.26-8.7c.8-2.4,2.28-4.62,2.75-6.07h0s0,0,0-.05h0a.56.56,0,0,0,0-.12.88.88,0,0,0-.68-1c-.38-.11-1.09.33-1.09.33h-1.4l1.45-.83.6-.64.39-.34,1.42-.6-.06-.44a8.05,8.05,0,0,1,2.68-1l-1,.79h1.1l.22,1.24h2.19s-.55-.14.76-.87,5.58-1,5.58-1l-1.31,1.9,2.84,1.61-.33,1.2-2-.55v-.65l-1.22-.74L125,319.8l-.44.55-.54-.44-1.54,1.53,2.74,2.68.44-3.44,3.94.87Z" style="fill:#fff"></path></g></svg>